{
.appVersion = "3187";
.formatVersion = 3;
axes = (
{
name = Weight;
tag = wght;
}
);
classes = (
{
automatic = 1;
code = "A Aacute Abreve Acaron Acircumflex Adblgrave Adieresis Agrave Ainvertedbreve Amacron Aogonek Aring Atilde AE B C Cacute Ccaron Ccedilla Ccircumflex Cdotaccent D Dcaron Dcroat Eth E Eacute Ebreve Ecaron Ecircumflex Edblgrave Edieresis Edotaccent Egrave Einvertedbreve Emacron Eogonek Etilde F G Gbreve Gcircumflex Gcommaaccent Gdotaccent H Hbar Hcircumflex I IJ Iacute Ibreve Icaron Icircumflex Idblgrave Idieresis Idotaccent Igrave Iinvertedbreve Imacron Iogonek Itilde J Jcircumflex K Kcommaaccent L Lacute Lcaron Lcommaaccent Ldot Lslash M N Nacute Ncaron Ncommaaccent Ntilde Eng O Oacute Obreve Ocaron Ocircumflex Odblgrave Odieresis Ograve Ohungarumlaut Oinvertedbreve Omacron Oslash Otilde OE P Thorn Q R Racute Rcaron Rcommaaccent Rdblgrave Rinvertedbreve S Sacute Scaron Scedilla Scircumflex Scommaaccent Sdotaccent T Tbar Tcaron Tcedilla Tcommaaccent U Uacute Ubreve Ucaron Ucircumflex Udblgrave Udieresis Ugrave Uhungarumlaut Uinvertedbreve Umacron Uogonek Uring Utilde V W Wacute Wcircumflex Wdieresis Wgrave X Y Yacute Ycircumflex Ydieresis Ydotaccent Ygrave Ytilde Z Zacute Zcaron Zdotaccent";
name = Uppercase;
}
);
customParameters = (
{
name = "Use Typo Metrics";
value = 1;
},
{
name = fsType;
value = (
);
}
);
date = "2023-04-20 12:05:23 +0000";
familyName = Monofett;
featurePrefixes = (
{
automatic = 1;
code = "languagesystem DFLT dflt;

languagesystem latn dflt;
languagesystem latn AZE;
languagesystem latn CRT;
languagesystem latn KAZ;
languagesystem latn TAT;
languagesystem latn TRK;
languagesystem latn ROM;
languagesystem latn MOL;
languagesystem latn CAT;
";
name = Languagesystems;
}
);
features = (
{
automatic = 1;
code = "feature locl;
feature sups;
feature frac;
feature ordn;
";
tag = aalt;
},
{
code = "lookup ccmp_Other_1 {

glyphs = (
{
color = 6;
glyphname = A;
lastChange = "2023-04-20 13:24:32 +0000";
layers = (
{
anchors = (
{
name = bottom;
pos = (592,0);
},
{
name = ogonek;
pos = (1066,10);
},
{
name = top;
pos = (592,1370);
}
);
background = {
shapes = (
{
closed = 1;
nodes = (
(438,1370,ls),
(168,1370,o),
(-4,1198,o),
(-4,989,cs),
(-4,381,ls),
(-4,172,o),
(168,0,o),
(438,0,cs),
(746,0,ls),
(1016,0,o),
(1188,172,o),
(1188,381,cs),
(1188,989,ls),
(1188,1198,o),
(1016,1370,o),
(746,1370,cs)
);
},
{
closed = 1;
nodes = (
(819,666,l),
(809,758,l),
(440,758,l),
(430,666,l),
(414,453,l),
(295,453,l),
(377,1198,l),
(438,1260,l),
(571,1280,l),
(678,1280,l),
(811,1260,l),
(873,1198,l),
(952,453,l),
(838,453,l)
);
},
{
closed = 1;
nodes = (
(674,1174,l),
(576,1174,l),
(539,1169,o),
(516,1163,o),
(479,1159,c),
(449,854,l),
(801,854,l),
(790,961,o),
(777,1051,o),
(768,1159,c)
);
}
);
};
layerId = "F859EBB1-02CE-49D6-A9DD-2E3CD13E297E";
shapes = (
{
closed = 1;
nodes = (
(746,0,ls),
(1016,0,o),
(1188,172,o),
(1188,381,cs),
(1188,989,ls),
(1188,1198,o),
(1016,1370,o),
(746,1370,cs),
(438,1370,ls),
(168,1370,o),
(-4,1198,o),
(-4,989,cs),
(-4,381,ls),
(-4,172,o),
(168,0,o),
(438,0,cs)
);
},
{
closed = 1;
nodes = (
(377,1198,l),
(438,1260,l),
(571,1280,l),
(678,1280,l),
(811,1260,l),
(873,1198,l),
(952,453,l),
(838,453,l),
(809,758,l),
(440,758,l),
(414,453,l),
(295,453,l)
);
},
{
closed = 1;
nodes = (
(801,854,l),
(768,1159,l),
(674,1174,l),
(576,1174,l),
(479,1159,l),
(449,854,l)
);
}
);
width = 1184;
}
);
unicode = 65;
},
{
color = 10;
glyphname = Aacute;
lastChange = "2023-04-20 14:02:32 +0000";
layers = (
{
background = {
shapes = (
{
closed = 1;
nodes = (
(438,1370,ls),
(168,1370,o),
(-4,1198,o),
(-4,989,cs),
(-4,381,ls),
(-4,172,o),
(168,0,o),
(438,0,cs),
(746,0,ls),
(1016,0,o),
(1188,172,o),
(1188,381,cs),
(1188,989,ls),
(1188,1198,o),
(1016,1370,o),
(746,1370,cs)
);
},
{
closed = 1;
nodes = (
(819,666,l),
(809,758,l),
(440,758,l),
(430,666,l),
(414,453,l),
(295,453,l),
(377,1198,l),
(438,1260,l),
(571,1280,l),
(678,1280,l),
(811,1260,l),
(873,1198,l),
(952,453,l),
(838,453,l)
);
},
{
closed = 1;
nodes = (
(674,1174,l),
(576,1174,l),
(539,1169,o),
(516,1163,o),
(479,1159,c),
(449,854,l),
(801,854,l),
(790,961,o),
(777,1051,o),
(768,1159,c)
);
},
{
closed = 1;
nodes = (
(762,1293,l),
(777,1308,o),
(789,1327,o),
(805,1354,cs),
(963,1624,ls),
(993,1675,o),
(1006,1720,o),
(1006,1757,cs),
(1006,1888,o),
(860,1958,o),
(711,1958,cs),
(598,1958,o),
(503,1929,o),
(471,1845,c),
(378,1560,o),
(367,1490,o),
(367,1463,cs),
(367,1383,o),
(426,1320,o),
(488,1293,c)
);
},
{
closed = 1;
nodes = (
(635,1450,l),
(566,1450,l),
(666,1784,l),
(787,1784,l)
);
}
);
};
layerId = "F859EBB1-02CE-49D6-A9DD-2E3CD13E297E";
shapes = (
{
ref = A;
},
{
pos = (396,1200);
ref = acutecomb;
}
);
width = 1184;
}
);
unicode = 193;
},
{
color = 10;
glyphname = Abreve;
lastChange = "2023-04-20 14:02:32 +0000";
layers = (
{
background = {
shapes = (
{
closed = 1;
nodes = (
(438,1370,ls),
(168,1370,o),
(-4,1198,o),
(-4,989,cs),
(-4,381,ls),
(-4,172,o),
(168,0,o),
(438,0,cs),
(746,0,ls),
(1016,0,o),
(1188,172,o),
(1188,381,cs),
(1188,989,ls),
(1188,1198,o),
(1016,1370,o),
(746,1370,cs)
);
},
{
closed = 1;
nodes = (
(819,666,l),
(809,758,l),
(440,758,l),
(430,666,l),
(414,453,l),
(295,453,l),
(377,1198,l),
(438,1260,l),
(571,1280,l),
(678,1280,l),
(811,1260,l),
(873,1198,l),
(952,453,l),
(838,453,l)
);
},
{
closed = 1;
nodes = (
(674,1174,l),
(576,1174,l),
(539,1169,o),
(516,1163,o),
(479,1159,c),
(449,854,l),
(801,854,l),
(790,961,o),
(777,1051,o),
(768,1159,c)
);
},
{
closed = 1;
nodes = (
(891,1311,l),
(1003,1379,o),
(1065,1469,o),
(1065,1590,cs),
(1065,1763,o),
(893,1909,o),
(622,1909,cs),
(352,1909,o),
(180,1763,o),
(180,1590,cs),
(180,1469,o),
(241,1379,o),
(354,1311,c)
);
},
{
closed = 1;
nodes = (
(440,1610,l),
(530,1610,l),
(540,1540,l),
(596,1530,l),
(649,1530,l),
(708,1544,l),
(719,1610,l),
(809,1610,l),
(796,1512,l),
(737,1452,l),
(659,1440,l),
(588,1440,l),
(510,1452,l),
(452,1510,l)
);
}
);
};
layerId = "F859EBB1-02CE-49D6-A9DD-2E3CD13E297E";
shapes = (
{
ref = A;
},
{
pos = (200,1200);
ref = brevecomb;
}
);
width = 1184;
}
);
unicode = 258;
},
{
color = 10;
glyphname = Acaron;
lastChange = "2023-04-20 14:02:32 +0000";
layers = (
{
background = {
shapes = (
{
closed = 1;
nodes = (
(438,1370,ls),
(168,1370,o),
(-4,1198,o),
(-4,989,cs),
(-4,381,ls),
(-4,172,o),
(168,0,o),
(438,0,cs),
(746,0,ls),
(1016,0,o),
(1188,172,o),
(1188,381,cs),
(1188,989,ls),
(1188,1198,o),
(1016,1370,o),
(746,1370,cs)
);
},
{
closed = 1;
nodes = (
(819,666,l),
(809,758,l),
(440,758,l),
(430,666,l),
(414,453,l),
(295,453,l),
(377,1198,l),
(438,1260,l),
(571,1280,l),
(678,1280,l),
(811,1260,l),
(873,1198,l),
(952,453,l),
(838,453,l)
);
},
{
closed = 1;
nodes = (
(674,1174,l),
(576,1174,l),
(539,1169,o),
(516,1163,o),
(479,1159,c),
(449,854,l),
(801,854,l),
(790,961,o),
(777,1051,o),
(768,1159,c)
);
},
{
closed = 1;
nodes = (
(594,1917,o),
(558,1940,o),
(491,1940,cs),
(319,1940,o),
(258,1848,o),
(258,1753,cs),
(258,1657,o),
(320,1468,o),
(377,1311,c),
(879,1311,l),
(927,1427,o),
(995,1635,o),
(995,1743,cs),
(995,1851,o),
(936,1942,o),
(788,1942,cs),
(716,1942,o),
(670,1919,o),
(629,1882,c)
);
},
{
closed = 1;
nodes = (
(627,1471,l),
(721,1764,l),
(803,1764,l),
(672,1426,l),
(582,1426,l),
(451,1764,l),
(532,1764,l)
);
}
);
};
layerId = "F859EBB1-02CE-49D6-A9DD-2E3CD13E297E";
shapes = (
{
ref = A;
},
{
pos = (267,1240);
ref = caroncomb;
}
);
width = 1184;
}
);
unicode = 461;
},
{
color = 10;
glyphname = Acircumflex;
lastChange = "2023-04-20 14:02:32 +0000";
layers = (
{
background = {
shapes = (
{
closed = 1;
nodes = (
(438,1370,ls),
(168,1370,o),
(-4,1198,o),
(-4,989,cs),
(-4,381,ls),
(-4,172,o),
(168,0,o),
(438,0,cs),
(746,0,ls),
(1016,0,o),
(1188,172,o),
(1188,381,cs),
(1188,989,ls),
(1188,1198,o),
(1016,1370,o),
(746,1370,cs)
);
},
{
closed = 1;
nodes = (
(819,666,l),
(809,758,l),
(440,758,l),
(430,666,l),
(414,453,l),
(295,453,l),
(377,1198,l),
(438,1260,l),
(571,1280,l),
(678,1280,l),
(811,1260,l),
(873,1198,l),
(952,453,l),
(838,453,l)
);
},
{
closed = 1;
nodes = (
(674,1174,l),
(576,1174,l),
(539,1169,o),
(516,1163,o),
(479,1159,c),
(449,854,l),
(801,854,l),
(790,961,o),
(777,1051,o),
(768,1159,c)
);
},
{
closed = 1;
nodes = (
(918,1311,l),
(964,1347,o),
(987,1399,o),
(987,1467,cs),
(987,1519,o),
(949,1617,o),
(914,1706,cs),
(893,1757,o),
(869,1811,o),
(842,1868,cs),
(794,1967,o),
(735,2001,o),
(623,2001,cs),
(511,2001,o),
(449,1967,o),
(410,1899,c),
(338,1744,o),
(250,1553,o),
(250,1456,cs),
(250,1400,o),
(270,1346,o),
(311,1311,c)
);
},
{
closed = 1;
nodes = (
(524,1467,l),
(443,1467,l),
(574,1805,l),
(664,1805,l),
(795,1467,l),
(713,1467,l),
(619,1759,l)
);
}
);
};
layerId = "F859EBB1-02CE-49D6-A9DD-2E3CD13E297E";
shapes = (
{
ref = A;
},
{
pos = (257,1200);
ref = circumflexcomb;
}
);
width = 1184;
}
);
unicode = 194;
},
{
color = 10;
glyphname = Adblgrave;
lastChange = "2023-04-20 14:02:32 +0000";
layers = (
{
background = {
shapes = (
{
closed = 1;
nodes = (
(438,1370,ls),
(168,1370,o),
(-4,1198,o),
(-4,989,cs),
(-4,381,ls),
(-4,172,o),
(168,0,o),
(438,0,cs),
(746,0,ls),
(1016,0,o),
(1188,172,o),
(1188,381,cs),
(1188,989,ls),
(1188,1198,o),
(1016,1370,o),
(746,1370,cs)
);
},
{
closed = 1;
nodes = (
(819,666,l),
(809,758,l),
(440,758,l),
(430,666,l),
(414,453,l),
(295,453,l),
(377,1198,l),
(438,1260,l),
(571,1280,l),
(678,1280,l),
(811,1260,l),
(873,1198,l),
(952,453,l),
(838,453,l)
);
},
{
closed = 1;
nodes = (
(674,1174,l),
(576,1174,l),
(539,1169,o),
(516,1163,o),
(479,1159,c),
(449,854,l),
(801,854,l),
(790,961,o),
(777,1051,o),
(768,1159,c)
);
},
{
closed = 1;
nodes = (
(907,1296,l),
(940,1331,o),
(954,1374,o),
(954,1431,cs),
(954,1450,o),
(952,1472,o),
(948,1495,c),
(768,1828,ls),
(714,1927,o),
(677,1951,o),
(565,1962,c),
(473,1962,l),
(457,1929,l),
(426,1948,o),
(390,1955,o),
(334,1962,c),
(242,1962,l),
(86,1671,l),
(338,1296,l)
);
},
{
closed = 1;
nodes = (
(489,1765,l),
(582,1765,l),
(762,1431,l),
(711,1431,l)
);
},
{
closed = 1;
nodes = (
(258,1765,l),
(350,1765,l),
(530,1431,l),
(479,1431,l)
);
}
);
};
layerId = "F859EBB1-02CE-49D6-A9DD-2E3CD13E297E";
shapes = (
{
ref = A;
},
{
pos = (92,1200);
ref = dblgravecomb;
}
);
width = 1184;
}
);
unicode = 512;
},
{
color = 10;
glyphname = Adieresis;
lastChange = "2023-04-20 14:02:32 +0000";
layers = (
{
background = {
shapes = (
{
closed = 1;
nodes = (
(438,1370,ls),
(168,1370,o),
(-4,1198,o),
(-4,989,cs),
(-4,381,ls),
(-4,172,o),
(168,0,o),
(438,0,cs),
(746,0,ls),
(1016,0,o),
(1188,172,o),
(1188,381,cs),
(1188,989,ls),
(1188,1198,o),
(1016,1370,o),
(746,1370,cs)
);
},
{
closed = 1;
nodes = (
(819,666,l),
(809,758,l),
(440,758,l),
(430,666,l),
(414,453,l),
(295,453,l),
(377,1198,l),
(438,1260,l),
(571,1280,l),
(678,1280,l),
(811,1260,l),
(873,1198,l),
(952,453,l),
(838,453,l)
);
},
{
closed = 1;
nodes = (
(674,1174,l),
(576,1174,l),
(539,1169,o),
(516,1163,o),
(479,1159,c),
(449,854,l),
(801,854,l),
(790,961,o),
(777,1051,o),
(768,1159,c)
);
},
{
closed = 1;
nodes = (
(680,1479,l),
(680,1608,l),
(811,1608,l),
(811,1479,l)
);
},
{
closed = 1;
nodes = (
(889,1313,l),
(977,1370,o),
(1024,1458,o),
(1024,1563,cs),
(1024,1723,o),
(868,1862,o),
(622,1862,cs),
(377,1862,o),
(221,1723,o),
(221,1563,cs),
(221,1459,o),
(266,1370,o),
(354,1313,c)
);
},
{
closed = 1;
nodes = (
(418,1479,l),
(418,1608,l),
(549,1608,l),
(549,1479,l)
);
}
);
};
layerId = "F859EBB1-02CE-49D6-A9DD-2E3CD13E297E";
shapes = (
{
ref = A;
},
{
pos = (224,1220);
ref = dieresiscomb;
}
);
width = 1184;
}
);
unicode = 196;
},
{
color = 10;
glyphname = Agrave;
lastChange = "2023-04-20 14:02:32 +0000";
layers = (
{
background = {
shapes = (
{
closed = 1;
nodes = (
(438,1370,ls),
(168,1370,o),
(-4,1198,o),
(-4,989,cs),
(-4,381,ls),
(-4,172,o),
(168,0,o),
(438,0,cs),
(746,0,ls),
(1016,0,o),
(1188,172,o),
(1188,381,cs),
(1188,989,ls),
(1188,1198,o),
(1016,1370,o),
(746,1370,cs)
);
},
{
closed = 1;
nodes = (
(819,666,l),
(809,758,l),
(440,758,l),
(430,666,l),
(414,453,l),
(295,453,l),
(377,1198,l),
(438,1260,l),
(571,1280,l),
(678,1280,l),
(811,1260,l),
(873,1198,l),
(952,453,l),
(838,453,l)
);
},
{
closed = 1;
nodes = (
(674,1174,l),
(576,1174,l),
(539,1169,o),
(516,1163,o),
(479,1159,c),
(449,854,l),
(801,854,l),
(790,961,o),
(777,1051,o),
(768,1159,c)
);
},
{
closed = 1;
nodes = (
(707,1293,l),
(769,1320,o),
(828,1383,o),
(828,1463,cs),
(828,1490,o),
(814,1560,o),
(724,1845,c),
(692,1929,o),
(597,1958,o),
(484,1958,cs),
(334,1958,o),
(189,1888,o),
(189,1757,c),
(188,1719,o),
(202,1675,o),
(232,1624,cs),
(390,1354,ls),
(406,1327,o),
(418,1308,o),
(433,1293,c)
);
},
{
closed = 1;
nodes = (
(408,1784,l),
(529,1784,l),
(629,1450,l),
(560,1450,l)
);
}
);
};
layerId = "F859EBB1-02CE-49D6-A9DD-2E3CD13E297E";
shapes = (
{
ref = A;
},
{
pos = (211,1200);
ref = gravecomb;
}
);
width = 1184;
}
);
unicode = 192;
},
{
color = 10;
glyphname = Ainvertedbreve;
lastChange = "2023-04-20 14:02:32 +0000";
layers = (
{
background = {
shapes = (
{
closed = 1;
nodes = (
(1067,1752,o),
(895,1898,o),
(624,1898,cs),
(354,1898,o),
(182,1752,o),
(182,1579,cs),
(182,1485,o),
(218,1410,o),
(287,1350,c),
(105,1299,o),
(-4,1155,o),
(-4,989,cs),
(-4,381,ls),
(-4,172,o),
(168,0,o),
(438,0,cs),
(746,0,ls),
(1016,0,o),
(1188,172,o),
(1188,381,cs),
(1188,989,ls),
(1188,1141,o),
(1097,1273,o),
(943,1334,c),
(1023,1397,o),
(1067,1477,o),
(1067,1579,cs)
);
},
{
closed = 1;
nodes = (
(819,666,l),
(809,758,l),
(440,758,l),
(430,666,l),
(414,453,l),
(295,453,l),
(377,1198,l),
(438,1260,l),
(571,1280,l),
(678,1280,l),
(811,1260,l),
(873,1198,l),
(952,453,l),
(838,453,l)
);
},
{
closed = 1;
nodes = (
(674,1174,l),
(576,1174,l),
(539,1169,o),
(516,1163,o),
(479,1159,c),
(449,854,l),
(801,854,l),
(790,961,o),
(777,1051,o),
(768,1159,c)
);
},
{
closed = 1;
nodes = (
(454,1554,l),
(512,1611,l),
(590,1624,l),
(661,1624,l),
(739,1611,l),
(798,1552,l),
(811,1454,l),
(721,1454,l),
(710,1519,l),
(651,1533,l),
(598,1533,l),
(542,1523,l),
(532,1454,l),
(442,1454,l)
);
}
);
};
layerId = "F859EBB1-02CE-49D6-A9DD-2E3CD13E297E";
shapes = (
{
ref = A;
},
{
pos = (183,1200);
ref = breveinvertedcomb;
}
);
width = 1184;
}
);
unicode = 514;
},
{
color = 10;
glyphname = Amacron;
lastChange = "2023-04-20 14:02:32 +0000";
layers = (
{
background = {
shapes = (
{
closed = 1;
nodes = (
(438,1370,ls),
(168,1370,o),
(-4,1198,o),
(-4,989,cs),
(-4,381,ls),
(-4,172,o),
(168,0,o),
(438,0,cs),
(746,0,ls),
(1016,0,o),
(1188,172,o),
(1188,381,cs),
(1188,989,ls),
(1188,1198,o),
(1016,1370,o),
(746,1370,cs)
);
},
{
closed = 1;
nodes = (
(819,666,l),
(809,758,l),
(440,758,l),
(430,666,l),
(414,453,l),
(295,453,l),
(377,1198,l),
(438,1260,l),
(571,1280,l),
(678,1280,l),
(811,1260,l),
(873,1198,l),
(952,453,l),
(838,453,l)
);
},
{
closed = 1;
nodes = (
(674,1174,l),
(576,1174,l),
(539,1169,o),
(516,1163,o),
(479,1159,c),
(449,854,l),
(801,854,l),
(790,961,o),
(777,1051,o),
(768,1159,c)
);
}
);
};
layerId = "F859EBB1-02CE-49D6-A9DD-2E3CD13E297E";
shapes = (
{
ref = A;
},
{
pos = (202,1200);
ref = macroncomb;
}
);
width = 1184;
}
);
unicode = 256;
},
{
color = 10;
glyphname = Aogonek;
lastChange = "2023-04-20 13:40:15 +0000";
layers = (
{
background = {
shapes = (
{
closed = 1;
nodes = (
(674,1174,l),
(576,1174,l),
(539,1169,o),
(516,1163,o),
(479,1159,c),
(449,854,l),
(801,854,l),
(790,961,o),
(777,1051,o),
(768,1159,c)
);
},
{
closed = 1;
nodes = (
(438,1370,ls),
(168,1370,o),
(-4,1198,o),
(-4,989,cs),
(-4,381,ls),
(-4,172,o),
(168,0,o),
(438,0,cs),
(746,0,ls),
(1016,0,o),
(1188,172,o),
(1188,381,cs),
(1188,989,ls),
(1188,1198,o),
(1016,1370,o),
(746,1370,cs)
);
},
{
closed = 1;
nodes = (
(836,231,l),
(946,221,l),
(946,131,l),
(803,143,l),
(744,203,l),
(731,281,l),
(744,356,l),
(801,414,l),
(873,453,l),
(838,453,l),
(819,666,l),
(809,758,l),
(440,758,l),
(430,666,l),
(414,453,l),
(295,453,l),
(377,1198,l),
(438,1260,l),
(571,1280,l),
(678,1280,l),
(811,1260,l),
(873,1198,l),
(952,453,l),
(942,453,l),
(832,326,l),
(821,291,l)
);
}
);
};
layerId = "F859EBB1-02CE-49D6-A9DD-2E3CD13E297E";
shapes = (
{
closed = 1;
nodes = (
(746,0,ls),
(1016,0,o),
(1188,172,o),
(1188,381,cs),
(1188,989,ls),
(1188,1198,o),
(1016,1370,o),
(746,1370,cs),
(438,1370,ls),
(168,1370,o),
(-4,1198,o),
(-4,989,cs),
(-4,381,ls),
(-4,172,o),
(168,0,o),
(438,0,cs)
);
},
{
closed = 1;
nodes = (
(803,143,l),
(744,203,l),
(731,281,l),
(744,356,l),
(801,414,l),
(873,453,l),
(838,453,l),
(819,666,l),
(809,758,l),
(440,758,l),
(430,666,l),
(414,453,l),
(295,453,l),
(377,1198,l),
(438,1260,l),
(571,1280,l),
(678,1280,l),
(811,1260,l),
(873,1198,l),
(952,453,l),
(942,453,l),
(832,326,l),
(821,291,l),
(836,231,l),
(946,221,l),
(946,131,l)
);
},
{
closed = 1;
nodes = (
(801,854,l),
(790,961,o),
(777,1051,o),
(768,1159,c),
(674,1174,l),
(576,1174,l),
(539,1169,o),
(516,1163,o),
(479,1159,c),
(449,854,l)
);
}
);
width = 1184;
}
);
unicode = 260;
},
{
color = 10;
glyphname = Aring;
lastChange = "2023-04-20 14:02:32 +0000";
layers = (
{
background = {
shapes = (
{
closed = 1;
nodes = (
(438,1370,ls),
(168,1370,o),
(-4,1198,o),
(-4,989,cs),
(-4,381,ls),
(-4,172,o),
(168,0,o),
(438,0,cs),
(746,0,ls),
(1016,0,o),
(1188,172,o),
(1188,381,cs),
(1188,989,ls),
(1188,1198,o),
(1016,1370,o),
(746,1370,cs)
);
},
{
closed = 1;
nodes = (
(819,666,l),
(809,758,l),
(440,758,l),
(430,666,l),
(414,453,l),
(295,453,l),
(377,1198,l),
(438,1260,l),
(571,1280,l),
(678,1280,l),
(811,1260,l),
(873,1198,l),
(952,453,l),
(838,453,l)
);
},
{
closed = 1;
nodes = (
(674,1174,l),
(576,1174,l),
(539,1169,o),
(516,1163,o),
(479,1159,c),
(449,854,l),
(801,854,l),
(790,961,o),
(777,1051,o),
(768,1159,c)
);
},
{
closed = 1;
nodes = (
(906,1311,l),
(962,1379,o),
(994,1467,o),
(994,1567,cs),
(994,1776,o),
(845,1948,o),
(613,1948,cs),
(378,1948,o),
(232,1776,o),
(232,1567,cs),
(232,1471,o),
(260,1379,o),
(320,1311,c)
);
},
{
closed = 1;
nodes = (
(646,1766,l),
(717,1751,l),
(775,1698,l),
(783,1600,l),
(775,1514,l),
(717,1458,l),
(646,1446,l),
(578,1446,l),
(504,1458,l),
(451,1512,l),
(439,1610,l),
(451,1698,l),
(504,1751,l),
(578,1766,l)
);
},
{
closed = 1;
nodes = (
(640,1686,l),
(586,1686,l),
(527,1676,l),
(517,1606,l),
(527,1536,l),
(582,1526,l),
(635,1526,l),
(695,1540,l),
(705,1606,l),
(695,1671,l)
);
}
);
};
layerId = "F859EBB1-02CE-49D6-A9DD-2E3CD13E297E";
shapes = (
{
ref = A;
},
{
pos = (239,1220);
ref = ringcomb;
}
);
width = 1184;
}
);
unicode = 197;
},
{
color = 10;
glyphname = Atilde;
lastChange = "2023-04-20 14:02:32 +0000";
layers = (
{
background = {
shapes = (
{
closed = 1;
nodes = (
(438,1370,ls),
(168,1370,o),
(-4,1198,o),
(-4,989,cs),
(-4,381,ls),
(-4,172,o),
(168,0,o),
(438,0,cs),
(746,0,ls),
(1016,0,o),
(1188,172,o),
(1188,381,cs),
(1188,989,ls),
(1188,1198,o),
(1016,1370,o),
(746,1370,cs)
);
},
{
closed = 1;
nodes = (
(819,666,l),
(809,758,l),
(440,758,l),
(430,666,l),
(414,453,l),
(295,453,l),
(377,1198,l),
(438,1260,l),
(571,1280,l),
(678,1280,l),
(811,1260,l),
(873,1198,l),
(952,453,l),
(838,453,l)
);
},
{
closed = 1;
nodes = (
(674,1174,l),
(576,1174,l),
(539,1169,o),
(516,1163,o),
(479,1159,c),
(449,854,l),
(801,854,l),
(790,961,o),
(777,1051,o),
(768,1159,c)
);
},
{
closed = 1;
nodes = (
(934,1311,l),
(1018,1383,o),
(1065,1481,o),
(1065,1590,cs),
(1065,1798,o),
(893,1970,o),
(622,1970,cs),
(352,1970,o),
(180,1798,o),
(180,1590,cs),
(180,1477,o),
(225,1383,o),
(313,1311,c)
);
},
{
closed = 1;
nodes = (
(619,1430,o),
(558,1501,o),
(518,1501,cs),
(499,1501,o),
(486,1485,o),
(475,1434,c),
(385,1434,l),
(385,1446,ls),
(385,1483,o),
(391,1583,o),
(469,1583,cs),
(608,1583,o),
(658,1518,o),
(690,1518,cs),
(709,1518,o),
(720,1534,o),
(739,1594,c),
(829,1594,l),
(829,1561,ls),
(829,1512,o),
(821,1430,o),
(745,1430,cs)
);
}
);
};
layerId = "F859EBB1-02CE-49D6-A9DD-2E3CD13E297E";
shapes = (
{
ref = A;
},
{
pos = (207,1220);
ref = tildecomb;
}
);
width = 1184;
}
);
unicode = 195;
},
{
color = 6;
glyphname = AE;
lastChange = "2023-04-20 13:24:50 +0000";
layers = (
{
anchors = (
{
name = bottom;
pos = (592,0);
},
{
name = top;
pos = (592,1370);
}
);
background = {
shapes = (
{
closed = 1;
nodes = (
(438,1370,ls),
(168,1370,o),
(-4,1198,o),
(-4,989,cs),
(-4,381,ls),
(-4,172,o),
(168,0,o),
(438,0,cs),
(746,0,ls),
(1016,0,o),
(1188,172,o),
(1188,381,cs),
(1188,989,ls),
(1188,1198,o),
(1016,1370,o),
(746,1370,cs)
);
},
{
closed = 1;
nodes = (
(944,459,l),
(576,459,l),
(576,590,l),
(371,590,l),
(354,459,l),
(248,459,l),
(330,1200,l),
(391,1262,l),
(524,1282,l),
(944,1282,l),
(944,1176,l),
(682,1176,l),
(682,924,l),
(944,924,l),
(944,819,l),
(682,819,l),
(682,563,l),
(944,563,l)
);
},
{
closed = 1;
nodes = (
(576,696,l),
(576,1176,l),
(528,1176,l),
(492,1171,o),
(469,1165,o),
(432,1161,c),
(383,696,l)
);
}
);
};
layerId = "F859EBB1-02CE-49D6-A9DD-2E3CD13E297E";
shapes = (
{
closed = 1;
nodes = (
(746,0,ls),
(1016,0,o),
(1188,172,o),
(1188,381,cs),
(1188,989,ls),
(1188,1198,o),
(1016,1370,o),
(746,1370,cs),
(438,1370,ls),
(168,1370,o),
(-4,1198,o),
(-4,989,cs),
(-4,381,ls),
(-4,172,o),
(168,0,o),
(438,0,cs)
);
},
{
closed = 1;
nodes = (
(330,1200,l),
(391,1262,l),
(524,1282,l),
(944,1282,l),
(944,1176,l),
(682,1176,l),
(682,924,l),
(944,924,l),
(944,819,l),
(682,819,l),
(682,563,l),
(944,563,l),
(944,459,l),
(576,459,l),
(576,590,l),
(371,590,l),
(354,459,l),
(248,459,l)
);
},
{
closed = 1;
nodes = (
(576,696,l),
(576,1176,l),
(528,1176,l),
(492,1171,o),
(469,1165,o),
(432,1161,c),
(383,696,l)
);
}
);
width = 1184;
}
);
unicode = 198;
},
{
color = 6;
glyphname = B;
lastChange = "2023-04-20 13:24:50 +0000";
layers = (
{
anchors = (
{
name = bottom;
pos = (592,0);
},
{
name = center;
pos = (592,685);
},
{
name = top;
pos = (592,1370);
}
);
background = {
shapes = (
{
closed = 1;
nodes = (
(438,1370,ls),
(168,1370,o),
(-4,1198,o),
(-4,989,cs),
(-4,381,ls),
(-4,172,o),
(168,0,o),
(438,0,cs),
(746,0,ls),
(1016,0,o),
(1188,172,o),
(1188,381,cs),
(1188,989,ls),
(1188,1198,o),
(1016,1370,o),
(746,1370,cs)
);
},
{
closed = 1;
nodes = (
(907,612,l),
(893,528,l),
(830,465,l),
(727,453,l),
(307,453,l),
(307,1280,l),
(727,1280,l),
(830,1266,l),
(893,1202,l),
(907,1118,l),
(907,985,l),
(888,909,l),
(808,879,l),
(888,844,l),
(907,770,l)
);
},
{
closed = 1;
nodes = (
(801,623,l),
(801,756,l),
(791,815,l),
(723,823,l),
(414,823,l),
(414,559,l),
(721,559,l),
(787,569,l)
);
},
{
closed = 1;
nodes = (
(801,993,l),
(787,1104,l),
(791,1163,l),
(721,1174,l),
(414,1174,l),
(414,928,l),
(721,928,l),
(787,940,l)
);
}
);
};
layerId = "F859EBB1-02CE-49D6-A9DD-2E3CD13E297E";
shapes = (
{
closed = 1;
nodes = (
(746,0,ls),
(1016,0,o),
(1188,172,o),
(1188,381,cs),
(1188,989,ls),
(1188,1198,o),
(1016,1370,o),
(746,1370,cs),
(438,1370,ls),
(168,1370,o),
(-4,1198,o),
(-4,989,cs),
(-4,381,ls),
(-4,172,o),
(168,0,o),
(438,0,cs)
);
},
{
closed = 1;
nodes = (
(307,1280,l),
(727,1280,l),
(830,1266,l),
(893,1202,l),
(907,1118,l),
(907,985,l),
(888,909,l),
(808,879,l),
(888,844,l),
(907,770,l),
(907,612,l),
(893,528,l),
(830,465,l),
(727,453,l),
(307,453,l)
);
},
{
closed = 1;
nodes = (
(721,559,l),
(787,569,l),
(801,623,l),
(801,756,l),
(791,815,l),
(723,823,l),
(414,823,l),
(414,559,l)
);
},
{
closed = 1;
nodes = (
(721,928,l),
(787,940,l),
(801,993,l),
(787,1104,l),
(791,1163,l),
(721,1174,l),
(414,1174,l),
(414,928,l)
);
}
);
width = 1184;
}
);
unicode = 66;
},
{
color = 10;
glyphname = C;
lastChange = "2023-04-20 13:29:55 +0000";
layers = (
{
background = {
shapes = (
{
closed = 1;
nodes = (
(850,1266,l),
(830,1159,l),
(727,1176,l),
(498,1176,l),
(428,1165,l),
(418,1110,l),
(418,629,l),
(432,569,l),
(498,559,l),
(731,559,l),
(825,575,l),
(850,467,l),
(733,453,l),
(492,453,l),
(391,465,l),
(326,528,l),
(311,612,l),
(311,1120,l),
(326,1204,l),
(389,1268,l),
(492,1280,l),
(733,1280,l)
);
},
{
closed = 1;
nodes = (
(438,1370,ls),
(168,1370,o),
(-4,1198,o),
(-4,989,cs),
(-4,381,ls),
(-4,172,o),
(168,0,o),
(438,0,cs),
(746,0,ls),
(1016,0,o),
(1188,172,o),
(1188,381,cs),
(1188,989,ls),
(1188,1198,o),
(1016,1370,o),
(746,1370,cs)
);
}
);
};
layerId = "F859EBB1-02CE-49D6-A9DD-2E3CD13E297E";
shapes = (
{
alignment = -1;
ref = c;
}
);
width = 1184;
}
);
unicode = 67;
},
{
color = 10;
glyphname = Cacute;
lastChange = "2023-04-20 14:02:32 +0000";
layers = (
{
background = {
shapes = (
{
closed = 1;
nodes = (
(850,1266,l),
(830,1159,l),
(727,1176,l),
(498,1176,l),
(428,1165,l),
(418,1110,l),
(418,629,l),
(432,569,l),
(498,559,l),
(731,559,l),
(825,575,l),
(850,467,l),
(733,453,l),
(492,453,l),
(391,465,l),
(326,528,l),
(311,612,l),
(311,1120,l),
(326,1204,l),
(389,1268,l),
(492,1280,l),
(733,1280,l)
);
},
{
closed = 1;
nodes = (
(438,1370,ls),
(168,1370,o),
(-4,1198,o),
(-4,989,cs),
(-4,381,ls),
(-4,172,o),
(168,0,o),
(438,0,cs),
(746,0,ls),
(1016,0,o),
(1188,172,o),
(1188,381,cs),
(1188,989,ls),
(1188,1198,o),
(1016,1370,o),
(746,1370,cs)
);
},
{
closed = 1;
nodes = (
(790,1293,l),
(805,1308,o),
(817,1327,o),
(833,1354,cs),
(991,1624,ls),
(1021,1675,o),
(1034,1720,o),
(1034,1757,cs),
(1034,1888,o),
(888,1958,o),
(739,1958,cs),
(626,1958,o),
(531,1929,o),
(499,1845,c),
(406,1560,o),
(395,1490,o),
(395,1463,cs),
(395,1383,o),
(454,1320,o),
(516,1293,c)
);
},
{
closed = 1;
nodes = (
(663,1450,l),
(594,1450,l),
(694,1784,l),
(815,1784,l)
);
}
);
};
layerId = "F859EBB1-02CE-49D6-A9DD-2E3CD13E297E";
shapes = (
{
ref = C;
},
{
pos = (396,1200);
ref = acutecomb;
}
);
width = 1184;
}
);
unicode = 262;
},
{
color = 10;
glyphname = Ccaron;
lastChange = "2023-04-20 14:02:32 +0000";
layers = (
{
background = {
shapes = (
{
closed = 1;
nodes = (
(850,1266,l),
(830,1159,l),
(727,1176,l),
(498,1176,l),
(428,1165,l),
(418,1110,l),
(418,629,l),
(432,569,l),
(498,559,l),
(731,559,l),
(825,575,l),
(850,467,l),
(733,453,l),
(492,453,l),
(391,465,l),
(326,528,l),
(311,612,l),
(311,1120,l),
(326,1204,l),
(389,1268,l),
(492,1280,l),
(733,1280,l)
);
},
{
closed = 1;
nodes = (
(438,1370,ls),
(168,1370,o),
(-4,1198,o),
(-4,989,cs),
(-4,381,ls),
(-4,172,o),
(168,0,o),
(438,0,cs),
(746,0,ls),
(1016,0,o),
(1188,172,o),
(1188,381,cs),
(1188,989,ls),
(1188,1198,o),
(1016,1370,o),
(746,1370,cs)
);
},
{
closed = 1;
nodes = (
(547,1917,o),
(511,1940,o),
(444,1940,cs),
(272,1940,o),
(211,1848,o),
(211,1753,cs),
(211,1657,o),
(273,1468,o),
(330,1311,c),
(832,1311,l),
(880,1427,o),
(948,1635,o),
(948,1743,cs),
(948,1851,o),
(889,1942,o),
(741,1942,cs),
(669,1942,o),
(623,1919,o),
(582,1882,c)
);
},
{
closed = 1;
nodes = (
(580,1471,l),
(674,1764,l),
(756,1764,l),
(625,1426,l),
(535,1426,l),
(404,1764,l),
(485,1764,l)
);
}
);
};
layerId = "F859EBB1-02CE-49D6-A9DD-2E3CD13E297E";
shapes = (
{
ref = C;
},
{
pos = (267,1240);
ref = caroncomb;
}
);
width = 1184;
}
);
unicode = 268;
},
{
color = 10;
glyphname = Ccedilla;
lastChange = "2023-04-20 13:35:11 +0000";
layers = (
{
anchors = (
{
name = bottom;
pos = (552,134);
},
{
name = top;
pos = (592,1370);
}
);
background = {
shapes = (
{
closed = 1;
nodes = (
(438,1370,ls),
(168,1370,o),
(-4,1198,o),
(-4,989,cs),
(-4,381,ls),
(-4,172,o),
(168,0,o),
(438,0,cs),
(746,0,ls),
(1016,0,o),
(1188,172,o),
(1188,381,cs),
(1188,989,ls),
(1188,1198,o),
(1016,1370,o),
(746,1370,cs)
);
},
{
closed = 1;
nodes = (
(850,1266,l),
(830,1159,l),
(727,1176,l),
(498,1176,l),
(428,1165,l),
(418,1110,l),
(418,629,l),
(432,569,l),
(498,559,l),
(731,559,l),
(825,575,l),
(850,467,l),
(733,453,l),
(662,453,l),
(662,336,l),
(551,326,l),
(541,291,l),
(555,232,l),
(666,222,l),
(666,132,l),
(523,144,l),
(463,203,l),
(451,281,l),
(451,300,l),
(463,357,l),
(521,418,l),
(592,418,l),
(592,453,l),
(492,453,l),
(391,465,l),
(326,528,l),
(311,612,l),
(311,1120,l),
(326,1204,l),
(389,1268,l),
(492,1280,l),
(733,1280,l)
);
}
);
};
layerId = "F859EBB1-02CE-49D6-A9DD-2E3CD13E297E";
shapes = (
{
closed = 1;
nodes = (
(746,0,ls),
(1016,0,o),
(1188,172,o),
(1188,381,cs),
(1188,989,ls),
(1188,1198,o),
(1016,1370,o),
(746,1370,cs),
(438,1370,ls),
(168,1370,o),
(-4,1198,o),
(-4,989,cs),
(-4,381,ls),
(-4,172,o),
(168,0,o),
(438,0,cs)
);
},
{
closed = 1;
nodes = (
(522,144,l),
(462,203,l),
(450,281,l),
(450,300,l),
(462,357,l),
(520,414,l),
(591,414,l),
(591,453,l),
(492,453,l),
(391,465,l),
(326,528,l),
(311,612,l),
(311,1120,l),
(326,1204,l),
(389,1268,l),
(492,1280,l),
(733,1280,l),
(850,1266,l),
(830,1159,l),
(727,1176,l),
(498,1176,l),
(428,1165,l),
(418,1110,l),
(418,629,l),
(432,569,l),
(498,559,l),
(731,559,l),
(825,575,l),
(850,467,l),
(733,453,l),
(661,453,l),
(661,336,l),
(550,326,l),
(540,291,l),
(554,232,l),
(665,222,l),
(665,132,l)
);
}
);
width = 1184;
}
);
unicode = 199;
},
{
color = 10;
glyphname = Ccircumflex;
lastChange = "2023-04-20 14:02:32 +0000";
layers = (
{
background = {
shapes = (
{
closed = 1;
nodes = (
(850,1266,l),
(830,1159,l),
(727,1176,l),
(498,1176,l),
(428,1165,l),
(418,1110,l),
(418,629,l),
(432,569,l),
(498,559,l),
(731,559,l),
(825,575,l),
(850,467,l),
(733,453,l),
(492,453,l),
(391,465,l),
(326,528,l),
(311,612,l),
(311,1120,l),
(326,1204,l),
(389,1268,l),
(492,1280,l),
(733,1280,l)
);
},
{
closed = 1;
nodes = (
(438,1370,ls),
(168,1370,o),
(-4,1198,o),
(-4,989,cs),
(-4,381,ls),
(-4,172,o),
(168,0,o),
(438,0,cs),
(746,0,ls),
(1016,0,o),
(1188,172,o),
(1188,381,cs),
(1188,989,ls),
(1188,1198,o),
(1016,1370,o),
(746,1370,cs)
);
},
{
closed = 1;
nodes = (
(922,1311,l),
(968,1347,o),
(991,1399,o),
(991,1467,cs),
(991,1519,o),
(953,1617,o),
(918,1706,cs),
(897,1757,o),
(873,1811,o),
(846,1868,cs),
(798,1967,o),
(739,2001,o),
(627,2001,cs),
(515,2001,o),
(453,1967,o),
(414,1899,c),
(342,1744,o),
(254,1553,o),
(254,1456,cs),
(254,1400,o),
(274,1346,o),
(315,1311,c)
);
},
{
closed = 1;
nodes = (
(528,1467,l),
(447,1467,l),
(578,1805,l),
(668,1805,l),
(799,1467,l),
(717,1467,l),
(623,1759,l)
);
}
);
};
layerId = "F859EBB1-02CE-49D6-A9DD-2E3CD13E297E";
shapes = (
{
ref = C;
},
{
pos = (257,1200);
ref = circumflexcomb;
}
);
width = 1184;
}
);
unicode = 264;
},
{
color = 10;
glyphname = Cdotaccent;
lastChange = "2023-04-20 14:02:32 +0000";
layers = (
{
background = {
shapes = (
{
closed = 1;
nodes = (
(850,1266,l),
(830,1159,l),
(727,1176,l),
(498,1176,l),
(428,1165,l),
(418,1110,l),
(418,629,l),
(432,569,l),
(498,559,l),
(731,559,l),
(825,575,l),
(850,467,l),
(733,453,l),
(492,453,l),
(391,465,l),
(326,528,l),
(311,612,l),
(311,1120,l),
(326,1204,l),
(389,1268,l),
(492,1280,l),
(733,1280,l)
);
},
{
closed = 1;
nodes = (
(438,1370,ls),
(168,1370,o),
(-4,1198,o),
(-4,989,cs),
(-4,381,ls),
(-4,172,o),
(168,0,o),
(438,0,cs),
(746,0,ls),
(1016,0,o),
(1188,172,o),
(1188,381,cs),
(1188,989,ls),
(1188,1198,o),
(1016,1370,o),
(746,1370,cs)
);
},
{
closed = 1;
nodes = (
(506,1462,l),
(506,1591,l),
(637,1591,l),
(637,1462,l)
);
},
{
closed = 1;
nodes = (
(924,1290,l),
(985,1362,o),
(1018,1447,o),
(1018,1551,cs),
(1018,1724,o),
(846,1870,o),
(575,1870,cs),
(305,1870,o),
(133,1724,o),
(133,1551,cs),
(133,1464,o),
(167,1349,o),
(229,1290,c)
);
}
);
};
layerId = "F859EBB1-02CE-49D6-A9DD-2E3CD13E297E";
shapes = (
{
ref = C;
},
{
pos = (194,1200);
ref = dotaccentcomb;
}
);
width = 1184;
}
);
unicode = 266;
},
{
color = 6;
glyphname = D;
lastChange = "2023-04-20 13:24:50 +0000";
layers = (
{
anchors = (
{
name = bottom;
pos = (592,0);
},
{
name = center;
pos = (592,685);
},
{
name = top;
pos = (592,1370);
}
);
background = {
shapes = (
{
closed = 1;
nodes = (
(438,1370,ls),
(168,1370,o),
(-4,1198,o),
(-4,989,cs),
(-4,381,ls),
(-4,172,o),
(168,0,o),
(438,0,cs),
(746,0,ls),
(1016,0,o),
(1188,172,o),
(1188,381,cs),
(1188,989,ls),
(1188,1198,o),
(1016,1370,o),
(746,1370,cs)
);
},
{
closed = 1;
nodes = (
(954,614,l),
(940,528,l),
(877,465,l),
(774,453,l),
(328,453,l),
(328,1280,l),
(774,1280,l),
(877,1266,l),
(940,1202,l),
(954,1118,l)
);
},
{
closed = 1;
nodes = (
(848,625,l),
(848,1104,l),
(838,1163,l),
(768,1174,l),
(432,1174,l),
(432,559,l),
(768,559,l),
(834,569,l)
);
}
);
};
layerId = "F859EBB1-02CE-49D6-A9DD-2E3CD13E297E";
shapes = (
{
closed = 1;
nodes = (
(746,0,ls),
(1016,0,o),
(1188,172,o),
(1188,381,cs),
(1188,989,ls),
(1188,1198,o),
(1016,1370,o),
(746,1370,cs),
(438,1370,ls),
(168,1370,o),
(-4,1198,o),
(-4,989,cs),
(-4,381,ls),
(-4,172,o),
(168,0,o),
(438,0,cs)
);
},
{
closed = 1;
nodes = (
(328,1280,l),
(774,1280,l),
(877,1266,l),
(940,1202,l),
(954,1118,l),
(954,614,l),
(940,528,l),
(877,465,l),
(774,453,l),
(328,453,l)
);
},
{
closed = 1;
nodes = (
(768,559,l),
(834,569,l),
(848,625,l),
(848,1104,l),
(838,1163,l),
(768,1174,l),
(432,1174,l),
(432,559,l)
);
}
);
width = 1184;
}
);
unicode = 68;
},
{
color = 10;
glyphname = Dcaron;
lastChange = "2023-04-20 14:02:32 +0000";
layers = (
{
background = {
shapes = (
{
closed = 1;
nodes = (
(438,1370,ls),
(168,1370,o),
(-4,1198,o),
(-4,989,cs),
(-4,381,ls),
(-4,172,o),
(168,0,o),
(438,0,cs),
(746,0,ls),
(1016,0,o),
(1188,172,o),
(1188,381,cs),
(1188,989,ls),
(1188,1198,o),
(1016,1370,o),
(746,1370,cs)
);
},
{
closed = 1;
nodes = (
(954,614,l),
(940,528,l),
(877,465,l),
(774,453,l),
(328,453,l),
(328,1280,l),
(774,1280,l),
(877,1266,l),
(940,1202,l),
(954,1118,l)
);
},
{
closed = 1;
nodes = (
(848,625,l),
(848,1104,l),
(838,1163,l),
(768,1174,l),
(432,1174,l),
(432,559,l),
(768,559,l),
(834,569,l)
);
},
{
closed = 1;
nodes = (
(559,1943,o),
(523,1966,o),
(456,1966,cs),
(284,1966,o),
(223,1874,o),
(223,1779,cs),
(223,1683,o),
(285,1494,o),
(342,1337,c),
(844,1337,l),
(892,1453,o),
(960,1661,o),
(960,1769,cs),
(960,1877,o),
(901,1968,o),
(753,1968,cs),
(681,1968,o),
(635,1945,o),
(594,1908,c)
);
},
{
closed = 1;
nodes = (
(592,1497,l),
(686,1790,l),
(768,1790,l),
(637,1452,l),
(547,1452,l),
(416,1790,l),
(497,1790,l)
);
}
);
};
layerId = "F859EBB1-02CE-49D6-A9DD-2E3CD13E297E";
shapes = (
{
ref = D;
},
{
pos = (267,1240);
ref = caroncomb;
}
);
width = 1184;
}
);
unicode = 270;
},
{
color = 10;
glyphname = Dcroat;
lastChange = "2023-04-20 12:43:19 +0000";
layers = (
{
background = {
shapes = (
{
closed = 1;
nodes = (
(954,614,l),
(940,528,l),
(877,465,l),
(774,453,l),
(328,453,l),
(328,846,l),
(203,846,l),
(203,954,l),
(328,954,l),
(328,1280,l),
(774,1280,l),
(877,1266,l),
(940,1202,l),
(954,1118,l)
);
},
{
closed = 1;
nodes = (
(848,625,l),
(848,1104,l),
(838,1163,l),
(768,1174,l),
(432,1174,l),
(432,954,l),
(580,954,l),
(580,846,l),
(432,846,l),
(432,559,l),
(768,559,l),
(834,569,l)
);
},
{
closed = 1;
nodes = (
(438,1370,ls),
(168,1370,o),
(-4,1198,o),
(-4,989,cs),
(-4,381,ls),
(-4,172,o),
(168,0,o),
(438,0,cs),
(746,0,ls),
(1016,0,o),
(1188,172,o),
(1188,381,cs),
(1188,989,ls),
(1188,1198,o),
(1016,1370,o),
(746,1370,cs)
);
}
);
};
layerId = "F859EBB1-02CE-49D6-A9DD-2E3CD13E297E";
shapes = (
{
ref = Eth;
}
);
width = 1184;
}
);
unicode = 272;
},
{
color = 6;
glyphname = Eth;
lastChange = "2023-04-20 13:24:50 +0000";
layers = (
{
background = {
shapes = (
{
closed = 1;
nodes = (
(954,614,l),
(940,528,l),
(877,465,l),
(774,453,l),
(328,453,l),
(328,842,l),
(256,842,l),
(256,907,l),
(328,907,l),
(328,1280,l),
(774,1280,l),
(877,1266,l),
(940,1202,l),
(954,1118,l)
);
},
{
closed = 1;
nodes = (
(848,625,l),
(848,1104,l),
(838,1163,l),
(768,1174,l),
(432,1174,l),
(432,907,l),
(516,907,l),
(516,842,l),
(432,842,l),
(432,559,l),
(768,559,l),
(834,569,l)
);
},
{
closed = 1;
nodes = (
(438,1370,ls),
(168,1370,o),
(-4,1198,o),
(-4,989,cs),
(-4,381,ls),
(-4,172,o),
(168,0,o),
(438,0,cs),
(746,0,ls),
(1016,0,o),
(1188,172,o),
(1188,381,cs),
(1188,989,ls),
(1188,1198,o),
(1016,1370,o),
(746,1370,cs)
);
}
);
};
layerId = "F859EBB1-02CE-49D6-A9DD-2E3CD13E297E";
shapes = (
{
closed = 1;
nodes = (
(746,0,ls),
(1016,0,o),
(1188,172,o),
(1188,381,cs),
(1188,989,ls),
(1188,1198,o),
(1016,1370,o),
(746,1370,cs),
(438,1370,ls),
(168,1370,o),
(-4,1198,o),
(-4,989,cs),
(-4,381,ls),
(-4,172,o),
(168,0,o),
(438,0,cs)
);
},
{
closed = 1;
nodes = (
(328,842,l),
(256,842,l),
(256,907,l),
(328,907,l),
(328,1280,l),
(774,1280,l),
(877,1266,l),
(940,1202,l),
(954,1118,l),
(954,614,l),
(940,528,l),
(877,465,l),
(774,453,l),
(328,453,l)
);
},
{
closed = 1;
nodes = (
(768,559,l),
(834,569,l),
(848,625,l),
(848,1104,l),
(838,1163,l),
(768,1174,l),
(432,1174,l),
(432,907,l),
(516,907,l),
(516,842,l),
(432,842,l),
(432,559,l)
);
}
);
width = 1184;
}
);
unicode = 208;
},
{
color = 6;
glyphname = E;
lastChange = "2023-04-20 13:24:50 +0000";
layers = (
{
anchors = (
{
name = bottom;
pos = (592,0);
},
{
name = ogonek;
pos = (1066,10);
},
{
name = top;
pos = (592,1370);
},
{
name = topleft;
pos = (20,1370);
}
);
background = {
shapes = (
{
closed = 1;
nodes = (
(905,453,l),
(402,453,l),
(402,1280,l),
(891,1280,l),
(891,1174,l),
(506,1174,l),
(506,918,l),
(840,918,l),
(840,813,l),
(506,813,l),
(506,559,l),
(905,559,l)
);
},
{
closed = 1;
nodes = (
(438,1370,ls),
(168,1370,o),
(-4,1198,o),
(-4,989,cs),
(-4,381,ls),
(-4,172,o),
(168,0,o),
(438,0,cs),
(746,0,ls),
(1016,0,o),
(1188,172,o),
(1188,381,cs),
(1188,989,ls),
(1188,1198,o),
(1016,1370,o),
(746,1370,cs)
);
}
);
};
layerId = "F859EBB1-02CE-49D6-A9DD-2E3CD13E297E";
shapes = (
{
closed = 1;
nodes = (
(746,0,ls),
(1016,0,o),
(1188,172,o),
(1188,381,cs),
(1188,989,ls),
(1188,1198,o),
(1016,1370,o),
(746,1370,cs),
(438,1370,ls),
(168,1370,o),
(-4,1198,o),
(-4,989,cs),
(-4,381,ls),
(-4,172,o),
(168,0,o),
(438,0,cs)
);
},
{
closed = 1;
nodes = (
(402,1280,l),
(891,1280,l),
(891,1174,l),
(506,1174,l),
(506,918,l),
(840,918,l),
(840,813,l),
(506,813,l),
(506,559,l),
(905,559,l),
(905,453,l),
(402,453,l)
);
}
);
width = 1184;
}
);
unicode = 69;
},
{
color = 10;
glyphname = Eacute;
lastChange = "2023-04-20 14:02:32 +0000";
layers = (
{
background = {
shapes = (
{
closed = 1;
nodes = (
(905,453,l),
(402,453,l),
(402,1280,l),
(891,1280,l),
(891,1174,l),
(506,1174,l),
(506,918,l),
(840,918,l),
(840,813,l),
(506,813,l),
(506,559,l),
(905,559,l)
);
},
{
closed = 1;
nodes = (
(438,1370,ls),
(168,1370,o),
(-4,1198,o),
(-4,989,cs),
(-4,381,ls),
(-4,172,o),
(168,0,o),
(438,0,cs),
(746,0,ls),
(1016,0,o),
(1188,172,o),
(1188,381,cs),
(1188,989,ls),
(1188,1198,o),
(1016,1370,o),
(746,1370,cs)
);
},
{
closed = 1;
nodes = (
(782,1293,l),
(797,1308,o),
(809,1327,o),
(825,1354,cs),
(983,1624,ls),
(1013,1675,o),
(1026,1720,o),
(1026,1757,cs),
(1026,1888,o),
(880,1958,o),
(731,1958,cs),
(618,1958,o),
(523,1929,o),
(491,1845,c),
(398,1560,o),
(387,1490,o),
(387,1463,cs),
(387,1383,o),
(446,1320,o),
(508,1293,c)
);
},
{
closed = 1;
nodes = (
(655,1450,l),
(586,1450,l),
(686,1784,l),
(807,1784,l)
);
}
);
};
layerId = "F859EBB1-02CE-49D6-A9DD-2E3CD13E297E";
shapes = (
{
ref = E;
},
{
pos = (396,1200);
ref = acutecomb;
}
);
width = 1184;
}
);
unicode = 201;
},
{
color = 10;
glyphname = Ebreve;
lastChange = "2023-04-20 14:02:32 +0000";
layers = (
{
background = {
shapes = (
{
closed = 1;
nodes = (
(905,453,l),
(402,453,l),
(402,1280,l),
(891,1280,l),
(891,1174,l),
(506,1174,l),
(506,918,l),
(840,918,l),
(840,813,l),
(506,813,l),
(506,559,l),
(905,559,l)
);
},
{
closed = 1;
nodes = (
(438,1370,ls),
(168,1370,o),
(-4,1198,o),
(-4,989,cs),
(-4,381,ls),
(-4,172,o),
(168,0,o),
(438,0,cs),
(746,0,ls),
(1016,0,o),
(1188,172,o),
(1188,381,cs),
(1188,989,ls),
(1188,1198,o),
(1016,1370,o),
(746,1370,cs)
);
},
{
closed = 1;
nodes = (
(912,1311,l),
(1024,1379,o),
(1086,1469,o),
(1086,1590,cs),
(1086,1763,o),
(914,1909,o),
(643,1909,cs),
(373,1909,o),
(201,1763,o),
(201,1590,cs),
(201,1469,o),
(262,1379,o),
(375,1311,c)
);
},
{
closed = 1;
nodes = (
(461,1610,l),
(551,1610,l),
(561,1540,l),
(617,1530,l),
(670,1530,l),
(729,1544,l),
(740,1610,l),
(830,1610,l),
(817,1512,l),
(758,1452,l),
(680,1440,l),
(609,1440,l),
(531,1452,l),
(473,1510,l)
);
}
);
};
layerId = "F859EBB1-02CE-49D6-A9DD-2E3CD13E297E";
shapes = (
{
ref = E;
},
{
pos = (200,1200);
ref = brevecomb;
}
);
width = 1184;
}
);
unicode = 276;
},
{
color = 10;
glyphname = Ecaron;
lastChange = "2023-04-20 14:02:32 +0000";
layers = (
{
background = {
shapes = (
{
closed = 1;
nodes = (
(905,453,l),
(402,453,l),
(402,1280,l),
(891,1280,l),
(891,1174,l),
(506,1174,l),
(506,918,l),
(840,918,l),
(840,813,l),
(506,813,l),
(506,559,l),
(905,559,l)
);
},
{
closed = 1;
nodes = (
(438,1370,ls),
(168,1370,o),
(-4,1198,o),
(-4,989,cs),
(-4,381,ls),
(-4,172,o),
(168,0,o),
(438,0,cs),
(746,0,ls),
(1016,0,o),
(1188,172,o),
(1188,381,cs),
(1188,989,ls),
(1188,1198,o),
(1016,1370,o),
(746,1370,cs)
);
},
{
closed = 1;
nodes = (
(615,1917,o),
(579,1940,o),
(512,1940,cs),
(340,1940,o),
(279,1848,o),
(279,1753,cs),
(279,1657,o),
(341,1468,o),
(398,1311,c),
(900,1311,l),
(948,1427,o),
(1016,1635,o),
(1016,1743,cs),
(1016,1851,o),
(957,1942,o),
(809,1942,cs),
(737,1942,o),
(691,1919,o),
(650,1882,c)
);
},
{
closed = 1;
nodes = (
(648,1471,l),
(742,1764,l),
(824,1764,l),
(693,1426,l),
(603,1426,l),
(472,1764,l),
(553,1764,l)
);
}
);
};
layerId = "F859EBB1-02CE-49D6-A9DD-2E3CD13E297E";
shapes = (
{
ref = E;
},
{
pos = (267,1240);
ref = caroncomb;
}
);
width = 1184;
}
);
unicode = 282;
},
{
color = 10;
glyphname = Ecircumflex;
lastChange = "2023-04-20 14:02:32 +0000";
layers = (
{
background = {
shapes = (
{
closed = 1;
nodes = (
(905,453,l),
(402,453,l),
(402,1280,l),
(891,1280,l),
(891,1174,l),
(506,1174,l),
(506,918,l),
(840,918,l),
(840,813,l),
(506,813,l),
(506,559,l),
(905,559,l)
);
},
{
closed = 1;
nodes = (
(438,1370,ls),
(168,1370,o),
(-4,1198,o),
(-4,989,cs),
(-4,381,ls),
(-4,172,o),
(168,0,o),
(438,0,cs),
(746,0,ls),
(1016,0,o),
(1188,172,o),
(1188,381,cs),
(1188,989,ls),
(1188,1198,o),
(1016,1370,o),
(746,1370,cs)
);
},
{
closed = 1;
nodes = (
(938,1311,l),
(984,1347,o),
(1007,1399,o),
(1007,1467,cs),
(1007,1519,o),
(969,1617,o),
(934,1706,cs),
(913,1757,o),
(889,1811,o),
(862,1868,cs),
(814,1967,o),
(755,2001,o),
(643,2001,cs),
(531,2001,o),
(469,1967,o),
(430,1899,c),
(358,1744,o),
(270,1553,o),
(270,1456,cs),
(270,1400,o),
(290,1346,o),
(331,1311,c)
);
},
{
closed = 1;
nodes = (
(544,1467,l),
(463,1467,l),
(594,1805,l),
(684,1805,l),
(815,1467,l),
(733,1467,l),
(639,1759,l)
);
}
);
};
layerId = "F859EBB1-02CE-49D6-A9DD-2E3CD13E297E";
shapes = (
{
ref = E;
},
{
pos = (257,1200);
ref = circumflexcomb;
}
);
width = 1184;
}
);
unicode = 202;
},
{
color = 10;
glyphname = Edblgrave;
lastChange = "2023-04-20 14:02:32 +0000";
layers = (
{
background = {
shapes = (
{
closed = 1;
nodes = (
(905,453,l),
(402,453,l),
(402,1280,l),
(891,1280,l),
(891,1174,l),
(506,1174,l),
(506,918,l),
(840,918,l),
(840,813,l),
(506,813,l),
(506,559,l),
(905,559,l)
);
},
{
closed = 1;
nodes = (
(438,1370,ls),
(168,1370,o),
(-4,1198,o),
(-4,989,cs),
(-4,381,ls),
(-4,172,o),
(168,0,o),
(438,0,cs),
(746,0,ls),
(1016,0,o),
(1188,172,o),
(1188,381,cs),
(1188,989,ls),
(1188,1198,o),
(1016,1370,o),
(746,1370,cs)
);
},
{
closed = 1;
nodes = (
(907,1296,l),
(940,1331,o),
(954,1374,o),
(954,1431,cs),
(954,1450,o),
(952,1472,o),
(948,1495,c),
(768,1828,ls),
(714,1927,o),
(677,1951,o),
(565,1962,c),
(473,1962,l),
(457,1929,l),
(426,1948,o),
(390,1955,o),
(334,1962,c),
(242,1962,l),
(86,1671,l),
(338,1296,l)
);
},
{
closed = 1;
nodes = (
(489,1765,l),
(582,1765,l),
(762,1431,l),
(711,1431,l)
);
},
{
closed = 1;
nodes = (
(258,1765,l),
(350,1765,l),
(530,1431,l),
(479,1431,l)
);
}
);
};
layerId = "F859EBB1-02CE-49D6-A9DD-2E3CD13E297E";
shapes = (
{
ref = E;
},
{
pos = (92,1200);
ref = dblgravecomb;
}
);
width = 1184;
}
);
unicode = 516;
},
{
color = 10;
glyphname = Edieresis;
lastChange = "2023-04-20 14:02:32 +0000";
layers = (
{
background = {
shapes = (
{
closed = 1;
nodes = (
(905,453,l),
(402,453,l),
(402,1280,l),
(891,1280,l),
(891,1174,l),
(506,1174,l),
(506,918,l),
(840,918,l),
(840,813,l),
(506,813,l),
(506,559,l),
(905,559,l)
);
},
{
closed = 1;
nodes = (
(438,1370,ls),
(168,1370,o),
(-4,1198,o),
(-4,989,cs),
(-4,381,ls),
(-4,172,o),
(168,0,o),
(438,0,cs),
(746,0,ls),
(1016,0,o),
(1188,172,o),
(1188,381,cs),
(1188,989,ls),
(1188,1198,o),
(1016,1370,o),
(746,1370,cs)
);
},
{
closed = 1;
nodes = (
(701,1479,l),
(701,1608,l),
(832,1608,l),
(832,1479,l)
);
},
{
closed = 1;
nodes = (
(910,1313,l),
(998,1370,o),
(1045,1458,o),
(1045,1563,cs),
(1045,1723,o),
(889,1862,o),
(643,1862,cs),
(398,1862,o),
(242,1723,o),
(242,1563,cs),
(242,1459,o),
(287,1370,o),
(375,1313,c)
);
},
{
closed = 1;
nodes = (
(439,1479,l),
(439,1608,l),
(570,1608,l),
(570,1479,l)
);
}
);
};
layerId = "F859EBB1-02CE-49D6-A9DD-2E3CD13E297E";
shapes = (
{
ref = E;
},
{
pos = (224,1220);
ref = dieresiscomb;
}
);
width = 1184;
}
);
unicode = 203;
},
{
color = 10;
glyphname = Edotaccent;
lastChange = "2023-04-20 14:02:32 +0000";
layers = (
{
background = {
shapes = (
{
closed = 1;
nodes = (
(905,453,l),
(402,453,l),
(402,1280,l),
(891,1280,l),
(891,1174,l),
(506,1174,l),
(506,918,l),
(840,918,l),
(840,813,l),
(506,813,l),
(506,559,l),
(905,559,l)
);
},
{
closed = 1;
nodes = (
(438,1370,ls),
(168,1370,o),
(-4,1198,o),
(-4,989,cs),
(-4,381,ls),
(-4,172,o),
(168,0,o),
(438,0,cs),
(746,0,ls),
(1016,0,o),
(1188,172,o),
(1188,381,cs),
(1188,989,ls),
(1188,1198,o),
(1016,1370,o),
(746,1370,cs)
);
},
{
closed = 1;
nodes = (
(574,1503,l),
(574,1632,l),
(705,1632,l),
(705,1503,l)
);
},
{
closed = 1;
nodes = (
(992,1331,l),
(1053,1403,o),
(1086,1488,o),
(1086,1592,cs),
(1086,1765,o),
(914,1911,o),
(643,1911,cs),
(373,1911,o),
(201,1765,o),
(201,1592,cs),
(201,1505,o),
(235,1390,o),
(297,1331,c)
);
}
);
};
layerId = "F859EBB1-02CE-49D6-A9DD-2E3CD13E297E";
shapes = (
{
ref = E;
},
{
pos = (194,1200);
ref = dotaccentcomb;
}
);
width = 1184;
}
);
unicode = 278;
},
{
color = 10;
glyphname = Egrave;
lastChange = "2023-04-20 14:02:32 +0000";
layers = (
{
background = {
shapes = (
{
closed = 1;
nodes = (
(905,453,l),
(402,453,l),
(402,1280,l),
(891,1280,l),
(891,1174,l),
(506,1174,l),
(506,918,l),
(840,918,l),
(840,813,l),
(506,813,l),
(506,559,l),
(905,559,l)
);
},
{
closed = 1;
nodes = (
(438,1370,ls),
(168,1370,o),
(-4,1198,o),
(-4,989,cs),
(-4,381,ls),
(-4,172,o),
(168,0,o),
(438,0,cs),
(746,0,ls),
(1016,0,o),
(1188,172,o),
(1188,381,cs),
(1188,989,ls),
(1188,1198,o),
(1016,1370,o),
(746,1370,cs)
);
},
{
closed = 1;
nodes = (
(727,1293,l),
(789,1320,o),
(848,1383,o),
(848,1463,cs),
(848,1490,o),
(834,1560,o),
(744,1845,c),
(712,1929,o),
(617,1958,o),
(504,1958,cs),
(354,1958,o),
(209,1888,o),
(209,1757,c),
(208,1719,o),
(222,1675,o),
(252,1624,cs),
(410,1354,ls),
(426,1327,o),
(438,1308,o),
(453,1293,c)
);
},
{
closed = 1;
nodes = (
(428,1784,l),
(549,1784,l),
(649,1450,l),
(580,1450,l)
);
}
);
};
layerId = "F859EBB1-02CE-49D6-A9DD-2E3CD13E297E";
shapes = (
{
ref = E;
},
{
pos = (211,1200);
ref = gravecomb;
}
);
width = 1184;
}
);
unicode = 200;
},
{
color = 10;
glyphname = Einvertedbreve;
lastChange = "2023-04-20 14:02:32 +0000";
layers = (
{
background = {
shapes = (
{
closed = 1;
nodes = (
(1067,1752,o),
(895,1898,o),
(624,1898,cs),
(354,1898,o),
(182,1752,o),
(182,1579,cs),
(182,1485,o),
(218,1410,o),
(287,1350,c),
(105,1299,o),
(-4,1155,o),
(-4,989,cs),
(-4,381,ls),
(-4,172,o),
(168,0,o),
(438,0,cs),
(746,0,ls),
(1016,0,o),
(1188,172,o),
(1188,381,cs),
(1188,989,ls),
(1188,1141,o),
(1097,1273,o),
(943,1334,c),
(1023,1397,o),
(1067,1477,o),
(1067,1579,cs)
);
},
{
closed = 1;
nodes = (
(905,453,l),
(442,453,l),
(442,1280,l),
(891,1280,l),
(891,1174,l),
(506,1174,l),
(506,918,l),
(840,918,l),
(840,813,l),
(506,813,l),
(506,559,l),
(905,559,l)
);
},
{
closed = 1;
nodes = (
(454,1554,l),
(512,1611,l),
(590,1624,l),
(661,1624,l),
(739,1611,l),
(798,1552,l),
(811,1454,l),
(721,1454,l),
(710,1519,l),
(651,1533,l),
(598,1533,l),
(542,1523,l),
(532,1454,l),
(442,1454,l)
);
}
);
};
layerId = "F859EBB1-02CE-49D6-A9DD-2E3CD13E297E";
shapes = (
{
ref = E;
},
{
pos = (183,1200);
ref = breveinvertedcomb;
}
);
width = 1184;
}
);
unicode = 518;
},
{
color = 10;
glyphname = Emacron;
lastChange = "2023-04-20 14:02:32 +0000";
layers = (
{
background = {
shapes = (
{
closed = 1;
nodes = (
(905,453,l),
(402,453,l),
(402,1280,l),
(891,1280,l),
(891,1174,l),
(506,1174,l),
(506,918,l),
(840,918,l),
(840,813,l),
(506,813,l),
(506,559,l),
(905,559,l)
);
},
{
closed = 1;
nodes = (
(438,1370,ls),
(168,1370,o),
(-4,1198,o),
(-4,989,cs),
(-4,381,ls),
(-4,172,o),
(168,0,o),
(438,0,cs),
(746,0,ls),
(1016,0,o),
(1188,172,o),
(1188,381,cs),
(1188,989,ls),
(1188,1198,o),
(1016,1370,o),
(746,1370,cs)
);
}
);
};
layerId = "F859EBB1-02CE-49D6-A9DD-2E3CD13E297E";
shapes = (
{
ref = E;
},
{
pos = (202,1200);
ref = macroncomb;
}
);
width = 1184;
}
);
unicode = 274;
},
{
color = 10;
glyphname = Eogonek;
lastChange = "2023-04-20 13:40:25 +0000";
layers = (
{
background = {
shapes = (
{
closed = 1;
nodes = (
(438,1370,ls),
(168,1370,o),
(-4,1198,o),
(-4,989,cs),
(-4,381,ls),
(-4,172,o),
(168,0,o),
(438,0,cs),
(746,0,ls),
(1016,0,o),
(1188,172,o),
(1188,381,cs),
(1188,989,ls),
(1188,1198,o),
(1016,1370,o),
(746,1370,cs)
);
},
{
closed = 1;
nodes = (
(905,453,l),
(897,453,l),
(787,326,l),
(776,291,l),
(791,231,l),
(901,221,l),
(901,131,l),
(758,143,l),
(698,203,l),
(686,281,l),
(698,356,l),
(756,414,l),
(827,453,l),
(402,453,l),
(402,1280,l),
(891,1280,l),
(891,1174,l),
(506,1174,l),
(506,918,l),
(840,918,l),
(840,813,l),
(506,813,l),
(506,559,l),
(905,559,l)
);
}
);
};
layerId = "F859EBB1-02CE-49D6-A9DD-2E3CD13E297E";
shapes = (
{
closed = 1;
nodes = (
(746,0,ls),
(1016,0,o),
(1188,172,o),
(1188,381,cs),
(1188,989,ls),
(1188,1198,o),
(1016,1370,o),
(746,1370,cs),
(438,1370,ls),
(168,1370,o),
(-4,1198,o),
(-4,989,cs),
(-4,381,ls),
(-4,172,o),
(168,0,o),
(438,0,cs)
);
},
{
closed = 1;
nodes = (
(758,143,l),
(698,203,l),
(686,281,l),
(698,356,l),
(756,414,l),
(827,453,l),
(402,453,l),
(402,1280,l),
(891,1280,l),
(891,1174,l),
(506,1174,l),
(506,918,l),
(840,918,l),
(840,813,l),
(506,813,l),
(506,559,l),
(905,559,l),
(905,453,l),
(897,453,l),
(787,326,l),
(776,291,l),
(791,231,l),
(901,221,l),
(901,131,l)
);
}
);
width = 1184;
}
);
unicode = 280;
},
{
color = 10;
glyphname = Etilde;
lastChange = "2023-04-20 14:02:32 +0000";
layers = (
{
background = {
shapes = (
{
closed = 1;
nodes = (
(905,453,l),
(402,453,l),
(402,1280,l),
(891,1280,l),
(891,1174,l),
(506,1174,l),
(506,918,l),
(840,918,l),
(840,813,l),
(506,813,l),
(506,559,l),
(905,559,l)
);
},
{
closed = 1;
nodes = (
(438,1370,ls),
(168,1370,o),
(-4,1198,o),
(-4,989,cs),
(-4,381,ls),
(-4,172,o),
(168,0,o),
(438,0,cs),
(746,0,ls),
(1016,0,o),
(1188,172,o),
(1188,381,cs),
(1188,989,ls),
(1188,1198,o),
(1016,1370,o),
(746,1370,cs)
);
},
{
closed = 1;
nodes = (
(955,1311,l),
(1039,1383,o),
(1086,1481,o),
(1086,1590,cs),
(1086,1798,o),
(914,1970,o),
(643,1970,cs),
(373,1970,o),
(201,1798,o),
(201,1590,cs),
(201,1477,o),
(246,1383,o),
(334,1311,c)
);
},
{
closed = 1;
nodes = (
(640,1430,o),
(579,1501,o),
(539,1501,cs),
(520,1501,o),
(507,1485,o),
(496,1434,c),
(406,1434,l),
(406,1446,ls),
(406,1483,o),
(412,1583,o),
(490,1583,cs),
(629,1583,o),
(679,1518,o),
(711,1518,cs),
(730,1518,o),
(741,1534,o),
(760,1594,c),
(850,1594,l),
(850,1561,ls),
(850,1512,o),
(842,1430,o),
(766,1430,cs)
);
}
);
};
layerId = "F859EBB1-02CE-49D6-A9DD-2E3CD13E297E";
shapes = (
{
ref = E;
},
{
pos = (207,1220);
ref = tildecomb;
}
);
width = 1184;
}
);
unicode = (7868,7869);
},
{
color = 6;
glyphname = F;
lastChange = "2023-04-20 13:24:50 +0000";
layers = (
{
anchors = (
{
name = bottom;
pos = (592,0);
},
{
name = top;
pos = (592,1370);
}
);
background = {
shapes = (
{
closed = 1;
nodes = (
(838,831,l),
(504,831,l),
(504,453,l),
(397,453,l),
(397,1280,l),
(895,1280,l),
(895,1174,l),
(504,1174,l),
(504,936,l),
(838,936,l)
);
},
{
closed = 1;
nodes = (
(438,1370,ls),
(168,1370,o),
(-4,1198,o),
(-4,989,cs),
(-4,381,ls),
(-4,172,o),
(168,0,o),
(438,0,cs),
(746,0,ls),
(1016,0,o),
(1188,172,o),
(1188,381,cs),
(1188,989,ls),
(1188,1198,o),
(1016,1370,o),
(746,1370,cs)
);
}
);
};
layerId = "F859EBB1-02CE-49D6-A9DD-2E3CD13E297E";
shapes = (
{
closed = 1;
nodes = (
(746,0,ls),
(1016,0,o),
(1188,172,o),
(1188,381,cs),
(1188,989,ls),
(1188,1198,o),
(1016,1370,o),
(746,1370,cs),
(438,1370,ls),
(168,1370,o),
(-4,1198,o),
(-4,989,cs),
(-4,381,ls),
(-4,172,o),
(168,0,o),
(438,0,cs)
);
},
{
closed = 1;
nodes = (
(397,1280,l),
(895,1280,l),
(895,1174,l),
(504,1174,l),
(504,936,l),
(838,936,l),
(838,831,l),
(504,831,l),
(504,453,l),
(397,453,l)
);
}
);
width = 1184;
}
);
unicode = 70;
},
{
color = 6;
glyphname = G;
lastChange = "2023-04-20 13:24:50 +0000";
layers = (
{
anchors = (
{
name = bottom;
pos = (592,0);
},
{
name = top;
pos = (592,1370);
}
);
background = {
shapes = (
{
closed = 1;
nodes = (
(459,1161,l),
(449,1106,l),
(449,633,l),
(463,569,l),
(524,559,l),
(766,559,l),
(832,569,l),
(839,590,o),
(839,608,o),
(846,629,c),
(846,770,l),
(662,770,l),
(662,877,l),
(952,877,l),
(952,614,l),
(938,528,l),
(873,465,l),
(772,453,l),
(522,453,l),
(422,465,l),
(356,528,l),
(342,614,l),
(342,1116,l),
(356,1200,l),
(420,1264,l),
(522,1280,l),
(791,1280,l),
(907,1266,l),
(887,1159,l),
(784,1176,l),
(524,1176,l)
);
},
{
closed = 1;
nodes = (
(438,1370,ls),
(168,1370,o),
(-4,1198,o),
(-4,989,cs),
(-4,381,ls),
(-4,172,o),
(168,0,o),
(438,0,cs),
(746,0,ls),
(1016,0,o),
(1188,172,o),
(1188,381,cs),
(1188,989,ls),
(1188,1198,o),
(1016,1370,o),
(746,1370,cs)
);
}
);
};
layerId = "F859EBB1-02CE-49D6-A9DD-2E3CD13E297E";
shapes = (
{
closed = 1;
nodes = (
(746,0,ls),
(1016,0,o),
(1188,172,o),
(1188,381,cs),
(1188,989,ls),
(1188,1198,o),
(1016,1370,o),
(746,1370,cs),
(438,1370,ls),
(168,1370,o),
(-4,1198,o),
(-4,989,cs),
(-4,381,ls),
(-4,172,o),
(168,0,o),
(438,0,cs)
);
},
{
closed = 1;
nodes = (
(422,465,l),
(356,528,l),
(342,614,l),
(342,1116,l),
(356,1200,l),
(420,1264,l),
(522,1280,l),
(791,1280,l),
(907,1266,l),
(887,1159,l),
(784,1176,l),
(524,1176,l),
(459,1161,l),
(449,1106,l),
(449,633,l),
(463,569,l),
(524,559,l),
(766,559,l),
(832,569,l),
(839,590,o),
(839,608,o),
(846,629,c),
(846,770,l),
(662,770,l),
(662,877,l),
(952,877,l),
(952,614,l),
(938,528,l),
(873,465,l),
(772,453,l),
(522,453,l)
);
}
);
width = 1184;
}
);
unicode = 71;
},
{
color = 10;
glyphname = Gbreve;
lastChange = "2023-04-20 14:02:32 +0000";
layers = (
{
background = {
shapes = (
{
closed = 1;
nodes = (
(459,1161,l),
(449,1106,l),
(449,633,l),
(463,569,l),
(524,559,l),
(766,559,l),
(832,569,l),
(839,590,o),
(839,608,o),
(846,629,c),
(846,770,l),
(662,770,l),
(662,877,l),
(952,877,l),
(952,614,l),
(938,528,l),
(873,465,l),
(772,453,l),
(522,453,l),
(422,465,l),
(356,528,l),
(342,614,l),
(342,1116,l),
(356,1200,l),
(420,1264,l),
(522,1280,l),
(791,1280,l),
(907,1266,l),
(887,1159,l),
(784,1176,l),
(524,1176,l)
);
},
{
closed = 1;
nodes = (
(438,1370,ls),
(168,1370,o),
(-4,1198,o),
(-4,989,cs),
(-4,381,ls),
(-4,172,o),
(168,0,o),
(438,0,cs),
(746,0,ls),
(1016,0,o),
(1188,172,o),
(1188,381,cs),
(1188,989,ls),
(1188,1198,o),
(1016,1370,o),
(746,1370,cs)
);
},
{
closed = 1;
nodes = (
(881,1313,l),
(993,1381,o),
(1055,1471,o),
(1055,1592,cs),
(1055,1765,o),
(883,1911,o),
(612,1911,cs),
(342,1911,o),
(170,1765,o),
(170,1592,cs),
(170,1471,o),
(231,1381,o),
(344,1313,c)
);
},
{
closed = 1;
nodes = (
(430,1612,l),
(520,1612,l),
(530,1542,l),
(586,1532,l),
(639,1532,l),
(698,1546,l),
(709,1612,l),
(799,1612,l),
(786,1514,l),
(727,1454,l),
(649,1442,l),
(578,1442,l),
(500,1454,l),
(442,1512,l)
);
}
);
};
layerId = "F859EBB1-02CE-49D6-A9DD-2E3CD13E297E";
shapes = (
{
ref = G;
},
{
pos = (200,1200);
ref = brevecomb;
}
);
width = 1184;
}
);
unicode = 286;
},
{
color = 10;
glyphname = Gcircumflex;
lastChange = "2023-04-20 14:02:32 +0000";
layers = (
{
background = {
shapes = (
{
closed = 1;
nodes = (
(459,1161,l),
(449,1106,l),
(449,633,l),
(463,569,l),
(524,559,l),
(766,559,l),
(832,569,l),
(839,590,o),
(839,608,o),
(846,629,c),
(846,770,l),
(662,770,l),
(662,877,l),
(952,877,l),
(952,614,l),
(938,528,l),
(873,465,l),
(772,453,l),
(522,453,l),
(422,465,l),
(356,528,l),
(342,614,l),
(342,1116,l),
(356,1200,l),
(420,1264,l),
(522,1280,l),
(791,1280,l),
(907,1266,l),
(887,1159,l),
(784,1176,l),
(524,1176,l)
);
},
{
closed = 1;
nodes = (
(438,1370,ls),
(168,1370,o),
(-4,1198,o),
(-4,989,cs),
(-4,381,ls),
(-4,172,o),
(168,0,o),
(438,0,cs),
(746,0,ls),
(1016,0,o),
(1188,172,o),
(1188,381,cs),
(1188,989,ls),
(1188,1198,o),
(1016,1370,o),
(746,1370,cs)
);
},
{
closed = 1;
nodes = (
(912,1305,l),
(958,1341,o),
(981,1393,o),
(981,1461,cs),
(981,1513,o),
(943,1611,o),
(908,1700,cs),
(887,1751,o),
(863,1805,o),
(836,1862,cs),
(788,1961,o),
(729,1995,o),
(617,1995,cs),
(505,1995,o),
(443,1961,o),
(404,1893,c),
(332,1738,o),
(244,1547,o),
(244,1450,cs),
(244,1394,o),
(264,1340,o),
(305,1305,c)
);
},
{
closed = 1;
nodes = (
(518,1461,l),
(437,1461,l),
(568,1799,l),
(658,1799,l),
(789,1461,l),
(707,1461,l),
(613,1753,l)
);
}
);
};
layerId = "F859EBB1-02CE-49D6-A9DD-2E3CD13E297E";
shapes = (
{
ref = G;
},
{
pos = (257,1200);
ref = circumflexcomb;
}
);
width = 1184;
}
);
unicode = 284;
},
{
color = 6;
glyphname = Gcommaaccent;
lastChange = "2023-04-20 13:24:50 +0000";
layers = (
{
background = {
shapes = (
{
closed = 1;
nodes = (
(602,147,l),
(641,248,l),
(576,248,l),
(576,377,l),
(727,377,l),
(727,248,l),
(666,119,l)
);
},
{
closed = 1;
nodes = (
(459,1161,l),
(449,1106,l),
(449,633,l),
(463,569,l),
(524,559,l),
(766,559,l),
(832,569,l),
(839,590,o),
(839,608,o),
(846,629,c),
(846,770,l),
(662,770,l),
(662,877,l),
(952,877,l),
(952,614,l),
(938,528,l),
(873,465,l),
(772,453,l),
(522,453,l),
(422,465,l),
(356,528,l),
(342,614,l),
(342,1116,l),
(356,1200,l),
(420,1264,l),
(522,1280,l),
(791,1280,l),
(907,1266,l),
(887,1159,l),
(784,1176,l),
(524,1176,l)
);
},
{
closed = 1;
nodes = (
(438,1370,ls),
(168,1370,o),
(-4,1198,o),
(-4,989,cs),
(-4,381,ls),
(-4,172,o),
(168,0,o),
(438,0,cs),
(746,0,ls),
(1016,0,o),
(1188,172,o),
(1188,381,cs),
(1188,989,ls),
(1188,1198,o),
(1016,1370,o),
(746,1370,cs)
);
}
);
};
layerId = "F859EBB1-02CE-49D6-A9DD-2E3CD13E297E";
shapes = (
{
closed = 1;
nodes = (
(746,0,ls),
(1016,0,o),
(1188,172,o),
(1188,381,cs),
(1188,989,ls),
(1188,1198,o),
(1016,1370,o),
(746,1370,cs),
(438,1370,ls),
(168,1370,o),
(-4,1198,o),
(-4,989,cs),
(-4,381,ls),
(-4,172,o),
(168,0,o),
(438,0,cs)
);
},
{
closed = 1;
nodes = (
(602,147,l),
(641,248,l),
(576,248,l),
(576,377,l),
(727,377,l),
(727,248,l),
(666,119,l)
);
},
{
closed = 1;
nodes = (
(422,465,l),
(356,528,l),
(342,614,l),
(342,1116,l),
(356,1200,l),
(420,1264,l),
(522,1280,l),
(791,1280,l),
(907,1266,l),
(887,1159,l),
(784,1176,l),
(524,1176,l),
(459,1161,l),
(449,1106,l),
(449,633,l),
(463,569,l),
(524,559,l),
(766,559,l),
(832,569,l),
(839,590,o),
(839,608,o),
(846,629,c),
(846,770,l),
(662,770,l),
(662,877,l),
(952,877,l),
(952,614,l),
(938,528,l),
(873,465,l),
(772,453,l),
(522,453,l)
);
}
);
width = 1184;
}
);
unicode = 290;
},
{
color = 10;
glyphname = Gdotaccent;
lastChange = "2023-04-20 14:02:32 +0000";
layers = (
{
background = {
shapes = (
{
closed = 1;
nodes = (
(459,1161,l),
(449,1106,l),
(449,633,l),
(463,569,l),
(524,559,l),
(766,559,l),
(832,569,l),
(839,590,o),
(839,608,o),
(846,629,c),
(846,770,l),
(662,770,l),
(662,877,l),
(952,877,l),
(952,614,l),
(938,528,l),
(873,465,l),
(772,453,l),
(522,453,l),
(422,465,l),
(356,528,l),
(342,614,l),
(342,1116,l),
(356,1200,l),
(420,1264,l),
(522,1280,l),
(791,1280,l),
(907,1266,l),
(887,1159,l),
(784,1176,l),
(524,1176,l)
);
},
{
closed = 1;
nodes = (
(438,1370,ls),
(168,1370,o),
(-4,1198,o),
(-4,989,cs),
(-4,381,ls),
(-4,172,o),
(168,0,o),
(438,0,cs),
(746,0,ls),
(1016,0,o),
(1188,172,o),
(1188,381,cs),
(1188,989,ls),
(1188,1198,o),
(1016,1370,o),
(746,1370,cs)
);
},
{
closed = 1;
nodes = (
(523,1493,l),
(523,1622,l),
(654,1622,l),
(654,1493,l)
);
},
{
closed = 1;
nodes = (
(941,1321,l),
(1002,1393,o),
(1035,1478,o),
(1035,1582,cs),
(1035,1755,o),
(863,1901,o),
(592,1901,cs),
(322,1901,o),
(150,1755,o),
(150,1582,cs),
(150,1495,o),
(184,1380,o),
(246,1321,c)
);
}
);
};
layerId = "F859EBB1-02CE-49D6-A9DD-2E3CD13E297E";
shapes = (
{
ref = G;
},
{
pos = (194,1200);
ref = dotaccentcomb;
}
);
width = 1184;
}
);
unicode = 288;
},
{
color = 6;
glyphname = H;
lastChange = "2023-04-20 13:24:50 +0000";
layers = (
{
anchors = (
{
name = bottom;
pos = (592,0);
},
{
name = center;
pos = (592,685);
},
{
name = top;
pos = (592,1370);
},
{
name = topleft;
pos = (20,1370);
}
);
background = {
shapes = (
{
closed = 1;
nodes = (
(954,453,l),
(850,453,l),
(850,825,l),
(434,825,l),
(434,453,l),
(328,453,l),
(328,1280,l),
(434,1280,l),
(434,930,l),
(850,930,l),
(850,1280,l),
(954,1280,l)
);
},
{
closed = 1;
nodes = (
(438,1370,ls),
(168,1370,o),
(-4,1198,o),
(-4,989,cs),
(-4,381,ls),
(-4,172,o),
(168,0,o),
(438,0,cs),
(746,0,ls),
(1016,0,o),
(1188,172,o),
(1188,381,cs),
(1188,989,ls),
(1188,1198,o),
(1016,1370,o),
(746,1370,cs)
);
}
);
};
layerId = "F859EBB1-02CE-49D6-A9DD-2E3CD13E297E";
shapes = (
{
closed = 1;
nodes = (
(746,0,ls),
(1016,0,o),
(1188,172,o),
(1188,381,cs),
(1188,989,ls),
(1188,1198,o),
(1016,1370,o),
(746,1370,cs),
(438,1370,ls),
(168,1370,o),
(-4,1198,o),
(-4,989,cs),
(-4,381,ls),
(-4,172,o),
(168,0,o),
(438,0,cs)
);
},
{
closed = 1;
nodes = (
(328,1280,l),
(434,1280,l),
(434,930,l),
(850,930,l),
(850,1280,l),
(954,1280,l),
(954,453,l),
(850,453,l),
(850,825,l),
(434,825,l),
(434,453,l),
(328,453,l)
);
}
);
width = 1184;
}
);
unicode = 72;
},
{
color = 10;
glyphname = Hbar;
lastChange = "2023-04-20 14:00:39 +0000";
layers = (
{
anchors = (
{
name = bottom;
pos = (592,0);
},
{
name = center;
pos = (592,685);
},
{
name = top;
pos = (592,1370);
},
{
name = topleft;
pos = (20,1370);
}
);
background = {
shapes = (
{
closed = 1;
nodes = (
(954,453,l),
(850,453,l),
(850,825,l),
(434,825,l),
(434,453,l),
(328,453,l),
(328,1280,l),
(434,1280,l),
(434,930,l),
(850,930,l),
(850,1280,l),
(954,1280,l)
);
},
{
closed = 1;
nodes = (
(438,1370,ls),
(168,1370,o),
(-4,1198,o),
(-4,989,cs),
(-4,381,ls),
(-4,172,o),
(168,0,o),
(438,0,cs),
(746,0,ls),
(1016,0,o),
(1188,172,o),
(1188,381,cs),
(1188,989,ls),
(1188,1198,o),
(1016,1370,o),
(746,1370,cs)
);
}
);
};
layerId = "F859EBB1-02CE-49D6-A9DD-2E3CD13E297E";
shapes = (
{
closed = 1;
nodes = (
(746,0,ls),
(1016,0,o),
(1188,172,o),
(1188,381,cs),
(1188,989,ls),
(1188,1198,o),
(1016,1370,o),
(746,1370,cs),
(438,1370,ls),
(168,1370,o),
(-4,1198,o),
(-4,989,cs),
(-4,381,ls),
(-4,172,o),
(168,0,o),
(438,0,cs)
);
},
{
closed = 1;
nodes = (
(328,1067,l),
(234,1067,l),
(234,1164,l),
(328,1164,l),
(328,1280,l),
(434,1280,l),
(434,1164,l),
(850,1164,l),
(850,1280,l),
(954,1280,l),
(954,1164,l),
(1050,1164,l),
(1050,1067,l),
(954,1067,l),
(954,453,l),
(850,453,l),
(850,825,l),
(434,825,l),
(434,453,l),
(328,453,l)
);
},
{
closed = 1;
nodes = (
(850,930,l),
(850,1067,l),
(434,1067,l),
(434,930,l)
);
}
);
width = 1184;
}
);
unicode = 294;
},
{
color = 10;
glyphname = Hcircumflex;
lastChange = "2023-04-20 14:02:32 +0000";
layers = (
{
background = {
shapes = (
{
closed = 1;
nodes = (
(954,453,l),
(850,453,l),
(850,825,l),
(434,825,l),
(434,453,l),
(328,453,l),
(328,1280,l),
(434,1280,l),
(434,930,l),
(850,930,l),
(850,1280,l),
(954,1280,l)
);
},
{
closed = 1;
nodes = (
(438,1370,ls),
(168,1370,o),
(-4,1198,o),
(-4,989,cs),
(-4,381,ls),
(-4,172,o),
(168,0,o),
(438,0,cs),
(746,0,ls),
(1016,0,o),
(1188,172,o),
(1188,381,cs),
(1188,989,ls),
(1188,1198,o),
(1016,1370,o),
(746,1370,cs)
);
},
{
closed = 1;
nodes = (
(916,1305,l),
(962,1341,o),
(985,1393,o),
(985,1461,cs),
(985,1513,o),
(947,1611,o),
(912,1700,cs),
(891,1751,o),
(867,1805,o),
(840,1862,cs),
(792,1961,o),
(733,1995,o),
(621,1995,cs),
(509,1995,o),
(447,1961,o),
(408,1893,c),
(336,1738,o),
(248,1547,o),
(248,1450,cs),
(248,1394,o),
(268,1340,o),
(309,1305,c)
);
},
{
closed = 1;
nodes = (
(522,1461,l),
(441,1461,l),
(572,1799,l),
(662,1799,l),
(793,1461,l),
(711,1461,l),
(617,1753,l)
);
}
);
};
layerId = "F859EBB1-02CE-49D6-A9DD-2E3CD13E297E";
shapes = (
{
ref = H;
},
{
pos = (257,1200);
ref = circumflexcomb;
}
);
width = 1184;
}
);
unicode = 292;
},
{
color = 6;
glyphname = I;
lastChange = "2023-04-20 13:24:50 +0000";
layers = (
{
anchors = (
{
name = bottom;
pos = (592,0);
},
{
name = ogonek;
pos = (1066,10);
},
{
name = top;
pos = (592,1370);
},
{
name = topleft;
pos = (20,1370);
}
);
background = {
shapes = (
{
closed = 1;
nodes = (
(594,559,l),
(594,1174,l),
(358,1174,l),
(358,1280,l),
(936,1280,l),
(936,1174,l),
(701,1174,l),
(701,559,l),
(936,559,l),
(936,453,l),
(358,453,l),
(358,559,l)
);
},
{
closed = 1;
nodes = (
(438,1370,ls),
(168,1370,o),
(-4,1198,o),
(-4,989,cs),
(-4,381,ls),
(-4,172,o),
(168,0,o),
(438,0,cs),
(746,0,ls),
(1016,0,o),
(1188,172,o),
(1188,381,cs),
(1188,989,ls),
(1188,1198,o),
(1016,1370,o),
(746,1370,cs)
);
}
);
};
layerId = "F859EBB1-02CE-49D6-A9DD-2E3CD13E297E";
shapes = (
{
closed = 1;
nodes = (
(746,0,ls),
(1016,0,o),
(1188,172,o),
(1188,381,cs),
(1188,989,ls),
(1188,1198,o),
(1016,1370,o),
(746,1370,cs),
(438,1370,ls),
(168,1370,o),
(-4,1198,o),
(-4,989,cs),
(-4,381,ls),
(-4,172,o),
(168,0,o),
(438,0,cs)
);
},
{
closed = 1;
nodes = (
(358,559,l),
(594,559,l),
(594,1174,l),
(358,1174,l),
(358,1280,l),
(936,1280,l),
(936,1174,l),
(701,1174,l),
(701,559,l),
(936,559,l),
(936,453,l),
(358,453,l)
);
}
);
width = 1184;
}
);
unicode = 73;
},
{
color = 6;
glyphname = IJ;
lastChange = "2023-04-20 13:24:54 +0000";
layers = (
{
background = {
shapes = (
{
closed = 1;
nodes = (
(334,559,l),
(334,1174,l),
(180,1174,l),
(180,1280,l),
(594,1280,l),
(594,1174,l),
(440,1174,l),
(440,559,l),
(594,559,l),
(594,453,l),
(180,453,l),
(180,559,l)
);
},
{
closed = 1;
nodes = (
(438,1370,ls),
(168,1370,o),
(-4,1198,o),
(-4,989,cs),
(-4,381,ls),
(-4,172,o),
(168,0,o),
(438,0,cs),
(746,0,ls),
(1016,0,o),
(1188,172,o),
(1188,381,cs),
(1188,989,ls),
(1188,1198,o),
(1016,1370,o),
(746,1370,cs)
);
},
{
closed = 1;
nodes = (
(991,1280,l),
(991,528,l),
(914,467,l),
(813,453,l),
(658,453,l),
(658,559,l),
(807,559,l),
(873,571,l),
(887,631,l),
(887,1280,l)
);
}
);
};
layerId = "F859EBB1-02CE-49D6-A9DD-2E3CD13E297E";
shapes = (
{
closed = 1;
nodes = (
(746,0,ls),
(1016,0,o),
(1188,172,o),
(1188,381,cs),
(1188,989,ls),
(1188,1198,o),
(1016,1370,o),
(746,1370,cs),
(438,1370,ls),
(168,1370,o),
(-4,1198,o),
(-4,989,cs),
(-4,381,ls),
(-4,172,o),
(168,0,o),
(438,0,cs)
);
},
{
closed = 1;
nodes = (
(180,559,l),
(334,559,l),
(334,1174,l),
(180,1174,l),
(180,1280,l),
(594,1280,l),
(594,1174,l),
(440,1174,l),
(440,559,l),
(594,559,l),
(594,453,l),
(180,453,l)
);
},
{
closed = 1;
nodes = (
(658,559,l),
(807,559,l),
(873,571,l),
(887,631,l),
(887,1280,l),
(991,1280,l),
(991,528,l),
(914,467,l),
(813,453,l),
(658,453,l)
);
}
);
width = 1184;
}
);
unicode = 306;
},
{
color = 10;
glyphname = Iacute;
lastChange = "2023-04-20 14:02:32 +0000";
layers = (
{
background = {
shapes = (
{
closed = 1;
nodes = (
(594,559,l),
(594,1174,l),
(358,1174,l),
(358,1280,l),
(936,1280,l),
(936,1174,l),
(701,1174,l),
(701,559,l),
(936,559,l),
(936,453,l),
(358,453,l),
(358,559,l)
);
},
{
closed = 1;
nodes = (
(438,1370,ls),
(168,1370,o),
(-4,1198,o),
(-4,989,cs),
(-4,381,ls),
(-4,172,o),
(168,0,o),
(438,0,cs),
(746,0,ls),
(1016,0,o),
(1188,172,o),
(1188,381,cs),
(1188,989,ls),
(1188,1198,o),
(1016,1370,o),
(746,1370,cs)
);
},
{
closed = 1;
nodes = (
(790,1293,l),
(805,1308,o),
(817,1327,o),
(833,1354,cs),
(991,1624,ls),
(1021,1675,o),
(1034,1720,o),
(1034,1757,cs),
(1034,1888,o),
(888,1958,o),
(739,1958,cs),
(626,1958,o),
(531,1929,o),
(499,1845,c),
(406,1560,o),
(395,1490,o),
(395,1463,cs),
(395,1383,o),
(454,1320,o),
(516,1293,c)
);
},
{
closed = 1;
nodes = (
(663,1450,l),
(594,1450,l),
(694,1784,l),
(815,1784,l)
);
}
);
};
layerId = "F859EBB1-02CE-49D6-A9DD-2E3CD13E297E";
shapes = (
{
ref = I;
},
{
pos = (396,1200);
ref = acutecomb;
}
);
width = 1184;
}
);
unicode = 205;
},
{
color = 10;
glyphname = Ibreve;
lastChange = "2023-04-20 14:02:32 +0000";
layers = (
{
background = {
shapes = (
{
closed = 1;
nodes = (
(594,559,l),
(594,1174,l),
(358,1174,l),
(358,1280,l),
(936,1280,l),
(936,1174,l),
(701,1174,l),
(701,559,l),
(936,559,l),
(936,453,l),
(358,453,l),
(358,559,l)
);
},
{
closed = 1;
nodes = (
(438,1370,ls),
(168,1370,o),
(-4,1198,o),
(-4,989,cs),
(-4,381,ls),
(-4,172,o),
(168,0,o),
(438,0,cs),
(746,0,ls),
(1016,0,o),
(1188,172,o),
(1188,381,cs),
(1188,989,ls),
(1188,1198,o),
(1016,1370,o),
(746,1370,cs)
);
},
{
closed = 1;
nodes = (
(920,1311,l),
(1032,1379,o),
(1094,1469,o),
(1094,1590,cs),
(1094,1763,o),
(922,1909,o),
(651,1909,cs),
(381,1909,o),
(209,1763,o),
(209,1590,cs),
(209,1469,o),
(270,1379,o),
(383,1311,c)
);
},
{
closed = 1;
nodes = (
(469,1610,l),
(559,1610,l),
(569,1540,l),
(625,1530,l),
(678,1530,l),
(737,1544,l),
(748,1610,l),
(838,1610,l),
(825,1512,l),
(766,1452,l),
(688,1440,l),
(617,1440,l),
(539,1452,l),
(481,1510,l)
);
}
);
};
layerId = "F859EBB1-02CE-49D6-A9DD-2E3CD13E297E";
shapes = (
{
ref = I;
},
{
pos = (200,1200);
ref = brevecomb;
}
);
width = 1184;
}
);
unicode = 300;
},
{
color = 10;
glyphname = Icaron;
lastChange = "2023-04-20 14:02:32 +0000";
layers = (
{
background = {
shapes = (
{
closed = 1;
nodes = (
(594,559,l),
(594,1174,l),
(358,1174,l),
(358,1280,l),
(936,1280,l),
(936,1174,l),
(701,1174,l),
(701,559,l),
(936,559,l),
(936,453,l),
(358,453,l),
(358,559,l)
);
},
{
closed = 1;
nodes = (
(438,1370,ls),
(168,1370,o),
(-4,1198,o),
(-4,989,cs),
(-4,381,ls),
(-4,172,o),
(168,0,o),
(438,0,cs),
(746,0,ls),
(1016,0,o),
(1188,172,o),
(1188,381,cs),
(1188,989,ls),
(1188,1198,o),
(1016,1370,o),
(746,1370,cs)
);
},
{
closed = 1;
nodes = (
(623,1917,o),
(587,1940,o),
(520,1940,cs),
(348,1940,o),
(287,1848,o),
(287,1753,cs),
(287,1657,o),
(349,1468,o),
(406,1311,c),
(908,1311,l),
(956,1427,o),
(1024,1635,o),
(1024,1743,cs),
(1024,1851,o),
(965,1942,o),
(817,1942,cs),
(745,1942,o),
(699,1919,o),
(658,1882,c)
);
},
{
closed = 1;
nodes = (
(656,1471,l),
(750,1764,l),
(832,1764,l),
(701,1426,l),
(611,1426,l),
(480,1764,l),
(561,1764,l)
);
}
);
};
layerId = "F859EBB1-02CE-49D6-A9DD-2E3CD13E297E";
shapes = (
{
ref = I;
},
{
pos = (267,1240);
ref = caroncomb;
}
);
width = 1184;
}
);
unicode = 463;
},
{
color = 10;
glyphname = Icircumflex;
lastChange = "2023-04-20 14:02:32 +0000";
layers = (
{
background = {
shapes = (
{
closed = 1;
nodes = (
(594,559,l),
(594,1174,l),
(358,1174,l),
(358,1280,l),
(936,1280,l),
(936,1174,l),
(701,1174,l),
(701,559,l),
(936,559,l),
(936,453,l),
(358,453,l),
(358,559,l)
);
},
{
closed = 1;
nodes = (
(438,1370,ls),
(168,1370,o),
(-4,1198,o),
(-4,989,cs),
(-4,381,ls),
(-4,172,o),
(168,0,o),
(438,0,cs),
(746,0,ls),
(1016,0,o),
(1188,172,o),
(1188,381,cs),
(1188,989,ls),
(1188,1198,o),
(1016,1370,o),
(746,1370,cs)
);
},
{
closed = 1;
nodes = (
(947,1311,l),
(993,1347,o),
(1016,1399,o),
(1016,1467,cs),
(1016,1519,o),
(978,1617,o),
(943,1706,cs),
(922,1757,o),
(898,1811,o),
(871,1868,cs),
(823,1967,o),
(764,2001,o),
(652,2001,cs),
(540,2001,o),
(478,1967,o),
(439,1899,c),
(367,1744,o),
(279,1553,o),
(279,1456,cs),
(279,1400,o),
(299,1346,o),
(340,1311,c)
);
},
{
closed = 1;
nodes = (
(553,1467,l),
(472,1467,l),
(603,1805,l),
(693,1805,l),
(824,1467,l),
(742,1467,l),
(648,1759,l)
);
}
);
};
layerId = "F859EBB1-02CE-49D6-A9DD-2E3CD13E297E";
shapes = (
{
ref = I;
},
{
pos = (257,1200);
ref = circumflexcomb;
}
);
width = 1184;
}
);
unicode = 206;
},
{
color = 10;
glyphname = Idblgrave;
lastChange = "2023-04-20 14:02:32 +0000";
layers = (
{
background = {
shapes = (
{
closed = 1;
nodes = (
(594,559,l),
(594,1174,l),
(358,1174,l),
(358,1280,l),
(936,1280,l),
(936,1174,l),
(701,1174,l),
(701,559,l),
(936,559,l),
(936,453,l),
(358,453,l),
(358,559,l)
);
},
{
closed = 1;
nodes = (
(438,1370,ls),
(168,1370,o),
(-4,1198,o),
(-4,989,cs),
(-4,381,ls),
(-4,172,o),
(168,0,o),
(438,0,cs),
(746,0,ls),
(1016,0,o),
(1188,172,o),
(1188,381,cs),
(1188,989,ls),
(1188,1198,o),
(1016,1370,o),
(746,1370,cs)
);
},
{
closed = 1;
nodes = (
(907,1296,l),
(940,1331,o),
(954,1374,o),
(954,1431,cs),
(954,1450,o),
(952,1472,o),
(948,1495,c),
(768,1828,ls),
(714,1927,o),
(677,1951,o),
(565,1962,c),
(473,1962,l),
(457,1929,l),
(426,1948,o),
(390,1955,o),
(334,1962,c),
(242,1962,l),
(86,1671,l),
(338,1296,l)
);
},
{
closed = 1;
nodes = (
(489,1765,l),
(582,1765,l),
(762,1431,l),
(711,1431,l)
);
},
{
closed = 1;
nodes = (
(258,1765,l),
(350,1765,l),
(530,1431,l),
(479,1431,l)
);
}
);
};
layerId = "F859EBB1-02CE-49D6-A9DD-2E3CD13E297E";
shapes = (
{
ref = I;
},
{
pos = (92,1200);
ref = dblgravecomb;
}
);
width = 1184;
}
);
unicode = 520;
},
{
color = 10;
glyphname = Idieresis;
lastChange = "2023-04-20 14:02:32 +0000";
layers = (
{
background = {
shapes = (
{
closed = 1;
nodes = (
(594,559,l),
(594,1174,l),
(358,1174,l),
(358,1280,l),
(936,1280,l),
(936,1174,l),
(701,1174,l),
(701,559,l),
(936,559,l),
(936,453,l),
(358,453,l),
(358,559,l)
);
},
{
closed = 1;
nodes = (
(438,1370,ls),
(168,1370,o),
(-4,1198,o),
(-4,989,cs),
(-4,381,ls),
(-4,172,o),
(168,0,o),
(438,0,cs),
(746,0,ls),
(1016,0,o),
(1188,172,o),
(1188,381,cs),
(1188,989,ls),
(1188,1198,o),
(1016,1370,o),
(746,1370,cs)
);
},
{
closed = 1;
nodes = (
(709,1479,l),
(709,1608,l),
(840,1608,l),
(840,1479,l)
);
},
{
closed = 1;
nodes = (
(918,1313,l),
(1006,1370,o),
(1053,1458,o),
(1053,1563,cs),
(1053,1723,o),
(897,1862,o),
(651,1862,cs),
(406,1862,o),
(250,1723,o),
(250,1563,cs),
(250,1459,o),
(295,1370,o),
(383,1313,c)
);
},
{
closed = 1;
nodes = (
(447,1479,l),
(447,1608,l),
(578,1608,l),
(578,1479,l)
);
}
);
};
layerId = "F859EBB1-02CE-49D6-A9DD-2E3CD13E297E";
shapes = (
{
ref = I;
},
{
pos = (224,1220);
ref = dieresiscomb;
}
);
width = 1184;
}
);
unicode = 207;
},
{
color = 10;
glyphname = Idotaccent;
lastChange = "2023-04-20 14:02:32 +0000";
layers = (
{
background = {
shapes = (
{
closed = 1;
nodes = (
(594,559,l),
(594,1174,l),
(358,1174,l),
(358,1280,l),
(936,1280,l),
(936,1174,l),
(701,1174,l),
(701,559,l),
(936,559,l),
(936,453,l),
(358,453,l),
(358,559,l)
);
},
{
closed = 1;
nodes = (
(438,1370,ls),
(168,1370,o),
(-4,1198,o),
(-4,989,cs),
(-4,381,ls),
(-4,172,o),
(168,0,o),
(438,0,cs),
(746,0,ls),
(1016,0,o),
(1188,172,o),
(1188,381,cs),
(1188,989,ls),
(1188,1198,o),
(1016,1370,o),
(746,1370,cs)
);
},
{
closed = 1;
nodes = (
(544,1476,l),
(544,1605,l),
(675,1605,l),
(675,1476,l)
);
},
{
closed = 1;
nodes = (
(962,1304,l),
(1023,1376,o),
(1056,1461,o),
(1056,1565,cs),
(1056,1738,o),
(884,1884,o),
(613,1884,cs),
(343,1884,o),
(171,1738,o),
(171,1565,cs),
(171,1478,o),
(205,1363,o),
(267,1304,c)
);
}
);
};
layerId = "F859EBB1-02CE-49D6-A9DD-2E3CD13E297E";
shapes = (
{
ref = I;
},
{
pos = (194,1200);
ref = dotaccentcomb;
}
);
width = 1184;
}
);
unicode = 304;
},
{
color = 10;
glyphname = Igrave;
lastChange = "2023-04-20 14:02:32 +0000";
layers = (
{
background = {
shapes = (
{
closed = 1;
nodes = (
(594,559,l),
(594,1174,l),
(358,1174,l),
(358,1280,l),
(936,1280,l),
(936,1174,l),
(701,1174,l),
(701,559,l),
(936,559,l),
(936,453,l),
(358,453,l),
(358,559,l)
);
},
{
closed = 1;
nodes = (
(438,1370,ls),
(168,1370,o),
(-4,1198,o),
(-4,989,cs),
(-4,381,ls),
(-4,172,o),
(168,0,o),
(438,0,cs),
(746,0,ls),
(1016,0,o),
(1188,172,o),
(1188,381,cs),
(1188,989,ls),
(1188,1198,o),
(1016,1370,o),
(746,1370,cs)
);
},
{
closed = 1;
nodes = (
(735,1293,l),
(797,1320,o),
(856,1383,o),
(856,1463,cs),
(856,1490,o),
(842,1560,o),
(752,1845,c),
(720,1929,o),
(625,1958,o),
(512,1958,cs),
(362,1958,o),
(217,1888,o),
(217,1757,c),
(216,1719,o),
(230,1675,o),
(260,1624,cs),
(418,1354,ls),
(434,1327,o),
(446,1308,o),
(461,1293,c)
);
},
{
closed = 1;
nodes = (
(436,1784,l),
(557,1784,l),
(657,1450,l),
(588,1450,l)
);
}
);
};
layerId = "F859EBB1-02CE-49D6-A9DD-2E3CD13E297E";
shapes = (
{
ref = I;
},
{
pos = (211,1200);
ref = gravecomb;
}
);
width = 1184;
}
);
unicode = 204;
},
{
color = 10;
glyphname = Iinvertedbreve;
lastChange = "2023-04-20 14:02:32 +0000";
layers = (
{
background = {
shapes = (
{
closed = 1;
nodes = (
(1067,1752,o),
(895,1898,o),
(624,1898,cs),
(354,1898,o),
(182,1752,o),
(182,1579,cs),
(182,1485,o),
(218,1410,o),
(287,1350,c),
(105,1299,o),
(-4,1155,o),
(-4,989,cs),
(-4,381,ls),
(-4,172,o),
(168,0,o),
(438,0,cs),
(746,0,ls),
(1016,0,o),
(1188,172,o),
(1188,381,cs),
(1188,989,ls),
(1188,1141,o),
(1097,1273,o),
(943,1334,c),
(1023,1397,o),
(1067,1477,o),
(1067,1579,cs)
);
},
{
closed = 1;
nodes = (
(594,559,l),
(594,1174,l),
(358,1174,l),
(358,1280,l),
(936,1280,l),
(936,1174,l),
(701,1174,l),
(701,559,l),
(936,559,l),
(936,453,l),
(358,453,l),
(358,559,l)
);
},
{
closed = 1;
nodes = (
(454,1554,l),
(512,1611,l),
(590,1624,l),
(661,1624,l),
(739,1611,l),
(798,1552,l),
(811,1454,l),
(721,1454,l),
(710,1519,l),
(651,1533,l),
(598,1533,l),
(542,1523,l),
(532,1454,l),
(442,1454,l)
);
}
);
};
layerId = "F859EBB1-02CE-49D6-A9DD-2E3CD13E297E";
shapes = (
{
ref = I;
},
{
pos = (183,1200);
ref = breveinvertedcomb;
}
);
width = 1184;
}
);
unicode = 522;
},
{
color = 10;
glyphname = Imacron;
lastChange = "2023-04-20 14:02:32 +0000";
layers = (
{
background = {
shapes = (
{
closed = 1;
nodes = (
(594,559,l),
(594,1174,l),
(358,1174,l),
(358,1280,l),
(936,1280,l),
(936,1174,l),
(701,1174,l),
(701,559,l),
(936,559,l),
(936,453,l),
(358,453,l),
(358,559,l)
);
},
{
closed = 1;
nodes = (
(438,1370,ls),
(168,1370,o),
(-4,1198,o),
(-4,989,cs),
(-4,381,ls),
(-4,172,o),
(168,0,o),
(438,0,cs),
(746,0,ls),
(1016,0,o),
(1188,172,o),
(1188,381,cs),
(1188,989,ls),
(1188,1198,o),
(1016,1370,o),
(746,1370,cs)
);
}
);
};
layerId = "F859EBB1-02CE-49D6-A9DD-2E3CD13E297E";
shapes = (
{
ref = I;
},
{
pos = (202,1200);
ref = macroncomb;
}
);
width = 1184;
}
);
unicode = 298;
},
{
color = 10;
glyphname = Iogonek;
lastChange = "2023-04-20 13:40:30 +0000";
layers = (
{
background = {
shapes = (
{
closed = 1;
nodes = (
(438,1370,ls),
(168,1370,o),
(-4,1198,o),
(-4,989,cs),
(-4,381,ls),
(-4,172,o),
(168,0,o),
(438,0,cs),
(746,0,ls),
(1016,0,o),
(1188,172,o),
(1188,381,cs),
(1188,989,ls),
(1188,1198,o),
(1016,1370,o),
(746,1370,cs)
);
},
{
closed = 1;
nodes = (
(594,559,l),
(594,1174,l),
(358,1174,l),
(358,1280,l),
(936,1280,l),
(936,1174,l),
(701,1174,l),
(701,559,l),
(936,559,l),
(936,453,l),
(932,453,l),
(821,326,l),
(811,291,l),
(825,231,l),
(936,221,l),
(936,131,l),
(793,143,l),
(733,203,l),
(721,281,l),
(733,356,l),
(791,414,l),
(862,453,l),
(358,453,l),
(358,559,l)
);
}
);
};
layerId = "F859EBB1-02CE-49D6-A9DD-2E3CD13E297E";
shapes = (
{
closed = 1;
nodes = (
(746,0,ls),
(1016,0,o),
(1188,172,o),
(1188,381,cs),
(1188,989,ls),
(1188,1198,o),
(1016,1370,o),
(746,1370,cs),
(438,1370,ls),
(168,1370,o),
(-4,1198,o),
(-4,989,cs),
(-4,381,ls),
(-4,172,o),
(168,0,o),
(438,0,cs)
);
},
{
closed = 1;
nodes = (
(793,143,l),
(733,203,l),
(721,281,l),
(733,356,l),
(791,414,l),
(862,453,l),
(358,453,l),
(358,559,l),
(594,559,l),
(594,1174,l),
(358,1174,l),
(358,1280,l),
(936,1280,l),
(936,1174,l),
(701,1174,l),
(701,559,l),
(936,559,l),
(936,453,l),
(932,453,l),
(821,326,l),
(811,291,l),
(825,231,l),
(936,221,l),
(936,131,l)
);
}
);
width = 1184;
}
);
unicode = 302;
},
{
color = 10;
glyphname = Itilde;
lastChange = "2023-04-20 14:02:32 +0000";
layers = (
{
background = {
shapes = (
{
closed = 1;
nodes = (
(594,559,l),
(594,1174,l),
(358,1174,l),
(358,1280,l),
(936,1280,l),
(936,1174,l),
(701,1174,l),
(701,559,l),
(936,559,l),
(936,453,l),
(358,453,l),
(358,559,l)
);
},
{
closed = 1;
nodes = (
(438,1370,ls),
(168,1370,o),
(-4,1198,o),
(-4,989,cs),
(-4,381,ls),
(-4,172,o),
(168,0,o),
(438,0,cs),
(746,0,ls),
(1016,0,o),
(1188,172,o),
(1188,381,cs),
(1188,989,ls),
(1188,1198,o),
(1016,1370,o),
(746,1370,cs)
);
},
{
closed = 1;
nodes = (
(963,1311,l),
(1047,1383,o),
(1094,1481,o),
(1094,1590,cs),
(1094,1798,o),
(922,1970,o),
(651,1970,cs),
(381,1970,o),
(209,1798,o),
(209,1590,cs),
(209,1477,o),
(254,1383,o),
(342,1311,c)
);
},
{
closed = 1;
nodes = (
(648,1430,o),
(587,1501,o),
(547,1501,cs),
(528,1501,o),
(515,1485,o),
(504,1434,c),
(414,1434,l),
(414,1446,ls),
(414,1483,o),
(420,1583,o),
(498,1583,cs),
(637,1583,o),
(687,1518,o),
(719,1518,cs),
(738,1518,o),
(749,1534,o),
(768,1594,c),
(858,1594,l),
(858,1561,ls),
(858,1512,o),
(850,1430,o),
(774,1430,cs)
);
}
);
};
layerId = "F859EBB1-02CE-49D6-A9DD-2E3CD13E297E";
shapes = (
{
ref = I;
},
{
pos = (207,1220);
ref = tildecomb;
}
);
width = 1184;
}
);
unicode = 296;
},
{
color = 6;
glyphname = J;
lastChange = "2023-04-20 14:01:11 +0000";
layers = (
{
anchors = (
{
name = bottom;
pos = (592,0);
},
{
name = top;
pos = (702,1370);
}
);
background = {
shapes = (
{
closed = 1;
nodes = (
(438,1370,ls),
(168,1370,o),
(-4,1198,o),
(-4,989,cs),
(-4,381,ls),
(-4,172,o),
(168,0,o),
(438,0,cs),
(746,0,ls),
(1016,0,o),
(1188,172,o),
(1188,381,cs),
(1188,989,ls),
(1188,1198,o),
(1016,1370,o),
(746,1370,cs)
);
},
{
closed = 1;
nodes = (
(787,1280,l),
(787,528,l),
(709,467,l),
(608,453,l),
(453,453,l),
(453,559,l),
(602,559,l),
(668,571,l),
(682,631,l),
(682,1280,l)
);
}
);
};
layerId = "F859EBB1-02CE-49D6-A9DD-2E3CD13E297E";
shapes = (
{
closed = 1;
nodes = (
(746,0,ls),
(1016,0,o),
(1188,172,o),
(1188,381,cs),
(1188,989,ls),
(1188,1198,o),
(1016,1370,o),
(746,1370,cs),
(438,1370,ls),
(168,1370,o),
(-4,1198,o),
(-4,989,cs),
(-4,381,ls),
(-4,172,o),
(168,0,o),
(438,0,cs)
);
},
{
closed = 1;
nodes = (
(453,559,l),
(602,559,l),
(668,571,l),
(682,631,l),
(682,1280,l),
(787,1280,l),
(787,528,l),
(709,467,l),
(608,453,l),
(453,453,l)
);
}
);
width = 1184;
}
);
unicode = 74;
},
{
color = 10;
glyphname = Jcircumflex;
lastChange = "2023-04-20 14:02:32 +0000";
layers = (
{
background = {
shapes = (
{
closed = 1;
nodes = (
(438,1370,ls),
(168,1370,o),
(-4,1198,o),
(-4,989,cs),
(-4,381,ls),
(-4,172,o),
(168,0,o),
(438,0,cs),
(746,0,ls),
(1016,0,o),
(1188,172,o),
(1188,381,cs),
(1188,989,ls),
(1188,1198,o),
(1016,1370,o),
(746,1370,cs)
);
},
{
closed = 1;
nodes = (
(787,1280,l),
(787,528,l),
(709,467,l),
(608,453,l),
(453,453,l),
(453,559,l),
(602,559,l),
(668,571,l),
(682,631,l),
(682,1280,l)
);
},
{
closed = 1;
nodes = (
(932,1305,l),
(978,1341,o),
(1001,1393,o),
(1001,1461,cs),
(1001,1513,o),
(963,1611,o),
(928,1700,cs),
(907,1751,o),
(883,1805,o),
(856,1862,cs),
(808,1961,o),
(749,1995,o),
(637,1995,cs),
(525,1995,o),
(463,1961,o),
(424,1893,c),
(352,1738,o),
(264,1547,o),
(264,1450,cs),
(264,1394,o),
(284,1340,o),
(325,1305,c)
);
},
{
closed = 1;
nodes = (
(538,1461,l),
(457,1461,l),
(588,1799,l),
(678,1799,l),
(809,1461,l),
(727,1461,l),
(633,1753,l)
);
}
);
};
layerId = "F859EBB1-02CE-49D6-A9DD-2E3CD13E297E";
shapes = (
{
ref = J;
},
{
pos = (367,1200);
ref = circumflexcomb;
}
);
width = 1184;
}
);
unicode = 308;
},
{
color = 6;
glyphname = K;
lastChange = "2023-04-20 13:24:50 +0000";
layers = (
{
anchors = (
{
name = bottom;
pos = (592,0);
},
{
name = top;
pos = (592,1370);
}
);
background = {
shapes = (
{
closed = 1;
nodes = (
(985,508,l),
(899,434,l),
(572,817,l),
(551,798,o),
(537,785,o),
(514,766,c),
(514,453,l),
(408,453,l),
(408,1280,l),
(514,1280,l),
(514,901,l),
(926,1309,l),
(998,1225,l),
(654,885,l)
);
},
{
closed = 1;
nodes = (
(438,1370,ls),
(168,1370,o),
(-4,1198,o),
(-4,989,cs),
(-4,381,ls),
(-4,172,o),
(168,0,o),
(438,0,cs),
(746,0,ls),
(1016,0,o),
(1188,172,o),
(1188,381,cs),
(1188,989,ls),
(1188,1198,o),
(1016,1370,o),
(746,1370,cs)
);
}
);
};
layerId = "F859EBB1-02CE-49D6-A9DD-2E3CD13E297E";
shapes = (
{
closed = 1;
nodes = (
(746,0,ls),
(1016,0,o),
(1188,172,o),
(1188,381,cs),
(1188,989,ls),
(1188,1198,o),
(1016,1370,o),
(746,1370,cs),
(438,1370,ls),
(168,1370,o),
(-4,1198,o),
(-4,989,cs),
(-4,381,ls),
(-4,172,o),
(168,0,o),
(438,0,cs)
);
},
{
closed = 1;
nodes = (
(572,817,l),
(514,766,l),
(514,453,l),
(408,453,l),
(408,1280,l),
(514,1280,l),
(514,901,l),
(926,1309,l),
(998,1225,l),
(654,885,l),
(985,508,l),
(899,434,l)
);
}
);
width = 1184;
}
);
unicode = 75;
},
{
color = 6;
glyphname = Kcommaaccent;
lastChange = "2023-04-20 13:24:50 +0000";
layers = (
{
background = {
shapes = (
{
closed = 1;
nodes = (
(602,147,l),
(641,248,l),
(576,248,l),
(576,377,l),
(727,377,l),
(727,248,l),
(666,119,l)
);
},
{
closed = 1;
nodes = (
(985,508,l),
(899,434,l),
(572,817,l),
(551,798,o),
(537,785,o),
(514,766,c),
(514,453,l),
(408,453,l),
(408,1280,l),
(514,1280,l),
(514,901,l),
(926,1309,l),
(998,1225,l),
(654,885,l)
);
},
{
closed = 1;
nodes = (
(438,1370,ls),
(168,1370,o),
(-4,1198,o),
(-4,989,cs),
(-4,381,ls),
(-4,172,o),
(168,0,o),
(438,0,cs),
(746,0,ls),
(1016,0,o),
(1188,172,o),
(1188,381,cs),
(1188,989,ls),
(1188,1198,o),
(1016,1370,o),
(746,1370,cs)
);
}
);
};
layerId = "F859EBB1-02CE-49D6-A9DD-2E3CD13E297E";
shapes = (
{
closed = 1;
nodes = (
(746,0,ls),
(1016,0,o),
(1188,172,o),
(1188,381,cs),
(1188,989,ls),
(1188,1198,o),
(1016,1370,o),
(746,1370,cs),
(438,1370,ls),
(168,1370,o),
(-4,1198,o),
(-4,989,cs),
(-4,381,ls),
(-4,172,o),
(168,0,o),
(438,0,cs)
);
},
{
closed = 1;
nodes = (
(602,147,l),
(641,248,l),
(576,248,l),
(576,377,l),
(727,377,l),
(727,248,l),
(666,119,l)
);
},
{
closed = 1;
nodes = (
(572,817,l),
(514,766,l),
(514,453,l),
(408,453,l),
(408,1280,l),
(514,1280,l),
(514,901,l),
(926,1309,l),
(998,1225,l),
(654,885,l),
(985,508,l),
(899,434,l)
);
}
);
width = 1184;
}
);
unicode = 310;
},
{
color = 6;
glyphname = L;
lastChange = "2023-04-20 13:38:24 +0000";
layers = (
{
anchors = (
{
name = bottom;
pos = (592,0);
},
{
name = center;
pos = (592,685);
},
{
name = top;
pos = (484,1370);
},
{
name = topright;
pos = (1164,1370);
}
);
background = {
shapes = (
{
closed = 1;
nodes = (
(862,453,l),
(449,453,l),
(449,1280,l),
(555,1280,l),
(555,559,l),
(862,559,l)
);
},
{
closed = 1;
nodes = (
(438,1370,ls),
(168,1370,o),
(-4,1198,o),
(-4,989,cs),
(-4,381,ls),
(-4,172,o),
(168,0,o),
(438,0,cs),
(746,0,ls),
(1016,0,o),
(1188,172,o),
(1188,381,cs),
(1188,989,ls),
(1188,1198,o),
(1016,1370,o),
(746,1370,cs)
);
}
);
};
layerId = "F859EBB1-02CE-49D6-A9DD-2E3CD13E297E";
shapes = (
{
closed = 1;
nodes = (
(746,0,ls),
(1016,0,o),
(1188,172,o),
(1188,381,cs),
(1188,989,ls),
(1188,1198,o),
(1016,1370,o),
(746,1370,cs),
(438,1370,ls),
(168,1370,o),
(-4,1198,o),
(-4,989,cs),
(-4,381,ls),
(-4,172,o),
(168,0,o),
(438,0,cs)
);
},
{
closed = 1;
nodes = (
(449,1280,l),
(555,1280,l),
(555,559,l),
(862,559,l),
(862,453,l),
(449,453,l)
);
}
);
width = 1184;
}
);
unicode = 76;
},
{
color = 10;
glyphname = Lacute;
lastChange = "2023-04-20 14:02:32 +0000";
layers = (
{
background = {
shapes = (
{
closed = 1;
nodes = (
(862,453,l),
(449,453,l),
(449,1280,l),
(555,1280,l),
(555,559,l),
(862,559,l)
);
},
{
closed = 1;
nodes = (
(438,1370,ls),
(168,1370,o),
(-4,1198,o),
(-4,989,cs),
(-4,381,ls),
(-4,172,o),
(168,0,o),
(438,0,cs),
(746,0,ls),
(1016,0,o),
(1188,172,o),
(1188,381,cs),
(1188,989,ls),
(1188,1198,o),
(1016,1370,o),
(746,1370,cs)
);
},
{
closed = 1;
nodes = (
(667,1319,l),
(682,1334,o),
(694,1353,o),
(710,1380,cs),
(868,1650,ls),
(898,1701,o),
(911,1746,o),
(911,1783,cs),
(911,1914,o),
(765,1984,o),
(616,1984,cs),
(503,1984,o),
(408,1955,o),
(376,1871,c),
(283,1586,o),
(272,1516,o),
(272,1489,cs),
(272,1409,o),
(331,1346,o),
(393,1319,c)
);
},
{
closed = 1;
nodes = (
(540,1476,l),
(471,1476,l),
(571,1810,l),
(692,1810,l)
);
}
);
};
layerId = "F859EBB1-02CE-49D6-A9DD-2E3CD13E297E";
shapes = (
{
ref = L;
},
{
pos = (288,1200);
ref = acutecomb;
}
);
width = 1184;
}
);
unicode = 313;
},
{
color = 0;
glyphname = Lcaron;
lastChange = "2023-04-20 13:24:50 +0000";
layers = (
{
background = {
shapes = (
{
closed = 1;
nodes = (
(717,1051,l),
(756,1151,l),
(690,1151,l),
(690,1280,l),
(842,1280,l),
(842,1151,l),
(780,1022,l)
);
},
{
closed = 1;
nodes = (
(862,453,l),
(449,453,l),
(449,1280,l),
(555,1280,l),
(555,559,l),
(862,559,l)
);
},
{
closed = 1;
nodes = (
(438,1370,ls),
(168,1370,o),
(-4,1198,o),
(-4,989,cs),
(-4,381,ls),
(-4,172,o),
(168,0,o),
(438,0,cs),
(746,0,ls),
(1016,0,o),
(1188,172,o),
(1188,381,cs),
(1188,989,ls),
(1188,1198,o),
(1016,1370,o),
(746,1370,cs)
);
}
);
};
layerId = "F859EBB1-02CE-49D6-A9DD-2E3CD13E297E";
shapes = (
{
closed = 1;
nodes = (
(746,0,ls),
(1016,0,o),
(1188,172,o),
(1188,381,cs),
(1188,989,ls),
(1188,1198,o),
(1016,1370,o),
(746,1370,cs),
(438,1370,ls),
(168,1370,o),
(-4,1198,o),
(-4,989,cs),
(-4,381,ls),
(-4,172,o),
(168,0,o),
(438,0,cs)
);
},
{
closed = 1;
nodes = (
(449,1280,l),
(555,1280,l),
(555,559,l),
(862,559,l),
(862,453,l),
(449,453,l)
);
},
{
closed = 1;
nodes = (
(717,1051,l),
(756,1151,l),
(690,1151,l),
(690,1280,l),
(842,1280,l),
(842,1151,l),
(780,1022,l)
);
}
);
width = 1184;
}
);
unicode = 317;
},
{
color = 6;
glyphname = Lcommaaccent;
lastChange = "2023-04-20 13:24:50 +0000";
layers = (
{
background = {
shapes = (
{
closed = 1;
nodes = (
(602,147,l),
(641,248,l),
(576,248,l),
(576,377,l),
(727,377,l),
(727,248,l),
(666,119,l)
);
},
{
closed = 1;
nodes = (
(862,453,l),
(449,453,l),
(449,1280,l),
(555,1280,l),
(555,559,l),
(862,559,l)
);
},
{
closed = 1;
nodes = (
(438,1370,ls),
(168,1370,o),
(-4,1198,o),
(-4,989,cs),
(-4,381,ls),
(-4,172,o),
(168,0,o),
(438,0,cs),
(746,0,ls),
(1016,0,o),
(1188,172,o),
(1188,381,cs),
(1188,989,ls),
(1188,1198,o),
(1016,1370,o),
(746,1370,cs)
);
}
);
};
layerId = "F859EBB1-02CE-49D6-A9DD-2E3CD13E297E";
shapes = (
{
closed = 1;
nodes = (
(746,0,ls),
(1016,0,o),
(1188,172,o),
(1188,381,cs),
(1188,989,ls),
(1188,1198,o),
(1016,1370,o),
(746,1370,cs),
(438,1370,ls),
(168,1370,o),
(-4,1198,o),
(-4,989,cs),
(-4,381,ls),
(-4,172,o),
(168,0,o),
(438,0,cs)
);
},
{
closed = 1;
nodes = (
(602,147,l),
(641,248,l),
(576,248,l),
(576,377,l),
(727,377,l),
(727,248,l),
(666,119,l)
);
},
{
closed = 1;
nodes = (
(449,1280,l),
(555,1280,l),
(555,559,l),
(862,559,l),
(862,453,l),
(449,453,l)
);
}
);
width = 1184;
}
);
unicode = 315;
},
{
color = 6;
glyphname = Ldot;
lastChange = "2023-04-20 13:24:50 +0000";
layers = (
{
background = {
shapes = (
{
closed = 1;
nodes = (
(647,897,l),
(647,1026,l),
(778,1026,l),
(778,897,l)
);
},
{
closed = 1;
nodes = (
(862,453,l),
(449,453,l),
(449,1280,l),
(555,1280,l),
(555,559,l),
(862,559,l)
);
},
{
closed = 1;
nodes = (
(438,1370,ls),
(168,1370,o),
(-4,1198,o),
(-4,989,cs),
(-4,381,ls),
(-4,172,o),
(168,0,o),
(438,0,cs),
(746,0,ls),
(1016,0,o),
(1188,172,o),
(1188,381,cs),
(1188,989,ls),
(1188,1198,o),
(1016,1370,o),
(746,1370,cs)
);
}
);
};
layerId = "F859EBB1-02CE-49D6-A9DD-2E3CD13E297E";
shapes = (
{
closed = 1;
nodes = (
(746,0,ls),
(1016,0,o),
(1188,172,o),
(1188,381,cs),
(1188,989,ls),
(1188,1198,o),
(1016,1370,o),
(746,1370,cs),
(438,1370,ls),
(168,1370,o),
(-4,1198,o),
(-4,989,cs),
(-4,381,ls),
(-4,172,o),
(168,0,o),
(438,0,cs)
);
},
{
closed = 1;
nodes = (
(449,1280,l),
(555,1280,l),
(555,559,l),
(862,559,l),
(862,453,l),
(449,453,l)
);
},
{
closed = 1;
nodes = (
(706,1026,l),
(837,1026,l),
(837,897,l),
(706,897,l)
);
}
);
width = 1184;
}
);
unicode = 319;
},
{
color = 6;
glyphname = Lslash;
lastChange = "2023-04-20 13:24:50 +0000";
layers = (
{
background = {
shapes = (
{
closed = 1;
nodes = (
(862,453,l),
(449,453,l),
(449,834,l),
(356,782,l),
(324,840,l),
(449,909,l),
(449,1280,l),
(555,1280,l),
(555,971,l),
(647,1024,l),
(680,967,l),
(555,895,l),
(555,559,l),
(862,559,l)
);
},
{
closed = 1;
nodes = (
(438,1370,ls),
(168,1370,o),
(-4,1198,o),
(-4,989,cs),
(-4,381,ls),
(-4,172,o),
(168,0,o),
(438,0,cs),
(746,0,ls),
(1016,0,o),
(1188,172,o),
(1188,381,cs),
(1188,989,ls),
(1188,1198,o),
(1016,1370,o),
(746,1370,cs)
);
}
);
};
layerId = "F859EBB1-02CE-49D6-A9DD-2E3CD13E297E";
shapes = (
{
closed = 1;
nodes = (
(746,0,ls),
(1016,0,o),
(1188,172,o),
(1188,381,cs),
(1188,989,ls),
(1188,1198,o),
(1016,1370,o),
(746,1370,cs),
(438,1370,ls),
(168,1370,o),
(-4,1198,o),
(-4,989,cs),
(-4,381,ls),
(-4,172,o),
(168,0,o),
(438,0,cs)
);
},
{
closed = 1;
nodes = (
(449,834,l),
(356,782,l),
(324,840,l),
(449,909,l),
(449,1280,l),
(555,1280,l),
(555,971,l),
(647,1024,l),
(680,967,l),
(555,895,l),
(555,559,l),
(862,559,l),
(862,453,l),
(449,453,l)
);
}
);
width = 1184;
}
);
unicode = 321;
},
{
color = 6;
glyphname = M;
lastChange = "2023-04-20 13:24:50 +0000";
layers = (
{
anchors = (
{
name = bottom;
pos = (592,0);
},
{
name = top;
pos = (592,1370);
}
);
background = {
shapes = (
{
closed = 1;
nodes = (
(438,1370,ls),
(168,1370,o),
(-4,1198,o),
(-4,989,cs),
(-4,381,ls),
(-4,172,o),
(168,0,o),
(438,0,cs),
(746,0,ls),
(1016,0,o),
(1188,172,o),
(1188,381,cs),
(1188,989,ls),
(1188,1198,o),
(1016,1370,o),
(746,1370,cs)
);
},
{
closed = 1;
nodes = (
(623,1195,l),
(657,1264,l),
(711,1280,l),
(842,1280,l),
(926,1266,l),
(989,1202,l),
(989,453,l),
(883,453,l),
(883,1165,l),
(866,1169,o),
(850,1169,o),
(834,1174,c),
(719,1174,l),
(676,1165,l),
(676,741,l),
(569,741,l),
(569,1165,l),
(554,1169,o),
(541,1169,o),
(526,1174,c),
(412,1174,l),
(395,1169,o),
(382,1169,o),
(363,1165,c),
(363,453,l),
(256,453,l),
(256,1202,l),
(320,1266,l),
(404,1280,l),
(535,1280,l),
(590,1264,l)
);
}
);
};
layerId = "F859EBB1-02CE-49D6-A9DD-2E3CD13E297E";
shapes = (
{
closed = 1;
nodes = (
(746,0,ls),
(1016,0,o),
(1188,172,o),
(1188,381,cs),
(1188,989,ls),
(1188,1198,o),
(1016,1370,o),
(746,1370,cs),
(438,1370,ls),
(168,1370,o),
(-4,1198,o),
(-4,989,cs),
(-4,381,ls),
(-4,172,o),
(168,0,o),
(438,0,cs)
);
},
{
closed = 1;
nodes = (
(256,1202,l),
(320,1266,l),
(404,1280,l),
(535,1280,l),
(590,1264,l),
(623,1195,l),
(657,1264,l),
(711,1280,l),
(842,1280,l),
(926,1266,l),
(989,1202,l),
(989,453,l),
(883,453,l),
(883,1165,l),
(834,1174,l),
(719,1174,l),
(676,1165,l),
(676,741,l),
(569,741,l),
(569,1165,l),
(526,1174,l),
(412,1174,l),
(363,1165,l),
(363,453,l),
(256,453,l)
);
}
);
width = 1184;
}
);
unicode = 77;
},
{
color = 10;
glyphname = N;
lastChange = "2023-04-20 13:30:14 +0000";
layers = (
{
background = {
shapes = (
{
closed = 1;
nodes = (
(932,453,l),
(825,453,l),
(825,1106,l),
(815,1165,l),
(746,1176,l),
(506,1176,l),
(428,1163,l),
(428,453,l),
(322,453,l),
(322,1255,l),
(502,1280,l),
(752,1280,l),
(854,1268,l),
(918,1204,l),
(932,1120,l)
);
},
{
closed = 1;
nodes = (
(438,1370,ls),
(168,1370,o),
(-4,1198,o),
(-4,989,cs),
(-4,381,ls),
(-4,172,o),
(168,0,o),
(438,0,cs),
(746,0,ls),
(1016,0,o),
(1188,172,o),
(1188,381,cs),
(1188,989,ls),
(1188,1198,o),
(1016,1370,o),
(746,1370,cs)
);
}
);
};
layerId = "F859EBB1-02CE-49D6-A9DD-2E3CD13E297E";
shapes = (
{
alignment = -1;
ref = n;
}
);
width = 1184;
}
);
unicode = 78;
},
{
color = 10;
glyphname = Nacute;
lastChange = "2023-04-20 14:02:32 +0000";
layers = (
{
background = {
shapes = (
{
closed = 1;
nodes = (
(932,453,l),
(825,453,l),
(825,1106,l),
(815,1165,l),
(746,1176,l),
(506,1176,l),
(428,1163,l),
(428,453,l),
(322,453,l),
(322,1255,l),
(502,1280,l),
(752,1280,l),
(854,1268,l),
(918,1204,l),
(932,1120,l)
);
},
{
closed = 1;
nodes = (
(438,1370,ls),
(168,1370,o),
(-4,1198,o),
(-4,989,cs),
(-4,381,ls),
(-4,172,o),
(168,0,o),
(438,0,cs),
(746,0,ls),
(1016,0,o),
(1188,172,o),
(1188,381,cs),
(1188,989,ls),
(1188,1198,o),
(1016,1370,o),
(746,1370,cs)
);
},
{
closed = 1;
nodes = (
(753,1309,l),
(768,1324,o),
(780,1343,o),
(796,1370,cs),
(954,1640,ls),
(984,1691,o),
(997,1736,o),
(997,1773,cs),
(997,1904,o),
(851,1974,o),
(702,1974,cs),
(589,1974,o),
(494,1945,o),
(462,1861,c),
(369,1576,o),
(358,1506,o),
(358,1479,cs),
(358,1399,o),
(417,1336,o),
(479,1309,c)
);
},
{
closed = 1;
nodes = (
(626,1466,l),
(557,1466,l),
(657,1800,l),
(778,1800,l)
);
}
);
};
layerId = "F859EBB1-02CE-49D6-A9DD-2E3CD13E297E";
shapes = (
{
ref = N;
},
{
pos = (396,1200);
ref = acutecomb;
}
);
width = 1184;
}
);
unicode = 323;
},
{
color = 10;
glyphname = Ncaron;
lastChange = "2023-04-20 14:02:32 +0000";
layers = (
{
background = {
shapes = (
{
closed = 1;
nodes = (
(932,453,l),
(825,453,l),
(825,1106,l),
(815,1165,l),
(746,1176,l),
(506,1176,l),
(428,1163,l),
(428,453,l),
(322,453,l),
(322,1255,l),
(502,1280,l),
(752,1280,l),
(854,1268,l),
(918,1204,l),
(932,1120,l)
);
},
{
closed = 1;
nodes = (
(438,1370,ls),
(168,1370,o),
(-4,1198,o),
(-4,989,cs),
(-4,381,ls),
(-4,172,o),
(168,0,o),
(438,0,cs),
(746,0,ls),
(1016,0,o),
(1188,172,o),
(1188,381,cs),
(1188,989,ls),
(1188,1198,o),
(1016,1370,o),
(746,1370,cs)
);
},
{
closed = 1;
nodes = (
(559,1907,o),
(523,1930,o),
(456,1930,cs),
(284,1930,o),
(223,1838,o),
(223,1743,cs),
(223,1647,o),
(285,1458,o),
(342,1301,c),
(844,1301,l),
(892,1417,o),
(960,1625,o),
(960,1733,cs),
(960,1841,o),
(901,1932,o),
(753,1932,cs),
(681,1932,o),
(635,1909,o),
(594,1872,c)
);
},
{
closed = 1;
nodes = (
(592,1461,l),
(686,1754,l),
(768,1754,l),
(637,1416,l),
(547,1416,l),
(416,1754,l),
(497,1754,l)
);
}
);
};
layerId = "F859EBB1-02CE-49D6-A9DD-2E3CD13E297E";
shapes = (
{
ref = N;
},
{
pos = (267,1240);
ref = caroncomb;
}
);
width = 1184;
}
);
unicode = 327;
},
{
color = 6;
glyphname = Ncommaaccent;
lastChange = "2023-04-20 13:24:50 +0000";
layers = (
{
background = {
shapes = (
{
closed = 1;
nodes = (
(602,147,l),
(641,248,l),
(576,248,l),
(576,377,l),
(727,377,l),
(727,248,l),
(666,119,l)
);
},
{
closed = 1;
nodes = (
(932,453,l),
(825,453,l),
(825,1106,l),
(815,1165,l),
(746,1176,l),
(506,1176,l),
(428,1163,l),
(428,453,l),
(322,453,l),
(322,1255,l),
(502,1280,l),
(752,1280,l),
(854,1268,l),
(918,1204,l),
(932,1120,l)
);
},
{
closed = 1;
nodes = (
(438,1370,ls),
(168,1370,o),
(-4,1198,o),
(-4,989,cs),
(-4,381,ls),
(-4,172,o),
(168,0,o),
(438,0,cs),
(746,0,ls),
(1016,0,o),
(1188,172,o),
(1188,381,cs),
(1188,989,ls),
(1188,1198,o),
(1016,1370,o),
(746,1370,cs)
);
}
);
};
layerId = "F859EBB1-02CE-49D6-A9DD-2E3CD13E297E";
shapes = (
{
closed = 1;
nodes = (
(746,0,ls),
(1016,0,o),
(1188,172,o),
(1188,381,cs),
(1188,989,ls),
(1188,1198,o),
(1016,1370,o),
(746,1370,cs),
(438,1370,ls),
(168,1370,o),
(-4,1198,o),
(-4,989,cs),
(-4,381,ls),
(-4,172,o),
(168,0,o),
(438,0,cs)
);
},
{
closed = 1;
nodes = (
(602,147,l),
(641,248,l),
(576,248,l),
(576,377,l),
(727,377,l),
(727,248,l),
(666,119,l)
);
},
{
closed = 1;
nodes = (
(322,1255,l),
(502,1280,l),
(752,1280,l),
(854,1268,l),
(918,1204,l),
(932,1120,l),
(932,453,l),
(825,453,l),
(825,1106,l),
(815,1165,l),
(746,1176,l),
(506,1176,l),
(428,1163,l),
(428,453,l),
(322,453,l)
);
}
);
width = 1184;
}
);
unicode = 325;
},
{
color = 10;
glyphname = Ntilde;
lastChange = "2023-04-20 14:02:32 +0000";
layers = (
{
background = {
shapes = (
{
closed = 1;
nodes = (
(932,453,l),
(825,453,l),
(825,1106,l),
(815,1165,l),
(746,1176,l),
(506,1176,l),
(428,1163,l),
(428,453,l),
(322,453,l),
(322,1255,l),
(502,1280,l),
(752,1280,l),
(854,1268,l),
(918,1204,l),
(932,1120,l)
);
},
{
closed = 1;
nodes = (
(438,1370,ls),
(168,1370,o),
(-4,1198,o),
(-4,989,cs),
(-4,381,ls),
(-4,172,o),
(168,0,o),
(438,0,cs),
(746,0,ls),
(1016,0,o),
(1188,172,o),
(1188,381,cs),
(1188,989,ls),
(1188,1198,o),
(1016,1370,o),
(746,1370,cs)
);
},
{
closed = 1;
nodes = (
(914,1308,l),
(998,1380,o),
(1045,1478,o),
(1045,1587,cs),
(1045,1795,o),
(873,1967,o),
(602,1967,cs),
(332,1967,o),
(160,1795,o),
(160,1587,cs),
(160,1474,o),
(205,1380,o),
(293,1308,c)
);
},
{
closed = 1;
nodes = (
(599,1427,o),
(538,1498,o),
(498,1498,cs),
(479,1498,o),
(466,1482,o),
(455,1431,c),
(365,1431,l),
(365,1443,ls),
(365,1480,o),
(371,1580,o),
(449,1580,cs),
(588,1580,o),
(638,1515,o),
(670,1515,cs),
(689,1515,o),
(700,1531,o),
(719,1591,c),
(809,1591,l),
(809,1558,ls),
(809,1509,o),
(801,1427,o),
(725,1427,cs)
);
}
);
};
layerId = "F859EBB1-02CE-49D6-A9DD-2E3CD13E297E";
shapes = (
{
ref = N;
},
{
pos = (207,1220);
ref = tildecomb;
}
);
width = 1184;
}
);
unicode = 209;
},
{
color = 6;
glyphname = Eng;
lastChange = "2023-04-20 13:24:50 +0000";
layers = (
{
anchors = (
{
name = bottom;
pos = (592,0);
},
{
name = top;
pos = (592,1370);
}
);
background = {
shapes = (
{
closed = 1;
nodes = (
(932,1120,l),
(932,236,l),
(854,174,l),
(754,160,l),
(598,160,l),
(598,266,l),
(748,266,l),
(813,279,l),
(825,338,l),
(825,1106,l),
(815,1165,l),
(746,1176,l),
(506,1176,l),
(428,1163,l),
(428,453,l),
(322,453,l),
(322,1255,l),
(502,1280,l),
(752,1280,l),
(854,1268,l),
(918,1204,l)
);
},
{
closed = 1;
nodes = (
(438,1370,ls),
(168,1370,o),
(-4,1198,o),
(-4,989,cs),
(-4,381,ls),
(-4,172,o),
(168,0,o),
(438,0,cs),
(746,0,ls),
(1016,0,o),
(1188,172,o),
(1188,381,cs),
(1188,989,ls),
(1188,1198,o),
(1016,1370,o),
(746,1370,cs)
);
}
);
};
layerId = "F859EBB1-02CE-49D6-A9DD-2E3CD13E297E";
shapes = (
{
closed = 1;
nodes = (
(746,0,ls),
(1016,0,o),
(1188,172,o),
(1188,381,cs),
(1188,989,ls),
(1188,1198,o),
(1016,1370,o),
(746,1370,cs),
(438,1370,ls),
(168,1370,o),
(-4,1198,o),
(-4,989,cs),
(-4,381,ls),
(-4,172,o),
(168,0,o),
(438,0,cs)
);
},
{
closed = 1;
nodes = (
(598,266,l),
(748,266,l),
(813,279,l),
(825,338,l),
(825,1106,l),
(815,1165,l),
(746,1176,l),
(506,1176,l),
(428,1163,l),
(428,453,l),
(322,453,l),
(322,1255,l),
(502,1280,l),
(752,1280,l),
(854,1268,l),
(918,1204,l),
(932,1120,l),
(932,236,l),
(854,174,l),
(754,160,l),
(598,160,l)
);
}
);
width = 1184;
}
);
unicode = 330;
},
{
color = 6;
glyphname = O;
lastChange = "2023-04-20 13:24:50 +0000";
layers = (
{
anchors = (
{
name = bottom;
pos = (592,0);
},
{
name = center;
pos = (592,685);
},
{
name = ogonek;
pos = (1066,10);
},
{
name = top;
pos = (592,1370);
},
{
name = topleft;
pos = (20,1370);
},
{
name = topright;
pos = (1164,1370);
}
);
background = {
shapes = (
{
closed = 1;
nodes = (
(438,1370,ls),
(168,1370,o),
(-4,1198,o),
(-4,989,cs),
(-4,381,ls),
(-4,172,o),
(168,0,o),
(438,0,cs),
(746,0,ls),
(1016,0,o),
(1188,172,o),
(1188,381,cs),
(1188,989,ls),
(1188,1198,o),
(1016,1370,o),
(746,1370,cs)
);
},
{
closed = 1;
nodes = (
(952,614,l),
(938,528,l),
(875,465,l),
(772,453,l),
(504,453,l),
(404,465,l),
(338,528,l),
(326,614,l),
(326,1118,l),
(338,1202,l),
(402,1266,l),
(504,1280,l),
(772,1280,l),
(875,1266,l),
(938,1202,l),
(952,1118,l)
);
},
{
closed = 1;
nodes = (
(846,625,l),
(846,1104,l),
(836,1163,l),
(766,1174,l),
(510,1174,l),
(440,1163,l),
(430,1108,l),
(430,629,l),
(445,569,l),
(510,559,l),
(766,559,l),
(832,569,l)
);
}
);
};
layerId = "F859EBB1-02CE-49D6-A9DD-2E3CD13E297E";
shapes = (
{
closed = 1;
nodes = (
(746,0,ls),
(1016,0,o),
(1188,172,o),
(1188,381,cs),
(1188,989,ls),
(1188,1198,o),
(1016,1370,o),
(746,1370,cs),
(438,1370,ls),
(168,1370,o),
(-4,1198,o),
(-4,989,cs),
(-4,381,ls),
(-4,172,o),
(168,0,o),
(438,0,cs)
);
},
{
closed = 1;
nodes = (
(404,465,l),
(338,528,l),
(326,614,l),
(326,1118,l),
(338,1202,l),
(402,1266,l),
(504,1280,l),
(772,1280,l),
(875,1266,l),
(938,1202,l),
(952,1118,l),
(952,614,l),
(938,528,l),
(875,465,l),
(772,453,l),
(504,453,l)
);
},
{
closed = 1;
nodes = (
(766,559,l),
(832,569,l),
(846,625,l),
(846,1104,l),
(836,1163,l),
(766,1174,l),
(510,1174,l),
(440,1163,l),
(430,1108,l),
(430,629,l),
(445,569,l),
(510,559,l)
);
}
);
width = 1184;
}
);
unicode = 79;
},
{
color = 10;
glyphname = Oacute;
lastChange = "2023-04-20 14:02:32 +0000";
layers = (
{
background = {
shapes = (
{
closed = 1;
nodes = (
(438,1370,ls),
(168,1370,o),
(-4,1198,o),
(-4,989,cs),
(-4,381,ls),
(-4,172,o),
(168,0,o),
(438,0,cs),
(746,0,ls),
(1016,0,o),
(1188,172,o),
(1188,381,cs),
(1188,989,ls),
(1188,1198,o),
(1016,1370,o),
(746,1370,cs)
);
},
{
closed = 1;
nodes = (
(952,614,l),
(938,528,l),
(875,465,l),
(772,453,l),
(504,453,l),
(404,465,l),
(338,528,l),
(326,614,l),
(326,1118,l),
(338,1202,l),
(402,1266,l),
(504,1280,l),
(772,1280,l),
(875,1266,l),
(938,1202,l),
(952,1118,l)
);
},
{
closed = 1;
nodes = (
(846,625,l),
(846,1104,l),
(836,1163,l),
(766,1174,l),
(510,1174,l),
(440,1163,l),
(430,1108,l),
(430,629,l),
(445,569,l),
(510,559,l),
(766,559,l),
(832,569,l)
);
},
{
closed = 1;
nodes = (
(776,1293,l),
(791,1308,o),
(803,1327,o),
(819,1354,cs),
(977,1624,ls),
(1007,1675,o),
(1020,1720,o),
(1020,1757,cs),
(1020,1888,o),
(874,1958,o),
(725,1958,cs),
(612,1958,o),
(517,1929,o),
(485,1845,c),
(392,1560,o),
(381,1490,o),
(381,1463,cs),
(381,1383,o),
(440,1320,o),
(502,1293,c)
);
},
{
closed = 1;
nodes = (
(649,1450,l),
(580,1450,l),
(680,1784,l),
(801,1784,l)
);
}
);
};
layerId = "F859EBB1-02CE-49D6-A9DD-2E3CD13E297E";
shapes = (
{
ref = O;
},
{
pos = (396,1200);
ref = acutecomb;
}
);
width = 1184;
}
);
unicode = 211;
},
{
color = 10;
glyphname = Obreve;
lastChange = "2023-04-20 14:02:32 +0000";
layers = (
{
background = {
shapes = (
{
closed = 1;
nodes = (
(438,1370,ls),
(168,1370,o),
(-4,1198,o),
(-4,989,cs),
(-4,381,ls),
(-4,172,o),
(168,0,o),
(438,0,cs),
(746,0,ls),
(1016,0,o),
(1188,172,o),
(1188,381,cs),
(1188,989,ls),
(1188,1198,o),
(1016,1370,o),
(746,1370,cs)
);
},
{
closed = 1;
nodes = (
(952,614,l),
(938,528,l),
(875,465,l),
(772,453,l),
(504,453,l),
(404,465,l),
(338,528,l),
(326,614,l),
(326,1118,l),
(338,1202,l),
(402,1266,l),
(504,1280,l),
(772,1280,l),
(875,1266,l),
(938,1202,l),
(952,1118,l)
);
},
{
closed = 1;
nodes = (
(846,625,l),
(846,1104,l),
(836,1163,l),
(766,1174,l),
(510,1174,l),
(440,1163,l),
(430,1108,l),
(430,629,l),
(445,569,l),
(510,559,l),
(766,559,l),
(832,569,l)
);
},
{
closed = 1;
nodes = (
(906,1311,l),
(1018,1379,o),
(1080,1469,o),
(1080,1590,cs),
(1080,1763,o),
(908,1909,o),
(637,1909,cs),
(367,1909,o),
(195,1763,o),
(195,1590,cs),
(195,1469,o),
(256,1379,o),
(369,1311,c)
);
},
{
closed = 1;
nodes = (
(455,1610,l),
(545,1610,l),
(555,1540,l),
(611,1530,l),
(664,1530,l),
(723,1544,l),
(734,1610,l),
(824,1610,l),
(811,1512,l),
(752,1452,l),
(674,1440,l),
(603,1440,l),
(525,1452,l),
(467,1510,l)
);
}
);
};
layerId = "F859EBB1-02CE-49D6-A9DD-2E3CD13E297E";
shapes = (
{
ref = O;
},
{
pos = (200,1200);
ref = brevecomb;
}
);
width = 1184;
}
);
unicode = 334;
},
{
color = 10;
glyphname = Ocaron;
lastChange = "2023-04-20 14:02:32 +0000";
layers = (
{
background = {
shapes = (
{
closed = 1;
nodes = (
(438,1370,ls),
(168,1370,o),
(-4,1198,o),
(-4,989,cs),
(-4,381,ls),
(-4,172,o),
(168,0,o),
(438,0,cs),
(746,0,ls),
(1016,0,o),
(1188,172,o),
(1188,381,cs),
(1188,989,ls),
(1188,1198,o),
(1016,1370,o),
(746,1370,cs)
);
},
{
closed = 1;
nodes = (
(952,614,l),
(938,528,l),
(875,465,l),
(772,453,l),
(504,453,l),
(404,465,l),
(338,528,l),
(326,614,l),
(326,1118,l),
(338,1202,l),
(402,1266,l),
(504,1280,l),
(772,1280,l),
(875,1266,l),
(938,1202,l),
(952,1118,l)
);
},
{
closed = 1;
nodes = (
(846,625,l),
(846,1104,l),
(836,1163,l),
(766,1174,l),
(510,1174,l),
(440,1163,l),
(430,1108,l),
(430,629,l),
(445,569,l),
(510,559,l),
(766,559,l),
(832,569,l)
);
},
{
closed = 1;
nodes = (
(608,1917,o),
(572,1940,o),
(505,1940,cs),
(333,1940,o),
(272,1848,o),
(272,1753,cs),
(272,1657,o),
(334,1468,o),
(391,1311,c),
(893,1311,l),
(941,1427,o),
(1009,1635,o),
(1009,1743,cs),
(1009,1851,o),
(950,1942,o),
(802,1942,cs),
(730,1942,o),
(684,1919,o),
(643,1882,c)
);
},
{
closed = 1;
nodes = (
(641,1471,l),
(735,1764,l),
(817,1764,l),
(686,1426,l),
(596,1426,l),
(465,1764,l),
(546,1764,l)
);
}
);
};
layerId = "F859EBB1-02CE-49D6-A9DD-2E3CD13E297E";
shapes = (
{
ref = O;
},
{
pos = (267,1240);
ref = caroncomb;
}
);
width = 1184;
}
);
unicode = (465,466);
},
{
color = 10;
glyphname = Ocircumflex;
lastChange = "2023-04-20 14:02:32 +0000";
layers = (
{
background = {
shapes = (
{
closed = 1;
nodes = (
(438,1370,ls),
(168,1370,o),
(-4,1198,o),
(-4,989,cs),
(-4,381,ls),
(-4,172,o),
(168,0,o),
(438,0,cs),
(746,0,ls),
(1016,0,o),
(1188,172,o),
(1188,381,cs),
(1188,989,ls),
(1188,1198,o),
(1016,1370,o),
(746,1370,cs)
);
},
{
closed = 1;
nodes = (
(952,614,l),
(938,528,l),
(875,465,l),
(772,453,l),
(504,453,l),
(404,465,l),
(338,528,l),
(326,614,l),
(326,1118,l),
(338,1202,l),
(402,1266,l),
(504,1280,l),
(772,1280,l),
(875,1266,l),
(938,1202,l),
(952,1118,l)
);
},
{
closed = 1;
nodes = (
(846,625,l),
(846,1104,l),
(836,1163,l),
(766,1174,l),
(510,1174,l),
(440,1163,l),
(430,1108,l),
(430,629,l),
(445,569,l),
(510,559,l),
(766,559,l),
(832,569,l)
);
},
{
closed = 1;
nodes = (
(932,1311,l),
(978,1347,o),
(1001,1399,o),
(1001,1467,cs),
(1001,1519,o),
(963,1617,o),
(928,1706,cs),
(907,1757,o),
(883,1811,o),
(856,1868,cs),
(808,1967,o),
(749,2001,o),
(637,2001,cs),
(525,2001,o),
(463,1967,o),
(424,1899,c),
(352,1744,o),
(264,1553,o),
(264,1456,cs),
(264,1400,o),
(284,1346,o),
(325,1311,c)
);
},
{
closed = 1;
nodes = (
(538,1467,l),
(457,1467,l),
(588,1805,l),
(678,1805,l),
(809,1467,l),
(727,1467,l),
(633,1759,l)
);
}
);
};
layerId = "F859EBB1-02CE-49D6-A9DD-2E3CD13E297E";
shapes = (
{
ref = O;
},
{
pos = (257,1200);
ref = circumflexcomb;
}
);
width = 1184;
}
);
unicode = 212;
},
{
color = 10;
glyphname = Odblgrave;
lastChange = "2023-04-20 14:02:32 +0000";
layers = (
{
background = {
shapes = (
{
closed = 1;
nodes = (
(438,1370,ls),
(168,1370,o),
(-4,1198,o),
(-4,989,cs),
(-4,381,ls),
(-4,172,o),
(168,0,o),
(438,0,cs),
(746,0,ls),
(1016,0,o),
(1188,172,o),
(1188,381,cs),
(1188,989,ls),
(1188,1198,o),
(1016,1370,o),
(746,1370,cs)
);
},
{
closed = 1;
nodes = (
(952,614,l),
(938,528,l),
(875,465,l),
(772,453,l),
(504,453,l),
(404,465,l),
(338,528,l),
(326,614,l),
(326,1118,l),
(338,1202,l),
(402,1266,l),
(504,1280,l),
(772,1280,l),
(875,1266,l),
(938,1202,l),
(952,1118,l)
);
},
{
closed = 1;
nodes = (
(846,625,l),
(846,1104,l),
(836,1163,l),
(766,1174,l),
(510,1174,l),
(440,1163,l),
(430,1108,l),
(430,629,l),
(445,569,l),
(510,559,l),
(766,559,l),
(832,569,l)
);
},
{
closed = 1;
nodes = (
(907,1296,l),
(940,1331,o),
(954,1374,o),
(954,1431,cs),
(954,1450,o),
(952,1472,o),
(948,1495,c),
(768,1828,ls),
(714,1927,o),
(677,1951,o),
(565,1962,c),
(473,1962,l),
(457,1929,l),
(426,1948,o),
(390,1955,o),
(334,1962,c),
(242,1962,l),
(86,1671,l),
(338,1296,l)
);
},
{
closed = 1;
nodes = (
(489,1765,l),
(582,1765,l),
(762,1431,l),
(711,1431,l)
);
},
{
closed = 1;
nodes = (
(258,1765,l),
(350,1765,l),
(530,1431,l),
(479,1431,l)
);
}
);
};
layerId = "F859EBB1-02CE-49D6-A9DD-2E3CD13E297E";
shapes = (
{
ref = O;
},
{
pos = (92,1200);
ref = dblgravecomb;
}
);
width = 1184;
}
);
unicode = 524;
},
{
color = 10;
glyphname = Odieresis;
lastChange = "2023-04-20 14:02:32 +0000";
layers = (
{
background = {
shapes = (
{
closed = 1;
nodes = (
(438,1370,ls),
(168,1370,o),
(-4,1198,o),
(-4,989,cs),
(-4,381,ls),
(-4,172,o),
(168,0,o),
(438,0,cs),
(746,0,ls),
(1016,0,o),
(1188,172,o),
(1188,381,cs),
(1188,989,ls),
(1188,1198,o),
(1016,1370,o),
(746,1370,cs)
);
},
{
closed = 1;
nodes = (
(952,614,l),
(938,528,l),
(875,465,l),
(772,453,l),
(504,453,l),
(404,465,l),
(338,528,l),
(326,614,l),
(326,1118,l),
(338,1202,l),
(402,1266,l),
(504,1280,l),
(772,1280,l),
(875,1266,l),
(938,1202,l),
(952,1118,l)
);
},
{
closed = 1;
nodes = (
(846,625,l),
(846,1104,l),
(836,1163,l),
(766,1174,l),
(510,1174,l),
(440,1163,l),
(430,1108,l),
(430,629,l),
(445,569,l),
(510,559,l),
(766,559,l),
(832,569,l)
);
},
{
closed = 1;
nodes = (
(695,1479,l),
(695,1608,l),
(826,1608,l),
(826,1479,l)
);
},
{
closed = 1;
nodes = (
(904,1313,l),
(992,1370,o),
(1039,1458,o),
(1039,1563,cs),
(1039,1723,o),
(883,1862,o),
(637,1862,cs),
(392,1862,o),
(236,1723,o),
(236,1563,cs),
(236,1459,o),
(281,1370,o),
(369,1313,c)
);
},
{
closed = 1;
nodes = (
(433,1479,l),
(433,1608,l),
(564,1608,l),
(564,1479,l)
);
}
);
};
layerId = "F859EBB1-02CE-49D6-A9DD-2E3CD13E297E";
shapes = (
{
ref = O;
},
{
pos = (224,1220);
ref = dieresiscomb;
}
);
width = 1184;
}
);
unicode = 214;
},
{
color = 10;
glyphname = Ograve;
lastChange = "2023-04-20 14:02:32 +0000";
layers = (
{
background = {
shapes = (
{
closed = 1;
nodes = (
(438,1370,ls),
(168,1370,o),
(-4,1198,o),
(-4,989,cs),
(-4,381,ls),
(-4,172,o),
(168,0,o),
(438,0,cs),
(746,0,ls),
(1016,0,o),
(1188,172,o),
(1188,381,cs),
(1188,989,ls),
(1188,1198,o),
(1016,1370,o),
(746,1370,cs)
);
},
{
closed = 1;
nodes = (
(952,614,l),
(938,528,l),
(875,465,l),
(772,453,l),
(504,453,l),
(404,465,l),
(338,528,l),
(326,614,l),
(326,1118,l),
(338,1202,l),
(402,1266,l),
(504,1280,l),
(772,1280,l),
(875,1266,l),
(938,1202,l),
(952,1118,l)
);
},
{
closed = 1;
nodes = (
(846,625,l),
(846,1104,l),
(836,1163,l),
(766,1174,l),
(510,1174,l),
(440,1163,l),
(430,1108,l),
(430,629,l),
(445,569,l),
(510,559,l),
(766,559,l),
(832,569,l)
);
},
{
closed = 1;
nodes = (
(721,1293,l),
(783,1320,o),
(842,1383,o),
(842,1463,cs),
(842,1490,o),
(828,1560,o),
(738,1845,c),
(706,1929,o),
(611,1958,o),
(498,1958,cs),
(348,1958,o),
(203,1888,o),
(203,1757,c),
(202,1719,o),
(216,1675,o),
(246,1624,cs),
(404,1354,ls),
(420,1327,o),
(432,1308,o),
(447,1293,c)
);
},
{
closed = 1;
nodes = (
(422,1784,l),
(543,1784,l),
(643,1450,l),
(574,1450,l)
);
}
);
};
layerId = "F859EBB1-02CE-49D6-A9DD-2E3CD13E297E";
shapes = (
{
ref = O;
},
{
pos = (211,1200);
ref = gravecomb;
}
);
width = 1184;
}
);
unicode = 210;
},
{
color = 10;
glyphname = Ohungarumlaut;
lastChange = "2023-04-20 14:02:32 +0000";
layers = (
{
background = {
shapes = (
{
closed = 1;
nodes = (
(438,1370,ls),
(168,1370,o),
(-4,1198,o),
(-4,989,cs),
(-4,381,ls),
(-4,172,o),
(168,0,o),
(438,0,cs),
(746,0,ls),
(1016,0,o),
(1188,172,o),
(1188,381,cs),
(1188,989,ls),
(1188,1198,o),
(1016,1370,o),
(746,1370,cs)
);
},
{
closed = 1;
nodes = (
(952,614,l),
(938,528,l),
(875,465,l),
(772,453,l),
(504,453,l),
(404,465,l),
(338,528,l),
(326,614,l),
(326,1118,l),
(338,1202,l),
(402,1266,l),
(504,1280,l),
(772,1280,l),
(875,1266,l),
(938,1202,l),
(952,1118,l)
);
},
{
closed = 1;
nodes = (
(846,625,l),
(846,1104,l),
(836,1163,l),
(766,1174,l),
(510,1174,l),
(440,1163,l),
(430,1108,l),
(430,629,l),
(445,569,l),
(510,559,l),
(766,559,l),
(832,569,l)
);
},
{
closed = 1;
nodes = (
(936,1311,l),
(1188,1686,l),
(1033,1977,l),
(941,1977,l),
(885,1970,o),
(849,1963,o),
(818,1944,c),
(801,1977,l),
(709,1977,l),
(597,1966,o),
(559,1942,o),
(506,1843,cs),
(326,1510,l),
(322,1487,o),
(320,1465,o),
(320,1446,cs),
(320,1389,o),
(334,1346,o),
(367,1311,c)
);
},
{
closed = 1;
nodes = (
(564,1446,l),
(513,1446,l),
(693,1780,l),
(785,1780,l)
);
},
{
closed = 1;
nodes = (
(795,1446,l),
(744,1446,l),
(924,1780,l),
(1016,1780,l)
);
}
);
};
layerId = "F859EBB1-02CE-49D6-A9DD-2E3CD13E297E";
shapes = (
{
ref = O;
},
{
pos = (321,1200);
ref = hungarumlautcomb;
}
);
width = 1184;
}
);
unicode = 336;
},
{
color = 10;
glyphname = Oinvertedbreve;
lastChange = "2023-04-20 14:02:32 +0000";
layers = (
{
background = {
shapes = (
{
closed = 1;
nodes = (
(1067,1752,o),
(895,1898,o),
(624,1898,cs),
(354,1898,o),
(182,1752,o),
(182,1579,cs),
(182,1485,o),
(218,1410,o),
(287,1350,c),
(105,1299,o),
(-4,1155,o),
(-4,989,cs),
(-4,381,ls),
(-4,172,o),
(168,0,o),
(438,0,cs),
(746,0,ls),
(1016,0,o),
(1188,172,o),
(1188,381,cs),
(1188,989,ls),
(1188,1141,o),
(1097,1273,o),
(943,1334,c),
(1023,1397,o),
(1067,1477,o),
(1067,1579,cs)
);
},
{
closed = 1;
nodes = (
(952,614,l),
(938,528,l),
(875,465,l),
(772,453,l),
(504,453,l),
(404,465,l),
(338,528,l),
(326,614,l),
(326,1118,l),
(338,1202,l),
(402,1266,l),
(504,1280,l),
(772,1280,l),
(875,1266,l),
(938,1202,l),
(952,1118,l)
);
},
{
closed = 1;
nodes = (
(846,625,l),
(846,1104,l),
(836,1163,l),
(766,1174,l),
(510,1174,l),
(440,1163,l),
(430,1108,l),
(430,629,l),
(445,569,l),
(510,559,l),
(766,559,l),
(832,569,l)
);
},
{
closed = 1;
nodes = (
(454,1554,l),
(512,1611,l),
(590,1624,l),
(661,1624,l),
(739,1611,l),
(798,1552,l),
(811,1454,l),
(721,1454,l),
(710,1519,l),
(651,1533,l),
(598,1533,l),
(542,1523,l),
(532,1454,l),
(442,1454,l)
);
}
);
};
layerId = "F859EBB1-02CE-49D6-A9DD-2E3CD13E297E";
shapes = (
{
ref = O;
},
{
pos = (183,1200);
ref = breveinvertedcomb;
}
);
width = 1184;
}
);
unicode = 526;
},
{
color = 10;
glyphname = Omacron;
lastChange = "2023-04-20 14:02:32 +0000";
layers = (
{
background = {
shapes = (
{
closed = 1;
nodes = (
(438,1370,ls),
(168,1370,o),
(-4,1198,o),
(-4,989,cs),
(-4,381,ls),
(-4,172,o),
(168,0,o),
(438,0,cs),
(746,0,ls),
(1016,0,o),
(1188,172,o),
(1188,381,cs),
(1188,989,ls),
(1188,1198,o),
(1016,1370,o),
(746,1370,cs)
);
},
{
closed = 1;
nodes = (
(952,614,l),
(938,528,l),
(875,465,l),
(772,453,l),
(504,453,l),
(404,465,l),
(338,528,l),
(326,614,l),
(326,1118,l),
(338,1202,l),
(402,1266,l),
(504,1280,l),
(772,1280,l),
(875,1266,l),
(938,1202,l),
(952,1118,l)
);
},
{
closed = 1;
nodes = (
(846,625,l),
(846,1104,l),
(836,1163,l),
(766,1174,l),
(510,1174,l),
(440,1163,l),
(430,1108,l),
(430,629,l),
(445,569,l),
(510,559,l),
(766,559,l),
(832,569,l)
);
}
);
};
layerId = "F859EBB1-02CE-49D6-A9DD-2E3CD13E297E";
shapes = (
{
ref = O;
},
{
pos = (202,1200);
ref = macroncomb;
}
);
width = 1184;
}
);
unicode = 332;
},
{
color = 6;
glyphname = Oslash;
lastChange = "2023-04-20 13:24:50 +0000";
layers = (
{
anchors = (
{
name = bottom;
pos = (592,0);
},
{
name = top;
pos = (592,1370);
}
);
background = {
shapes = (
{
closed = 1;
nodes = (
(941,620,l),
(927,534,l),
(864,470,l),
(761,458,l),
(493,458,l),
(392,470,l),
(327,534,l),
(313,620,l),
(313,1120,l),
(327,1203,l),
(390,1267,l),
(493,1281,l),
(761,1281,l),
(864,1267,l),
(927,1203,l),
(941,1120,l)
);
},
{
closed = 1;
nodes = (
(419,640,l),
(773,1173,l),
(769,1173,o),
(761,1175,o),
(757,1175,cs),
(499,1175,l),
(429,1165,l),
(419,1109,l)
);
},
{
closed = 1;
nodes = (
(835,630,l),
(835,1109,l),
(485,567,l),
(488,567,o),
(491,565,o),
(495,565,cs),
(755,565,l),
(821,575,l)
);
},
{
closed = 1;
nodes = (
(438,1370,ls),
(168,1370,o),
(-4,1198,o),
(-4,989,cs),
(-4,381,ls),
(-4,172,o),
(168,0,o),
(438,0,cs),
(746,0,ls),
(1016,0,o),
(1188,172,o),
(1188,381,cs),
(1188,989,ls),
(1188,1198,o),
(1016,1370,o),
(746,1370,cs)
);
}
);
};
layerId = "F859EBB1-02CE-49D6-A9DD-2E3CD13E297E";
shapes = (
{
closed = 1;
nodes = (
(746,0,ls),
(1016,0,o),
(1188,172,o),
(1188,381,cs),
(1188,989,ls),
(1188,1198,o),
(1016,1370,o),
(746,1370,cs),
(438,1370,ls),
(168,1370,o),
(-4,1198,o),
(-4,989,cs),
(-4,381,ls),
(-4,172,o),
(168,0,o),
(438,0,cs)
);
},
{
closed = 1;
nodes = (
(392,470,l),
(327,534,l),
(313,620,l),
(313,1120,l),
(327,1203,l),
(390,1267,l),
(493,1281,l),
(761,1281,l),
(864,1267,l),
(927,1203,l),
(941,1120,l),
(941,620,l),
(927,534,l),
(864,470,l),
(761,458,l),
(493,458,l)
);
},
{
closed = 1;
nodes = (
(755,565,l),
(821,575,l),
(835,630,l),
(835,1109,l),
(485,567,l),
(488,567,o),
(491,565,o),
(495,565,cs)
);
},
{
closed = 1;
nodes = (
(773,1173,l),
(769,1173,o),
(761,1175,o),
(757,1175,cs),
(499,1175,l),
(429,1165,l),
(419,1109,l),
(419,640,l)
);
}
);
width = 1184;
}
);
unicode = 216;
},
{
color = 10;
glyphname = Otilde;
lastChange = "2023-04-20 14:02:32 +0000";
layers = (
{
background = {
shapes = (
{
closed = 1;
nodes = (
(438,1370,ls),
(168,1370,o),
(-4,1198,o),
(-4,989,cs),
(-4,381,ls),
(-4,172,o),
(168,0,o),
(438,0,cs),
(746,0,ls),
(1016,0,o),
(1188,172,o),
(1188,381,cs),
(1188,989,ls),
(1188,1198,o),
(1016,1370,o),
(746,1370,cs)
);
},
{
closed = 1;
nodes = (
(952,614,l),
(938,528,l),
(875,465,l),
(772,453,l),
(504,453,l),
(404,465,l),
(338,528,l),
(326,614,l),
(326,1118,l),
(338,1202,l),
(402,1266,l),
(504,1280,l),
(772,1280,l),
(875,1266,l),
(938,1202,l),
(952,1118,l)
);
},
{
closed = 1;
nodes = (
(846,625,l),
(846,1104,l),
(836,1163,l),
(766,1174,l),
(510,1174,l),
(440,1163,l),
(430,1108,l),
(430,629,l),
(445,569,l),
(510,559,l),
(766,559,l),
(832,569,l)
);
},
{
closed = 1;
nodes = (
(949,1311,l),
(1033,1383,o),
(1080,1481,o),
(1080,1590,cs),
(1080,1798,o),
(908,1970,o),
(637,1970,cs),
(367,1970,o),
(195,1798,o),
(195,1590,cs),
(195,1477,o),
(240,1383,o),
(328,1311,c)
);
},
{
closed = 1;
nodes = (
(634,1430,o),
(573,1501,o),
(533,1501,cs),
(514,1501,o),
(501,1485,o),
(490,1434,c),
(400,1434,l),
(400,1446,ls),
(400,1483,o),
(406,1583,o),
(484,1583,cs),
(623,1583,o),
(673,1518,o),
(705,1518,cs),
(724,1518,o),
(735,1534,o),
(754,1594,c),
(844,1594,l),
(844,1561,ls),
(844,1512,o),
(836,1430,o),
(760,1430,cs)
);
}
);
};
layerId = "F859EBB1-02CE-49D6-A9DD-2E3CD13E297E";
shapes = (
{
ref = O;
},
{
pos = (207,1220);
ref = tildecomb;
}
);
width = 1184;
}
);
unicode = 213;
},
{
color = 6;
glyphname = OE;
lastChange = "2023-04-20 13:24:50 +0000";
layers = (
{
anchors = (
{
name = bottom;
pos = (592,0);
},
{
name = top;
pos = (592,1370);
}
);
background = {
shapes = (
{
closed = 1;
nodes = (
(983,453,l),
(653,453,l),
(653,498,l),
(621,465,l),
(518,453,l),
(406,453,l),
(305,465,l),
(240,528,l),
(227,614,l),
(227,1118,l),
(240,1202,l),
(303,1266,l),
(406,1280,l),
(518,1280,l),
(621,1266,l),
(653,1233,l),
(653,1280,l),
(969,1280,l),
(969,1174,l),
(696,1174,l),
(696,918,l),
(936,918,l),
(936,813,l),
(698,813,l),
(698,559,l),
(983,559,l)
);
},
{
closed = 1;
nodes = (
(592,625,l),
(592,1104,l),
(582,1163,l),
(512,1174,l),
(412,1174,l),
(342,1163,l),
(332,1108,l),
(332,629,l),
(346,569,l),
(412,559,l),
(512,559,l),
(578,569,l)
);
},
{
closed = 1;
nodes = (
(438,1370,ls),
(168,1370,o),
(-4,1198,o),
(-4,989,cs),
(-4,381,ls),
(-4,172,o),
(168,0,o),
(438,0,cs),
(746,0,ls),
(1016,0,o),
(1188,172,o),
(1188,381,cs),
(1188,989,ls),
(1188,1198,o),
(1016,1370,o),
(746,1370,cs)
);
}
);
};
layerId = "F859EBB1-02CE-49D6-A9DD-2E3CD13E297E";
shapes = (
{
closed = 1;
nodes = (
(746,0,ls),
(1016,0,o),
(1188,172,o),
(1188,381,cs),
(1188,989,ls),
(1188,1198,o),
(1016,1370,o),
(746,1370,cs),
(438,1370,ls),
(168,1370,o),
(-4,1198,o),
(-4,989,cs),
(-4,381,ls),
(-4,172,o),
(168,0,o),
(438,0,cs)
);
},
{
closed = 1;
nodes = (
(305,465,l),
(240,528,l),
(227,614,l),
(227,1118,l),
(240,1202,l),
(303,1266,l),
(406,1280,l),
(518,1280,l),
(621,1266,l),
(653,1233,l),
(653,1280,l),
(969,1280,l),
(969,1174,l),
(696,1174,l),
(696,918,l),
(936,918,l),
(936,813,l),
(698,813,l),
(698,559,l),
(983,559,l),
(983,453,l),
(653,453,l),
(653,498,l),
(621,465,l),
(518,453,l),
(406,453,l)
);
},
{
closed = 1;
nodes = (
(512,559,l),
(578,569,l),
(592,625,l),
(592,1104,l),
(582,1163,l),
(512,1174,l),
(412,1174,l),
(342,1163,l),
(332,1108,l),
(332,629,l),
(346,569,l),
(412,559,l)
);
}
);
width = 1184;
}
);
unicode = 338;
},
{
color = 6;
glyphname = P;
lastChange = "2023-04-20 13:24:50 +0000";
layers = (
{
anchors = (
{
name = bottom;
pos = (592,0);
},
{
name = top;
pos = (592,1370);
}
);
background = {
shapes = (
{
closed = 1;
nodes = (
(438,1370,ls),
(168,1370,o),
(-4,1198,o),
(-4,989,cs),
(-4,381,ls),
(-4,172,o),
(168,0,o),
(438,0,cs),
(746,0,ls),
(1016,0,o),
(1188,172,o),
(1188,381,cs),
(1188,989,ls),
(1188,1198,o),
(1016,1370,o),
(746,1370,cs)
);
},
{
closed = 1;
nodes = (
(930,909,l),
(916,823,l),
(852,760,l),
(750,748,l),
(481,748,l),
(481,453,l),
(377,453,l),
(377,1280,l),
(750,1280,l),
(852,1266,l),
(916,1202,l),
(930,1118,l)
);
},
{
closed = 1;
nodes = (
(823,920,l),
(823,1104,l),
(813,1163,l),
(744,1174,l),
(481,1174,l),
(481,854,l),
(744,854,l),
(809,864,l)
);
}
);
};
layerId = "F859EBB1-02CE-49D6-A9DD-2E3CD13E297E";
shapes = (
{
closed = 1;
nodes = (
(746,0,ls),
(1016,0,o),
(1188,172,o),
(1188,381,cs),
(1188,989,ls),
(1188,1198,o),
(1016,1370,o),
(746,1370,cs),
(438,1370,ls),
(168,1370,o),
(-4,1198,o),
(-4,989,cs),
(-4,381,ls),
(-4,172,o),
(168,0,o),
(438,0,cs)
);
},
{
closed = 1;
nodes = (
(377,1280,l),
(750,1280,l),
(852,1266,l),
(916,1202,l),
(930,1118,l),
(930,909,l),
(916,823,l),
(852,760,l),
(750,748,l),
(481,748,l),
(481,453,l),
(377,453,l)
);
},
{
closed = 1;
nodes = (
(744,854,l),
(809,864,l),
(823,920,l),
(823,1104,l),
(813,1163,l),
(744,1174,l),
(481,1174,l),
(481,854,l)
);
}
);
width = 1184;
}
);
unicode = 80;
},
{
color = 10;
glyphname = Thorn;
lastChange = "2023-04-20 13:30:27 +0000";
layers = (
{
background = {
shapes = (
{
closed = 1;
nodes = (
(930,846,l),
(916,760,l),
(852,696,l),
(750,684,l),
(481,684,l),
(481,453,l),
(377,453,l),
(377,1311,l),
(481,1311,l),
(481,1135,l),
(750,1135,l),
(852,1120,l),
(916,1057,l),
(930,973,l)
);
},
{
closed = 1;
nodes = (
(823,856,l),
(823,958,l),
(813,1018,l),
(744,1028,l),
(481,1028,l),
(481,791,l),
(744,791,l),
(809,801,l)
);
},
{
closed = 1;
nodes = (
(438,1370,ls),
(168,1370,o),
(-4,1198,o),
(-4,989,cs),
(-4,381,ls),
(-4,172,o),
(168,0,o),
(438,0,cs),
(746,0,ls),
(1016,0,o),
(1188,172,o),
(1188,381,cs),
(1188,989,ls),
(1188,1198,o),
(1016,1370,o),
(746,1370,cs)
);
}
);
};
layerId = "F859EBB1-02CE-49D6-A9DD-2E3CD13E297E";
shapes = (
{
alignment = -1;
ref = thorn;
}
);
width = 1184;
}
);
unicode = 222;
},
{
color = 6;
glyphname = Q;
lastChange = "2023-04-20 13:24:50 +0000";
layers = (
{
anchors = (
{
name = bottom;
pos = (592,0);
},
{
name = top;
pos = (592,1370);
}
);
background = {
shapes = (
{
closed = 1;
nodes = (
(438,1370,ls),
(168,1370,o),
(-4,1198,o),
(-4,989,cs),
(-4,381,ls),
(-4,172,o),
(168,0,o),
(438,0,cs),
(746,0,ls),
(1016,0,o),
(1188,172,o),
(1188,381,cs),
(1188,989,ls),
(1188,1198,o),
(1016,1370,o),
(746,1370,cs)
);
},
{
closed = 1;
nodes = (
(954,614,l),
(940,528,l),
(877,465,l),
(801,457,l),
(856,344,l),
(762,299,l),
(684,453,l),
(506,453,l),
(406,465,l),
(340,528,l),
(328,614,l),
(328,1118,l),
(340,1202,l),
(404,1266,l),
(506,1280,l),
(774,1280,l),
(877,1266,l),
(940,1202,l),
(954,1118,l)
);
},
{
closed = 1;
nodes = (
(848,625,l),
(848,1104,l),
(838,1163,l),
(768,1174,l),
(512,1174,l),
(442,1163,l),
(432,1108,l),
(432,629,l),
(447,569,l),
(512,559,l),
(627,559,l),
(596,625,l),
(688,676,l),
(748,559,l),
(768,559,l),
(834,569,l)
);
}
);
};
layerId = "F859EBB1-02CE-49D6-A9DD-2E3CD13E297E";
shapes = (
{
closed = 1;
nodes = (
(746,0,ls),
(1016,0,o),
(1188,172,o),
(1188,381,cs),
(1188,989,ls),
(1188,1198,o),
(1016,1370,o),
(746,1370,cs),
(438,1370,ls),
(168,1370,o),
(-4,1198,o),
(-4,989,cs),
(-4,381,ls),
(-4,172,o),
(168,0,o),
(438,0,cs)
);
},
{
closed = 1;
nodes = (
(684,453,l),
(506,453,l),
(406,465,l),
(340,528,l),
(328,614,l),
(328,1118,l),
(340,1202,l),
(404,1266,l),
(506,1280,l),
(774,1280,l),
(877,1266,l),
(940,1202,l),
(954,1118,l),
(954,614,l),
(940,528,l),
(877,465,l),
(801,457,l),
(856,344,l),
(762,299,l)
);
},
{
closed = 1;
nodes = (
(627,559,l),
(596,625,l),
(688,676,l),
(748,559,l),
(768,559,l),
(834,569,l),
(848,625,l),
(848,1104,l),
(838,1163,l),
(768,1174,l),
(512,1174,l),
(442,1163,l),
(432,1108,l),
(432,629,l),
(447,569,l),
(512,559,l)
);
}
);
width = 1184;
}
);
unicode = 81;
},
{
color = 6;
glyphname = R;
lastChange = "2023-04-20 13:24:50 +0000";
layers = (
{
anchors = (
{
name = bottom;
pos = (592,0);
},
{
name = top;
pos = (592,1370);
}
);
background = {
shapes = (
{
closed = 1;
nodes = (
(438,1370,ls),
(168,1370,o),
(-4,1198,o),
(-4,989,cs),
(-4,381,ls),
(-4,172,o),
(168,0,o),
(438,0,cs),
(746,0,ls),
(1016,0,o),
(1188,172,o),
(1188,381,cs),
(1188,989,ls),
(1188,1198,o),
(1016,1370,o),
(746,1370,cs)
);
},
{
closed = 1;
nodes = (
(782,754,l),
(711,786,l),
(451,786,l),
(451,453,l),
(344,453,l),
(344,1280,l),
(717,1280,l),
(817,1266,l),
(883,1182,l),
(895,1098,l),
(895,987,l),
(864,897,l),
(754,844,l),
(868,803,l),
(903,711,l),
(903,453,l),
(797,453,l),
(797,700,l)
);
},
{
closed = 1;
nodes = (
(451,1174,l),
(451,893,l),
(711,893,l),
(774,924,l),
(789,979,l),
(789,1085,l),
(782,1143,l),
(711,1174,l)
);
}
);
};
layerId = "F859EBB1-02CE-49D6-A9DD-2E3CD13E297E";
shapes = (
{
closed = 1;
nodes = (
(746,0,ls),
(1016,0,o),
(1188,172,o),
(1188,381,cs),
(1188,989,ls),
(1188,1198,o),
(1016,1370,o),
(746,1370,cs),
(438,1370,ls),
(168,1370,o),
(-4,1198,o),
(-4,989,cs),
(-4,381,ls),
(-4,172,o),
(168,0,o),
(438,0,cs)
);
},
{
closed = 1;
nodes = (
(344,1280,l),
(717,1280,l),
(817,1266,l),
(883,1182,l),
(895,1098,l),
(895,987,l),
(864,897,l),
(754,844,l),
(868,803,l),
(903,711,l),
(903,453,l),
(797,453,l),
(797,700,l),
(782,754,l),
(711,786,l),
(451,786,l),
(451,453,l),
(344,453,l)
);
},
{
closed = 1;
nodes = (
(711,893,l),
(774,924,l),
(789,979,l),
(789,1085,l),
(782,1143,l),
(711,1174,l),
(451,1174,l),
(451,893,l)
);
}
);
width = 1184;
}
);
unicode = 82;
},
{
color = 10;
glyphname = Racute;
lastChange = "2023-04-20 14:02:32 +0000";
layers = (
{
background = {
shapes = (
{
closed = 1;
nodes = (
(438,1370,ls),
(168,1370,o),
(-4,1198,o),
(-4,989,cs),
(-4,381,ls),
(-4,172,o),
(168,0,o),
(438,0,cs),
(746,0,ls),
(1016,0,o),
(1188,172,o),
(1188,381,cs),
(1188,989,ls),
(1188,1198,o),
(1016,1370,o),
(746,1370,cs)
);
},
{
closed = 1;
nodes = (
(782,754,l),
(711,786,l),
(451,786,l),
(451,453,l),
(344,453,l),
(344,1280,l),
(717,1280,l),
(817,1266,l),
(883,1182,l),
(895,1098,l),
(895,987,l),
(864,897,l),
(754,844,l),
(868,803,l),
(903,711,l),
(903,453,l),
(797,453,l),
(797,700,l)
);
},
{
closed = 1;
nodes = (
(451,1174,l),
(451,893,l),
(711,893,l),
(774,924,l),
(789,979,l),
(789,1085,l),
(782,1143,l),
(711,1174,l)
);
},
{
closed = 1;
nodes = (
(753,1297,l),
(768,1312,o),
(780,1331,o),
(796,1358,cs),
(954,1628,ls),
(984,1679,o),
(997,1724,o),
(997,1761,cs),
(997,1892,o),
(851,1962,o),
(702,1962,cs),
(589,1962,o),
(494,1933,o),
(462,1849,c),
(369,1564,o),
(358,1494,o),
(358,1467,cs),
(358,1387,o),
(417,1324,o),
(479,1297,c)
);
},
{
closed = 1;
nodes = (
(626,1454,l),
(557,1454,l),
(657,1788,l),
(778,1788,l)
);
}
);
};
layerId = "F859EBB1-02CE-49D6-A9DD-2E3CD13E297E";
shapes = (
{
ref = R;
},
{
pos = (396,1200);
ref = acutecomb;
}
);
width = 1184;
}
);
unicode = 340;
},
{
color = 10;
glyphname = Rcaron;
lastChange = "2023-04-20 14:02:32 +0000";
layers = (
{
background = {
shapes = (
{
closed = 1;
nodes = (
(438,1370,ls),
(168,1370,o),
(-4,1198,o),
(-4,989,cs),
(-4,381,ls),
(-4,172,o),
(168,0,o),
(438,0,cs),
(746,0,ls),
(1016,0,o),
(1188,172,o),
(1188,381,cs),
(1188,989,ls),
(1188,1198,o),
(1016,1370,o),
(746,1370,cs)
);
},
{
closed = 1;
nodes = (
(782,754,l),
(711,786,l),
(451,786,l),
(451,453,l),
(344,453,l),
(344,1280,l),
(717,1280,l),
(817,1266,l),
(883,1182,l),
(895,1098,l),
(895,987,l),
(864,897,l),
(754,844,l),
(868,803,l),
(903,711,l),
(903,453,l),
(797,453,l),
(797,700,l)
);
},
{
closed = 1;
nodes = (
(451,1174,l),
(451,893,l),
(711,893,l),
(774,924,l),
(789,979,l),
(789,1085,l),
(782,1143,l),
(711,1174,l)
);
},
{
closed = 1;
nodes = (
(559,1909,o),
(523,1932,o),
(456,1932,cs),
(284,1932,o),
(223,1840,o),
(223,1745,cs),
(223,1649,o),
(285,1460,o),
(342,1303,c),
(844,1303,l),
(892,1419,o),
(960,1627,o),
(960,1735,cs),
(960,1843,o),
(901,1934,o),
(753,1934,cs),
(681,1934,o),
(635,1911,o),
(594,1874,c)
);
},
{
closed = 1;
nodes = (
(592,1463,l),
(686,1756,l),
(768,1756,l),
(637,1418,l),
(547,1418,l),
(416,1756,l),
(497,1756,l)
);
}
);
};
layerId = "F859EBB1-02CE-49D6-A9DD-2E3CD13E297E";
shapes = (
{
ref = R;
},
{
pos = (267,1240);
ref = caroncomb;
}
);
width = 1184;
}
);
unicode = 344;
},
{
color = 6;
glyphname = Rcommaaccent;
lastChange = "2023-04-20 13:24:50 +0000";
layers = (
{
background = {
shapes = (
{
closed = 1;
nodes = (
(602,147,l),
(641,248,l),
(576,248,l),
(576,377,l),
(727,377,l),
(727,248,l),
(666,119,l)
);
},
{
closed = 1;
nodes = (
(438,1370,ls),
(168,1370,o),
(-4,1198,o),
(-4,989,cs),
(-4,381,ls),
(-4,172,o),
(168,0,o),
(438,0,cs),
(746,0,ls),
(1016,0,o),
(1188,172,o),
(1188,381,cs),
(1188,989,ls),
(1188,1198,o),
(1016,1370,o),
(746,1370,cs)
);
},
{
closed = 1;
nodes = (
(782,754,l),
(711,786,l),
(451,786,l),
(451,453,l),
(344,453,l),
(344,1280,l),
(717,1280,l),
(817,1266,l),
(883,1182,l),
(895,1098,l),
(895,987,l),
(864,897,l),
(754,844,l),
(868,803,l),
(903,711,l),
(903,453,l),
(797,453,l),
(797,700,l)
);
},
{
closed = 1;
nodes = (
(451,1174,l),
(451,893,l),
(711,893,l),
(774,924,l),
(789,979,l),
(789,1085,l),
(782,1143,l),
(711,1174,l)
);
}
);
};
layerId = "F859EBB1-02CE-49D6-A9DD-2E3CD13E297E";
shapes = (
{
closed = 1;
nodes = (
(746,0,ls),
(1016,0,o),
(1188,172,o),
(1188,381,cs),
(1188,989,ls),
(1188,1198,o),
(1016,1370,o),
(746,1370,cs),
(438,1370,ls),
(168,1370,o),
(-4,1198,o),
(-4,989,cs),
(-4,381,ls),
(-4,172,o),
(168,0,o),
(438,0,cs)
);
},
{
closed = 1;
nodes = (
(602,147,l),
(641,248,l),
(576,248,l),
(576,377,l),
(727,377,l),
(727,248,l),
(666,119,l)
);
},
{
closed = 1;
nodes = (
(344,1280,l),
(717,1280,l),
(817,1266,l),
(883,1182,l),
(895,1098,l),
(895,987,l),
(864,897,l),
(754,844,l),
(868,803,l),
(903,711,l),
(903,453,l),
(797,453,l),
(797,700,l),
(782,754,l),
(711,786,l),
(451,786,l),
(451,453,l),
(344,453,l)
);
},
{
closed = 1;
nodes = (
(711,893,l),
(774,924,l),
(789,979,l),
(789,1085,l),
(782,1143,l),
(711,1174,l),
(451,1174,l),
(451,893,l)
);
}
);
width = 1184;
}
);
unicode = 342;
},
{
color = 10;
glyphname = Rdblgrave;
lastChange = "2023-04-20 14:02:32 +0000";
layers = (
{
background = {
shapes = (
{
closed = 1;
nodes = (
(438,1370,ls),
(168,1370,o),
(-4,1198,o),
(-4,989,cs),
(-4,381,ls),
(-4,172,o),
(168,0,o),
(438,0,cs),
(746,0,ls),
(1016,0,o),
(1188,172,o),
(1188,381,cs),
(1188,989,ls),
(1188,1198,o),
(1016,1370,o),
(746,1370,cs)
);
},
{
closed = 1;
nodes = (
(782,754,l),
(711,786,l),
(451,786,l),
(451,453,l),
(344,453,l),
(344,1280,l),
(717,1280,l),
(817,1266,l),
(883,1182,l),
(895,1098,l),
(895,987,l),
(864,897,l),
(754,844,l),
(868,803,l),
(903,711,l),
(903,453,l),
(797,453,l),
(797,700,l)
);
},
{
closed = 1;
nodes = (
(451,1174,l),
(451,893,l),
(711,893,l),
(774,924,l),
(789,979,l),
(789,1085,l),
(782,1143,l),
(711,1174,l)
);
},
{
closed = 1;
nodes = (
(907,1296,l),
(940,1331,o),
(954,1374,o),
(954,1431,cs),
(954,1450,o),
(952,1472,o),
(948,1495,c),
(768,1828,ls),
(714,1927,o),
(677,1951,o),
(565,1962,c),
(473,1962,l),
(457,1929,l),
(426,1948,o),
(390,1955,o),
(334,1962,c),
(242,1962,l),
(86,1671,l),
(338,1296,l)
);
},
{
closed = 1;
nodes = (
(489,1765,l),
(582,1765,l),
(762,1431,l),
(711,1431,l)
);
},
{
closed = 1;
nodes = (
(258,1765,l),
(350,1765,l),
(530,1431,l),
(479,1431,l)
);
}
);
};
layerId = "F859EBB1-02CE-49D6-A9DD-2E3CD13E297E";
shapes = (
{
ref = R;
},
{
pos = (92,1200);
ref = dblgravecomb;
}
);
width = 1184;
}
);
unicode = 528;
},
{
color = 10;
glyphname = Rinvertedbreve;
lastChange = "2023-04-20 14:02:32 +0000";
layers = (
{
background = {
shapes = (
{
closed = 1;
nodes = (
(1067,1752,o),
(895,1898,o),
(624,1898,cs),
(354,1898,o),
(182,1752,o),
(182,1579,cs),
(182,1485,o),
(218,1410,o),
(287,1350,c),
(105,1299,o),
(-4,1155,o),
(-4,989,cs),
(-4,381,ls),
(-4,172,o),
(168,0,o),
(438,0,cs),
(746,0,ls),
(1016,0,o),
(1188,172,o),
(1188,381,cs),
(1188,989,ls),
(1188,1141,o),
(1097,1273,o),
(943,1334,c),
(1023,1397,o),
(1067,1477,o),
(1067,1579,cs)
);
},
{
closed = 1;
nodes = (
(782,754,l),
(711,786,l),
(451,786,l),
(451,453,l),
(344,453,l),
(344,1280,l),
(717,1280,l),
(817,1266,l),
(883,1182,l),
(895,1098,l),
(895,987,l),
(864,897,l),
(754,844,l),
(868,803,l),
(903,711,l),
(903,453,l),
(797,453,l),
(797,700,l)
);
},
{
closed = 1;
nodes = (
(451,1174,l),
(451,893,l),
(711,893,l),
(774,924,l),
(789,979,l),
(789,1085,l),
(782,1143,l),
(711,1174,l)
);
},
{
closed = 1;
nodes = (
(454,1554,l),
(512,1611,l),
(590,1624,l),
(661,1624,l),
(739,1611,l),
(798,1552,l),
(811,1454,l),
(721,1454,l),
(710,1519,l),
(651,1533,l),
(598,1533,l),
(542,1523,l),
(532,1454,l),
(442,1454,l)
);
}
);
};
layerId = "F859EBB1-02CE-49D6-A9DD-2E3CD13E297E";
shapes = (
{
ref = R;
},
{
pos = (183,1200);
ref = breveinvertedcomb;
}
);
width = 1184;
}
);
unicode = 530;
},
{
color = 6;
glyphname = S;
lastChange = "2023-04-20 13:24:50 +0000";
layers = (
{
anchors = (
{
name = bottom;
pos = (592,0);
},
{
name = top;
pos = (592,1370);
}
);
background = {
shapes = (
{
closed = 1;
nodes = (
(438,1370,ls),
(168,1370,o),
(-4,1198,o),
(-4,989,cs),
(-4,381,ls),
(-4,172,o),
(168,0,o),
(438,0,cs),
(746,0,ls),
(1016,0,o),
(1188,172,o),
(1188,381,cs),
(1188,989,ls),
(1188,1198,o),
(1016,1370,o),
(746,1370,cs)
);
},
{
closed = 1;
nodes = (
(934,614,l),
(920,528,l),
(856,465,l),
(754,453,l),
(494,453,l),
(377,467,l),
(402,575,l),
(500,559,l),
(748,559,l),
(813,569,l),
(817,586,o),
(824,608,o),
(827,625,c),
(827,756,l),
(823,775,o),
(817,791,o),
(813,811,c),
(752,821,l),
(526,821,l),
(426,834,l),
(361,897,l),
(348,981,l),
(348,1118,l),
(361,1202,l),
(426,1266,l),
(526,1280,l),
(789,1280,l),
(905,1264,l),
(881,1155,l),
(787,1174,l),
(533,1174,l),
(467,1161,l),
(453,1102,l),
(453,997,l),
(460,977,o),
(460,961,o),
(467,938,c),
(528,926,l),
(752,926,l),
(856,915,l),
(920,852,l),
(934,766,l)
);
}
);
};
layerId = "F859EBB1-02CE-49D6-A9DD-2E3CD13E297E";
shapes = (
{
closed = 1;
nodes = (
(746,0,ls),
(1016,0,o),
(1188,172,o),
(1188,381,cs),
(1188,989,ls),
(1188,1198,o),
(1016,1370,o),
(746,1370,cs),
(438,1370,ls),
(168,1370,o),
(-4,1198,o),
(-4,989,cs),
(-4,381,ls),
(-4,172,o),
(168,0,o),
(438,0,cs)
);
},
{
closed = 1;
nodes = (
(377,467,l),
(402,575,l),
(500,559,l),
(748,559,l),
(813,569,l),
(827,625,l),
(827,756,l),
(813,811,l),
(752,821,l),
(526,821,l),
(426,834,l),
(361,897,l),
(348,981,l),
(348,1118,l),
(361,1202,l),
(426,1266,l),
(526,1280,l),
(789,1280,l),
(905,1264,l),
(881,1155,l),
(787,1174,l),
(533,1174,l),
(467,1161,l),
(453,1102,l),
(453,997,l),
(467,938,l),
(528,926,l),
(752,926,l),
(856,915,l),
(920,852,l),
(934,766,l),
(934,614,l),
(920,528,l),
(856,465,l),
(754,453,l),
(494,453,l)
);
}
);
width = 1184;
}
);
unicode = 83;
},
{
color = 10;
glyphname = Sacute;
lastChange = "2023-04-20 14:02:32 +0000";
layers = (
{
background = {
shapes = (
{
closed = 1;
nodes = (
(438,1370,ls),
(168,1370,o),
(-4,1198,o),
(-4,989,cs),
(-4,381,ls),
(-4,172,o),
(168,0,o),
(438,0,cs),
(746,0,ls),
(1016,0,o),
(1188,172,o),
(1188,381,cs),
(1188,989,ls),
(1188,1198,o),
(1016,1370,o),
(746,1370,cs)
);
},
{
closed = 1;
nodes = (
(934,614,l),
(920,528,l),
(856,465,l),
(754,453,l),
(494,453,l),
(377,467,l),
(402,575,l),
(500,559,l),
(748,559,l),
(813,569,l),
(817,586,o),
(824,608,o),
(827,625,c),
(827,756,l),
(823,775,o),
(817,791,o),
(813,811,c),
(752,821,l),
(526,821,l),
(426,834,l),
(361,897,l),
(348,981,l),
(348,1118,l),
(361,1202,l),
(426,1266,l),
(526,1280,l),
(789,1280,l),
(905,1264,l),
(881,1155,l),
(787,1174,l),
(533,1174,l),
(467,1161,l),
(453,1102,l),
(453,997,l),
(460,977,o),
(460,961,o),
(467,938,c),
(528,926,l),
(752,926,l),
(856,915,l),
(920,852,l),
(934,766,l)
);
},
{
closed = 1;
nodes = (
(792,1293,l),
(807,1308,o),
(819,1327,o),
(835,1354,cs),
(993,1624,ls),
(1023,1675,o),
(1036,1720,o),
(1036,1757,cs),
(1036,1888,o),
(890,1958,o),
(741,1958,cs),
(628,1958,o),
(533,1929,o),
(501,1845,c),
(408,1560,o),
(397,1490,o),
(397,1463,cs),
(397,1383,o),
(456,1320,o),
(518,1293,c)
);
},
{
closed = 1;
nodes = (
(665,1450,l),
(596,1450,l),
(696,1784,l),
(817,1784,l)
);
}
);
};
layerId = "F859EBB1-02CE-49D6-A9DD-2E3CD13E297E";
shapes = (
{
ref = S;
},
{
pos = (396,1200);
ref = acutecomb;
}
);
width = 1184;
}
);
unicode = 346;
},
{
color = 10;
glyphname = Scaron;
lastChange = "2023-04-20 14:02:32 +0000";
layers = (
{
background = {
shapes = (
{
closed = 1;
nodes = (
(438,1370,ls),
(168,1370,o),
(-4,1198,o),
(-4,989,cs),
(-4,381,ls),
(-4,172,o),
(168,0,o),
(438,0,cs),
(746,0,ls),
(1016,0,o),
(1188,172,o),
(1188,381,cs),
(1188,989,ls),
(1188,1198,o),
(1016,1370,o),
(746,1370,cs)
);
},
{
closed = 1;
nodes = (
(934,614,l),
(920,528,l),
(856,465,l),
(754,453,l),
(494,453,l),
(377,467,l),
(402,575,l),
(500,559,l),
(748,559,l),
(813,569,l),
(817,586,o),
(824,608,o),
(827,625,c),
(827,756,l),
(823,775,o),
(817,791,o),
(813,811,c),
(752,821,l),
(526,821,l),
(426,834,l),
(361,897,l),
(348,981,l),
(348,1118,l),
(361,1202,l),
(426,1266,l),
(526,1280,l),
(789,1280,l),
(905,1264,l),
(881,1155,l),
(787,1174,l),
(533,1174,l),
(467,1161,l),
(453,1102,l),
(453,997,l),
(460,977,o),
(460,961,o),
(467,938,c),
(528,926,l),
(752,926,l),
(856,915,l),
(920,852,l),
(934,766,l)
);
},
{
closed = 1;
nodes = (
(625,1917,o),
(589,1940,o),
(522,1940,cs),
(350,1940,o),
(289,1848,o),
(289,1753,cs),
(289,1657,o),
(351,1468,o),
(408,1311,c),
(910,1311,l),
(958,1427,o),
(1026,1635,o),
(1026,1743,cs),
(1026,1851,o),
(967,1942,o),
(819,1942,cs),
(747,1942,o),
(701,1919,o),
(660,1882,c)
);
},
{
closed = 1;
nodes = (
(658,1471,l),
(752,1764,l),
(834,1764,l),
(703,1426,l),
(613,1426,l),
(482,1764,l),
(563,1764,l)
);
}
);
};
layerId = "F859EBB1-02CE-49D6-A9DD-2E3CD13E297E";
shapes = (
{
ref = S;
},
{
pos = (267,1240);
ref = caroncomb;
}
);
width = 1184;
}
);
unicode = 352;
},
{
color = 10;
glyphname = Scedilla;
lastChange = "2023-04-20 13:35:24 +0000";
layers = (
{
anchors = (
{
name = bottom;
pos = (552,134);
},
{
name = top;
pos = (592,1370);
}
);
background = {
shapes = (
{
closed = 1;
nodes = (
(934,614,l),
(920,528,l),
(856,465,l),
(754,453,l),
(692,453,l),
(692,336,l),
(582,326,l),
(571,291,l),
(586,231,l),
(696,221,l),
(696,131,l),
(553,143,l),
(494,203,l),
(481,281,l),
(481,299,l),
(494,356,l),
(551,418,l),
(623,418,l),
(623,453,l),
(494,453,l),
(377,467,l),
(402,575,l),
(500,559,l),
(748,559,l),
(813,569,l),
(817,586,o),
(824,608,o),
(827,625,c),
(827,756,l),
(823,775,o),
(817,791,o),
(813,811,c),
(752,821,l),
(526,821,l),
(426,834,l),
(361,897,l),
(348,981,l),
(348,1118,l),
(361,1202,l),
(426,1266,l),
(526,1280,l),
(789,1280,l),
(905,1264,l),
(881,1155,l),
(787,1174,l),
(533,1174,l),
(467,1161,l),
(453,1102,l),
(453,997,l),
(460,977,o),
(460,961,o),
(467,938,c),
(528,926,l),
(752,926,l),
(856,915,l),
(920,852,l),
(934,766,l)
);
},
{
closed = 1;
nodes = (
(438,1370,ls),
(168,1370,o),
(-4,1198,o),
(-4,989,cs),
(-4,381,ls),
(-4,172,o),
(168,0,o),
(438,0,cs),
(746,0,ls),
(1016,0,o),
(1188,172,o),
(1188,381,cs),
(1188,989,ls),
(1188,1198,o),
(1016,1370,o),
(746,1370,cs)
);
}
);
};
layerId = "F859EBB1-02CE-49D6-A9DD-2E3CD13E297E";
shapes = (
{
closed = 1;
nodes = (
(746,0,ls),
(1016,0,o),
(1188,172,o),
(1188,381,cs),
(1188,989,ls),
(1188,1198,o),
(1016,1370,o),
(746,1370,cs),
(438,1370,ls),
(168,1370,o),
(-4,1198,o),
(-4,989,cs),
(-4,381,ls),
(-4,172,o),
(168,0,o),
(438,0,cs)
);
},
{
closed = 1;
nodes = (
(377,467,l),
(402,575,l),
(500,559,l),
(748,559,l),
(813,569,l),
(827,625,l),
(827,756,l),
(813,811,l),
(752,821,l),
(526,821,l),
(426,834,l),
(361,897,l),
(348,981,l),
(348,1118,l),
(361,1202,l),
(426,1266,l),
(526,1280,l),
(789,1280,l),
(905,1264,l),
(881,1155,l),
(787,1174,l),
(533,1174,l),
(467,1161,l),
(453,1102,l),
(453,997,l),
(467,938,l),
(528,926,l),
(752,926,l),
(856,915,l),
(920,852,l),
(934,766,l),
(934,614,l),
(920,528,l),
(856,465,l),
(754,453,l),
(691,453,l),
(691,336,l),
(580,326,l),
(570,291,l),
(584,232,l),
(695,222,l),
(695,132,l),
(552,144,l),
(492,203,l),
(480,281,l),
(480,300,l),
(492,357,l),
(550,414,l),
(621,414,l),
(621,453,l),
(494,453,l)
);
}
);
width = 1184;
}
);
unicode = 350;
},
{
color = 10;
glyphname = Scircumflex;
lastChange = "2023-04-20 14:02:32 +0000";
layers = (
{
background = {
shapes = (
{
closed = 1;
nodes = (
(438,1370,ls),
(168,1370,o),
(-4,1198,o),
(-4,989,cs),
(-4,381,ls),
(-4,172,o),
(168,0,o),
(438,0,cs),
(746,0,ls),
(1016,0,o),
(1188,172,o),
(1188,381,cs),
(1188,989,ls),
(1188,1198,o),
(1016,1370,o),
(746,1370,cs)
);
},
{
closed = 1;
nodes = (
(934,614,l),
(920,528,l),
(856,465,l),
(754,453,l),
(494,453,l),
(377,467,l),
(402,575,l),
(500,559,l),
(748,559,l),
(813,569,l),
(817,586,o),
(824,608,o),
(827,625,c),
(827,756,l),
(823,775,o),
(817,791,o),
(813,811,c),
(752,821,l),
(526,821,l),
(426,834,l),
(361,897,l),
(348,981,l),
(348,1118,l),
(361,1202,l),
(426,1266,l),
(526,1280,l),
(789,1280,l),
(905,1264,l),
(881,1155,l),
(787,1174,l),
(533,1174,l),
(467,1161,l),
(453,1102,l),
(453,997,l),
(460,977,o),
(460,961,o),
(467,938,c),
(528,926,l),
(752,926,l),
(856,915,l),
(920,852,l),
(934,766,l)
);
},
{
closed = 1;
nodes = (
(949,1311,l),
(995,1347,o),
(1018,1399,o),
(1018,1467,cs),
(1018,1519,o),
(980,1617,o),
(945,1706,cs),
(924,1757,o),
(900,1811,o),
(873,1868,cs),
(825,1967,o),
(766,2001,o),
(654,2001,cs),
(542,2001,o),
(480,1967,o),
(441,1899,c),
(369,1744,o),
(281,1553,o),
(281,1456,cs),
(281,1400,o),
(301,1346,o),
(342,1311,c)
);
},
{
closed = 1;
nodes = (
(555,1467,l),
(474,1467,l),
(605,1805,l),
(695,1805,l),
(826,1467,l),
(744,1467,l),
(650,1759,l)
);
}
);
};
layerId = "F859EBB1-02CE-49D6-A9DD-2E3CD13E297E";
shapes = (
{
ref = S;
},
{
pos = (257,1200);
ref = circumflexcomb;
}
);
width = 1184;
}
);
unicode = 348;
},
{
color = 6;
glyphname = Scommaaccent;
lastChange = "2023-04-20 13:24:50 +0000";
layers = (
{
background = {
shapes = (
{
closed = 1;
nodes = (
(438,1370,ls),
(168,1370,o),
(-4,1198,o),
(-4,989,cs),
(-4,381,ls),
(-4,172,o),
(168,0,o),
(438,0,cs),
(746,0,ls),
(1016,0,o),
(1188,172,o),
(1188,381,cs),
(1188,989,ls),
(1188,1198,o),
(1016,1370,o),
(746,1370,cs)
);
},
{
closed = 1;
nodes = (
(934,614,l),
(920,528,l),
(856,465,l),
(754,453,l),
(494,453,l),
(377,467,l),
(402,575,l),
(500,559,l),
(748,559,l),
(813,569,l),
(817,586,o),
(824,608,o),
(827,625,c),
(827,756,l),
(823,775,o),
(817,791,o),
(813,811,c),
(752,821,l),
(526,821,l),
(426,834,l),
(361,897,l),
(348,981,l),
(348,1118,l),
(361,1202,l),
(426,1266,l),
(526,1280,l),
(789,1280,l),
(905,1264,l),
(881,1155,l),
(787,1174,l),
(533,1174,l),
(467,1161,l),
(453,1102,l),
(453,997,l),
(460,977,o),
(460,961,o),
(467,938,c),
(528,926,l),
(752,926,l),
(856,915,l),
(920,852,l),
(934,766,l)
);
},
{
closed = 1;
nodes = (
(589,154,l),
(628,255,l),
(563,255,l),
(563,384,l),
(714,384,l),
(714,255,l),
(653,126,l)
);
}
);
};
layerId = "F859EBB1-02CE-49D6-A9DD-2E3CD13E297E";
shapes = (
{
closed = 1;
nodes = (
(746,0,ls),
(1016,0,o),
(1188,172,o),
(1188,381,cs),
(1188,989,ls),
(1188,1198,o),
(1016,1370,o),
(746,1370,cs),
(438,1370,ls),
(168,1370,o),
(-4,1198,o),
(-4,989,cs),
(-4,381,ls),
(-4,172,o),
(168,0,o),
(438,0,cs)
);
},
{
closed = 1;
nodes = (
(589,154,l),
(628,255,l),
(563,255,l),
(563,384,l),
(714,384,l),
(714,255,l),
(653,126,l)
);
},
{
closed = 1;
nodes = (
(377,467,l),
(402,575,l),
(500,559,l),
(748,559,l),
(813,569,l),
(827,625,l),
(827,756,l),
(813,811,l),
(752,821,l),
(526,821,l),
(426,834,l),
(361,897,l),
(348,981,l),
(348,1118,l),
(361,1202,l),
(426,1266,l),
(526,1280,l),
(789,1280,l),
(905,1264,l),
(881,1155,l),
(787,1174,l),
(533,1174,l),
(467,1161,l),
(453,1102,l),
(453,997,l),
(467,938,l),
(528,926,l),
(752,926,l),
(856,915,l),
(920,852,l),
(934,766,l),
(934,614,l),
(920,528,l),
(856,465,l),
(754,453,l),
(494,453,l)
);
}
);
width = 1184;
}
);
unicode = 536;
},
{
color = 10;
glyphname = Sdotaccent;
lastChange = "2023-04-20 14:02:32 +0000";
layers = (
{
background = {
shapes = (
{
closed = 1;
nodes = (
(438,1370,ls),
(168,1370,o),
(-4,1198,o),
(-4,989,cs),
(-4,381,ls),
(-4,172,o),
(168,0,o),
(438,0,cs),
(746,0,ls),
(1016,0,o),
(1188,172,o),
(1188,381,cs),
(1188,989,ls),
(1188,1198,o),
(1016,1370,o),
(746,1370,cs)
);
},
{
closed = 1;
nodes = (
(934,614,l),
(920,528,l),
(856,465,l),
(754,453,l),
(494,453,l),
(377,467,l),
(402,575,l),
(500,559,l),
(748,559,l),
(813,569,l),
(817,586,o),
(824,608,o),
(827,625,c),
(827,756,l),
(823,775,o),
(817,791,o),
(813,811,c),
(752,821,l),
(526,821,l),
(426,834,l),
(361,897,l),
(348,981,l),
(348,1118,l),
(361,1202,l),
(426,1266,l),
(526,1280,l),
(789,1280,l),
(905,1264,l),
(881,1155,l),
(787,1174,l),
(533,1174,l),
(467,1161,l),
(453,1102,l),
(453,997,l),
(460,977,o),
(460,961,o),
(467,938,c),
(528,926,l),
(752,926,l),
(856,915,l),
(920,852,l),
(934,766,l)
);
},
{
closed = 1;
nodes = (
(584,1462,l),
(584,1591,l),
(715,1591,l),
(715,1462,l)
);
},
{
closed = 1;
nodes = (
(1002,1290,l),
(1063,1362,o),
(1096,1447,o),
(1096,1551,cs),
(1096,1724,o),
(924,1870,o),
(653,1870,cs),
(383,1870,o),
(211,1724,o),
(211,1551,cs),
(211,1464,o),
(245,1349,o),
(307,1290,c)
);
}
);
};
layerId = "F859EBB1-02CE-49D6-A9DD-2E3CD13E297E";
shapes = (
{
ref = S;
},
{
pos = (194,1200);
ref = dotaccentcomb;
}
);
width = 1184;
}
);
unicode = (7776,7777);
},
{
color = 6;
glyphname = T;
lastChange = "2023-04-20 13:24:50 +0000";
layers = (
{
anchors = (
{
name = bottom;
pos = (592,0);
},
{
name = center;
pos = (592,685);
},
{
name = top;
pos = (592,1370);
}
);
background = {
shapes = (
{
closed = 1;
nodes = (
(936,1174,l),
(701,1174,l),
(701,453,l),
(594,453,l),
(594,1174,l),
(358,1174,l),
(358,1280,l),
(936,1280,l)
);
},
{
closed = 1;
nodes = (
(438,1370,ls),
(168,1370,o),
(-4,1198,o),
(-4,989,cs),
(-4,381,ls),
(-4,172,o),
(168,0,o),
(438,0,cs),
(746,0,ls),
(1016,0,o),
(1188,172,o),
(1188,381,cs),
(1188,989,ls),
(1188,1198,o),
(1016,1370,o),
(746,1370,cs)
);
}
);
};
layerId = "F859EBB1-02CE-49D6-A9DD-2E3CD13E297E";
shapes = (
{
closed = 1;
nodes = (
(746,0,ls),
(1016,0,o),
(1188,172,o),
(1188,381,cs),
(1188,989,ls),
(1188,1198,o),
(1016,1370,o),
(746,1370,cs),
(438,1370,ls),
(168,1370,o),
(-4,1198,o),
(-4,989,cs),
(-4,381,ls),
(-4,172,o),
(168,0,o),
(438,0,cs)
);
},
{
closed = 1;
nodes = (
(594,1174,l),
(358,1174,l),
(358,1280,l),
(936,1280,l),
(936,1174,l),
(701,1174,l),
(701,453,l),
(594,453,l)
);
}
);
width = 1184;
}
);
unicode = 84;
},
{
color = 6;
glyphname = Tbar;
lastChange = "2023-04-20 13:24:50 +0000";
layers = (
{
background = {
shapes = (
{
closed = 1;
nodes = (
(936,1174,l),
(701,1174,l),
(701,897,l),
(832,897,l),
(832,805,l),
(701,805,l),
(701,453,l),
(594,453,l),
(594,805,l),
(455,805,l),
(455,897,l),
(594,897,l),
(594,1174,l),
(358,1174,l),
(358,1280,l),
(936,1280,l)
);
},
{
closed = 1;
nodes = (
(438,1370,ls),
(168,1370,o),
(-4,1198,o),
(-4,989,cs),
(-4,381,ls),
(-4,172,o),
(168,0,o),
(438,0,cs),
(746,0,ls),
(1016,0,o),
(1188,172,o),
(1188,381,cs),
(1188,989,ls),
(1188,1198,o),
(1016,1370,o),
(746,1370,cs)
);
}
);
};
layerId = "F859EBB1-02CE-49D6-A9DD-2E3CD13E297E";
shapes = (
{
closed = 1;
nodes = (
(746,0,ls),
(1016,0,o),
(1188,172,o),
(1188,381,cs),
(1188,989,ls),
(1188,1198,o),
(1016,1370,o),
(746,1370,cs),
(438,1370,ls),
(168,1370,o),
(-4,1198,o),
(-4,989,cs),
(-4,381,ls),
(-4,172,o),
(168,0,o),
(438,0,cs)
);
},
{
closed = 1;
nodes = (
(594,805,l),
(455,805,l),
(455,897,l),
(594,897,l),
(594,1174,l),
(358,1174,l),
(358,1280,l),
(936,1280,l),
(936,1174,l),
(701,1174,l),
(701,897,l),
(832,897,l),
(832,805,l),
(701,805,l),
(701,453,l),
(594,453,l)
);
}
);
width = 1184;
}
);
unicode = 358;
},
{
color = 10;
glyphname = Tcaron;
lastChange = "2023-04-20 14:02:32 +0000";
layers = (
{
background = {
shapes = (
{
closed = 1;
nodes = (
(936,1174,l),
(701,1174,l),
(701,453,l),
(594,453,l),
(594,1174,l),
(358,1174,l),
(358,1280,l),
(936,1280,l)
);
},
{
closed = 1;
nodes = (
(438,1370,ls),
(168,1370,o),
(-4,1198,o),
(-4,989,cs),
(-4,381,ls),
(-4,172,o),
(168,0,o),
(438,0,cs),
(746,0,ls),
(1016,0,o),
(1188,172,o),
(1188,381,cs),
(1188,989,ls),
(1188,1198,o),
(1016,1370,o),
(746,1370,cs)
);
},
{
closed = 1;
nodes = (
(598,1913,o),
(562,1936,o),
(495,1936,cs),
(323,1936,o),
(262,1844,o),
(262,1749,cs),
(262,1653,o),
(324,1464,o),
(381,1307,c),
(883,1307,l),
(931,1423,o),
(999,1631,o),
(999,1739,cs),
(999,1847,o),
(940,1938,o),
(792,1938,cs),
(720,1938,o),
(674,1915,o),
(633,1878,c)
);
},
{
closed = 1;
nodes = (
(631,1467,l),
(725,1760,l),
(807,1760,l),
(676,1422,l),
(586,1422,l),
(455,1760,l),
(536,1760,l)
);
}
);
};
layerId = "F859EBB1-02CE-49D6-A9DD-2E3CD13E297E";
shapes = (
{
ref = T;
},
{
pos = (267,1240);
ref = caroncomb;
}
);
width = 1184;
}
);
unicode = 356;
},
{
color = 10;
glyphname = Tcedilla;
lastChange = "2023-04-20 13:36:51 +0000";
layers = (
{
background = {
shapes = (
{
closed = 1;
nodes = (
(602,147,l),
(641,248,l),
(576,248,l),
(576,377,l),
(727,377,l),
(727,248,l),
(666,119,l)
);
},
{
closed = 1;
nodes = (
(936,1174,l),
(666,1174,l),
(666,453,l),
(594,453,l),
(594,1174,l),
(358,1174,l),
(358,1280,l),
(936,1280,l)
);
},
{
closed = 1;
nodes = (
(438,1370,ls),
(168,1370,o),
(-4,1198,o),
(-4,989,cs),
(-4,381,ls),
(-4,172,o),
(168,0,o),
(438,0,cs),
(746,0,ls),
(1016,0,o),
(1188,172,o),
(1188,381,cs),
(1188,989,ls),
(1188,1198,o),
(1016,1370,o),
(746,1370,cs)
);
}
);
};
layerId = "F859EBB1-02CE-49D6-A9DD-2E3CD13E297E";
shapes = (
{
closed = 1;
nodes = (
(746,0,ls),
(1016,0,o),
(1188,172,o),
(1188,381,cs),
(1188,989,ls),
(1188,1198,o),
(1016,1370,o),
(746,1370,cs),
(438,1370,ls),
(168,1370,o),
(-4,1198,o),
(-4,989,cs),
(-4,381,ls),
(-4,172,o),
(168,0,o),
(438,0,cs)
);
},
{
closed = 1;
nodes = (
(572,1174,l),
(358,1174,l),
(358,1280,l),
(936,1280,l),
(936,1174,l),
(678,1174,l),
(678,336,l),
(555,326,l),
(545,291,l),
(559,232,l),
(670,222,l),
(670,132,l),
(527,144,l),
(467,203,l),
(455,281,l),
(455,300,l),
(467,357,l),
(525,414,l),
(572,414,l)
);
}
);
width = 1184;
}
);
unicode = 354;
},
{
color = 6;
glyphname = Tcommaaccent;
lastChange = "2023-04-20 13:24:50 +0000";
layers = (
{
background = {
shapes = (
{
closed = 1;
nodes = (
(602,147,l),
(641,248,l),
(576,248,l),
(576,377,l),
(727,377,l),
(727,248,l),
(666,119,l)
);
},
{
closed = 1;
nodes = (
(936,1174,l),
(666,1174,l),
(666,453,l),
(594,453,l),
(594,1174,l),
(358,1174,l),
(358,1280,l),
(936,1280,l)
);
},
{
closed = 1;
nodes = (
(438,1370,ls),
(168,1370,o),
(-4,1198,o),
(-4,989,cs),
(-4,381,ls),
(-4,172,o),
(168,0,o),
(438,0,cs),
(746,0,ls),
(1016,0,o),
(1188,172,o),
(1188,381,cs),
(1188,989,ls),
(1188,1198,o),
(1016,1370,o),
(746,1370,cs)
);
}
);
};
layerId = "F859EBB1-02CE-49D6-A9DD-2E3CD13E297E";
shapes = (
{
closed = 1;
nodes = (
(746,0,ls),
(1016,0,o),
(1188,172,o),
(1188,381,cs),
(1188,989,ls),
(1188,1198,o),
(1016,1370,o),
(746,1370,cs),
(438,1370,ls),
(168,1370,o),
(-4,1198,o),
(-4,989,cs),
(-4,381,ls),
(-4,172,o),
(168,0,o),
(438,0,cs)
);
},
{
closed = 1;
nodes = (
(602,147,l),
(641,248,l),
(576,248,l),
(576,377,l),
(727,377,l),
(727,248,l),
(666,119,l)
);
},
{
closed = 1;
nodes = (
(594,1174,l),
(358,1174,l),
(358,1280,l),
(936,1280,l),
(936,1174,l),
(666,1174,l),
(666,453,l),
(594,453,l)
);
}
);
width = 1184;
}
);
unicode = 538;
},
{
color = 6;
glyphname = U;
lastChange = "2023-04-20 13:24:50 +0000";
layers = (
{
anchors = (
{
name = bottom;
pos = (592,0);
},
{
name = ogonek;
pos = (1066,10);
},
{
name = top;
pos = (592,1370);
},
{
name = topright;
pos = (1164,1370);
}
);
background = {
shapes = (
{
closed = 1;
nodes = (
(438,1370,ls),
(168,1370,o),
(-4,1198,o),
(-4,989,cs),
(-4,381,ls),
(-4,172,o),
(168,0,o),
(438,0,cs),
(746,0,ls),
(1016,0,o),
(1188,172,o),
(1188,381,cs),
(1188,989,ls),
(1188,1198,o),
(1016,1370,o),
(746,1370,cs)
);
},
{
closed = 1;
nodes = (
(946,614,l),
(932,528,l),
(868,465,l),
(766,453,l),
(498,453,l),
(397,465,l),
(332,528,l),
(320,614,l),
(320,1280,l),
(424,1280,l),
(424,629,l),
(438,569,l),
(504,559,l),
(760,559,l),
(825,569,l),
(830,586,o),
(837,608,o),
(840,625,c),
(840,1280,l),
(946,1280,l)
);
}
);
};
layerId = "F859EBB1-02CE-49D6-A9DD-2E3CD13E297E";
shapes = (
{
closed = 1;
nodes = (
(746,0,ls),
(1016,0,o),
(1188,172,o),
(1188,381,cs),
(1188,989,ls),
(1188,1198,o),
(1016,1370,o),
(746,1370,cs),
(438,1370,ls),
(168,1370,o),
(-4,1198,o),
(-4,989,cs),
(-4,381,ls),
(-4,172,o),
(168,0,o),
(438,0,cs)
);
},
{
closed = 1;
nodes = (
(397,465,l),
(332,528,l),
(320,614,l),
(320,1280,l),
(424,1280,l),
(424,629,l),
(438,569,l),
(504,559,l),
(760,559,l),
(825,569,l),
(840,625,l),
(840,1280,l),
(946,1280,l),
(946,614,l),
(932,528,l),
(868,465,l),
(766,453,l),
(498,453,l)
);
}
);
width = 1184;
}
);
unicode = 85;
},
{
color = 10;
glyphname = Uacute;
lastChange = "2023-04-20 14:02:32 +0000";
layers = (
{
background = {
shapes = (
{
closed = 1;
nodes = (
(438,1370,ls),
(168,1370,o),
(-4,1198,o),
(-4,989,cs),
(-4,381,ls),
(-4,172,o),
(168,0,o),
(438,0,cs),
(746,0,ls),
(1016,0,o),
(1188,172,o),
(1188,381,cs),
(1188,989,ls),
(1188,1198,o),
(1016,1370,o),
(746,1370,cs)
);
},
{
closed = 1;
nodes = (
(946,614,l),
(932,528,l),
(868,465,l),
(766,453,l),
(498,453,l),
(397,465,l),
(332,528,l),
(320,614,l),
(320,1280,l),
(424,1280,l),
(424,629,l),
(438,569,l),
(504,559,l),
(760,559,l),
(825,569,l),
(830,586,o),
(837,608,o),
(840,625,c),
(840,1280,l),
(946,1280,l)
);
},
{
closed = 1;
nodes = (
(782,1293,l),
(797,1308,o),
(809,1327,o),
(825,1354,cs),
(983,1624,ls),
(1013,1675,o),
(1026,1720,o),
(1026,1757,cs),
(1026,1888,o),
(880,1958,o),
(731,1958,cs),
(618,1958,o),
(523,1929,o),
(491,1845,c),
(398,1560,o),
(387,1490,o),
(387,1463,cs),
(387,1383,o),
(446,1320,o),
(508,1293,c)
);
},
{
closed = 1;
nodes = (
(655,1450,l),
(586,1450,l),
(686,1784,l),
(807,1784,l)
);
}
);
};
layerId = "F859EBB1-02CE-49D6-A9DD-2E3CD13E297E";
shapes = (
{
ref = U;
},
{
pos = (396,1200);
ref = acutecomb;
}
);
width = 1184;
}
);
unicode = 218;
},
{
color = 10;
glyphname = Ubreve;
lastChange = "2023-04-20 14:02:32 +0000";
layers = (
{
background = {
shapes = (
{
closed = 1;
nodes = (
(438,1370,ls),
(168,1370,o),
(-4,1198,o),
(-4,989,cs),
(-4,381,ls),
(-4,172,o),
(168,0,o),
(438,0,cs),
(746,0,ls),
(1016,0,o),
(1188,172,o),
(1188,381,cs),
(1188,989,ls),
(1188,1198,o),
(1016,1370,o),
(746,1370,cs)
);
},
{
closed = 1;
nodes = (
(946,614,l),
(932,528,l),
(868,465,l),
(766,453,l),
(498,453,l),
(397,465,l),
(332,528,l),
(320,614,l),
(320,1280,l),
(424,1280,l),
(424,629,l),
(438,569,l),
(504,559,l),
(760,559,l),
(825,569,l),
(830,586,o),
(837,608,o),
(840,625,c),
(840,1280,l),
(946,1280,l)
);
},
{
closed = 1;
nodes = (
(912,1311,l),
(1024,1379,o),
(1086,1469,o),
(1086,1590,cs),
(1086,1763,o),
(914,1909,o),
(643,1909,cs),
(373,1909,o),
(201,1763,o),
(201,1590,cs),
(201,1469,o),
(262,1379,o),
(375,1311,c)
);
},
{
closed = 1;
nodes = (
(461,1610,l),
(551,1610,l),
(561,1540,l),
(617,1530,l),
(670,1530,l),
(729,1544,l),
(740,1610,l),
(830,1610,l),
(817,1512,l),
(758,1452,l),
(680,1440,l),
(609,1440,l),
(531,1452,l),
(473,1510,l)
);
}
);
};
layerId = "F859EBB1-02CE-49D6-A9DD-2E3CD13E297E";
shapes = (
{
ref = U;
},
{
pos = (200,1200);
ref = brevecomb;
}
);
width = 1184;
}
);
unicode = 364;
},
{
color = 10;
glyphname = Ucaron;
lastChange = "2023-04-20 14:02:32 +0000";
layers = (
{
background = {
shapes = (
{
closed = 1;
nodes = (
(438,1370,ls),
(168,1370,o),
(-4,1198,o),
(-4,989,cs),
(-4,381,ls),
(-4,172,o),
(168,0,o),
(438,0,cs),
(746,0,ls),
(1016,0,o),
(1188,172,o),
(1188,381,cs),
(1188,989,ls),
(1188,1198,o),
(1016,1370,o),
(746,1370,cs)
);
},
{
closed = 1;
nodes = (
(946,614,l),
(932,528,l),
(868,465,l),
(766,453,l),
(498,453,l),
(397,465,l),
(332,528,l),
(320,614,l),
(320,1280,l),
(424,1280,l),
(424,629,l),
(438,569,l),
(504,559,l),
(760,559,l),
(825,569,l),
(830,586,o),
(837,608,o),
(840,625,c),
(840,1280,l),
(946,1280,l)
);
},
{
closed = 1;
nodes = (
(615,1917,o),
(579,1940,o),
(512,1940,cs),
(340,1940,o),
(279,1848,o),
(279,1753,cs),
(279,1657,o),
(341,1468,o),
(398,1311,c),
(900,1311,l),
(948,1427,o),
(1016,1635,o),
(1016,1743,cs),
(1016,1851,o),
(957,1942,o),
(809,1942,cs),
(737,1942,o),
(691,1919,o),
(650,1882,c)
);
},
{
closed = 1;
nodes = (
(648,1471,l),
(742,1764,l),
(824,1764,l),
(693,1426,l),
(603,1426,l),
(472,1764,l),
(553,1764,l)
);
}
);
};
layerId = "F859EBB1-02CE-49D6-A9DD-2E3CD13E297E";
shapes = (
{
ref = U;
},
{
pos = (267,1240);
ref = caroncomb;
}
);
width = 1184;
}
);
unicode = 467;
},
{
color = 10;
glyphname = Ucircumflex;
lastChange = "2023-04-20 14:02:32 +0000";
layers = (
{
background = {
shapes = (
{
closed = 1;
nodes = (
(438,1370,ls),
(168,1370,o),
(-4,1198,o),
(-4,989,cs),
(-4,381,ls),
(-4,172,o),
(168,0,o),
(438,0,cs),
(746,0,ls),
(1016,0,o),
(1188,172,o),
(1188,381,cs),
(1188,989,ls),
(1188,1198,o),
(1016,1370,o),
(746,1370,cs)
);
},
{
closed = 1;
nodes = (
(946,614,l),
(932,528,l),
(868,465,l),
(766,453,l),
(498,453,l),
(397,465,l),
(332,528,l),
(320,614,l),
(320,1280,l),
(424,1280,l),
(424,629,l),
(438,569,l),
(504,559,l),
(760,559,l),
(825,569,l),
(830,586,o),
(837,608,o),
(840,625,c),
(840,1280,l),
(946,1280,l)
);
},
{
closed = 1;
nodes = (
(938,1311,l),
(984,1347,o),
(1007,1399,o),
(1007,1467,cs),
(1007,1519,o),
(969,1617,o),
(934,1706,cs),
(913,1757,o),
(889,1811,o),
(862,1868,cs),
(814,1967,o),
(755,2001,o),
(643,2001,cs),
(531,2001,o),
(469,1967,o),
(430,1899,c),
(358,1744,o),
(270,1553,o),
(270,1456,cs),
(270,1400,o),
(290,1346,o),
(331,1311,c)
);
},
{
closed = 1;
nodes = (
(544,1467,l),
(463,1467,l),
(594,1805,l),
(684,1805,l),
(815,1467,l),
(733,1467,l),
(639,1759,l)
);
}
);
};
layerId = "F859EBB1-02CE-49D6-A9DD-2E3CD13E297E";
shapes = (
{
ref = U;
},
{
pos = (257,1200);
ref = circumflexcomb;
}
);
width = 1184;
}
);
unicode = 219;
},
{
color = 10;
glyphname = Udblgrave;
lastChange = "2023-04-20 14:02:32 +0000";
layers = (
{
background = {
shapes = (
{
closed = 1;
nodes = (
(438,1370,ls),
(168,1370,o),
(-4,1198,o),
(-4,989,cs),
(-4,381,ls),
(-4,172,o),
(168,0,o),
(438,0,cs),
(746,0,ls),
(1016,0,o),
(1188,172,o),
(1188,381,cs),
(1188,989,ls),
(1188,1198,o),
(1016,1370,o),
(746,1370,cs)
);
},
{
closed = 1;
nodes = (
(946,614,l),
(932,528,l),
(868,465,l),
(766,453,l),
(498,453,l),
(397,465,l),
(332,528,l),
(320,614,l),
(320,1280,l),
(424,1280,l),
(424,629,l),
(438,569,l),
(504,559,l),
(760,559,l),
(825,569,l),
(830,586,o),
(837,608,o),
(840,625,c),
(840,1280,l),
(946,1280,l)
);
},
{
closed = 1;
nodes = (
(907,1296,l),
(940,1331,o),
(954,1374,o),
(954,1431,cs),
(954,1450,o),
(952,1472,o),
(948,1495,c),
(768,1828,ls),
(714,1927,o),
(677,1951,o),
(565,1962,c),
(473,1962,l),
(457,1929,l),
(426,1948,o),
(390,1955,o),
(334,1962,c),
(242,1962,l),
(86,1671,l),
(338,1296,l)
);
},
{
closed = 1;
nodes = (
(489,1765,l),
(582,1765,l),
(762,1431,l),
(711,1431,l)
);
},
{
closed = 1;
nodes = (
(258,1765,l),
(350,1765,l),
(530,1431,l),
(479,1431,l)
);
}
);
};
layerId = "F859EBB1-02CE-49D6-A9DD-2E3CD13E297E";
shapes = (
{
ref = U;
},
{
pos = (92,1200);
ref = dblgravecomb;
}
);
width = 1184;
}
);
unicode = 532;
},
{
color = 10;
glyphname = Udieresis;
lastChange = "2023-04-20 14:02:32 +0000";
layers = (
{
background = {
shapes = (
{
closed = 1;
nodes = (
(438,1370,ls),
(168,1370,o),
(-4,1198,o),
(-4,989,cs),
(-4,381,ls),
(-4,172,o),
(168,0,o),
(438,0,cs),
(746,0,ls),
(1016,0,o),
(1188,172,o),
(1188,381,cs),
(1188,989,ls),
(1188,1198,o),
(1016,1370,o),
(746,1370,cs)
);
},
{
closed = 1;
nodes = (
(946,614,l),
(932,528,l),
(868,465,l),
(766,453,l),
(498,453,l),
(397,465,l),
(332,528,l),
(320,614,l),
(320,1280,l),
(424,1280,l),
(424,629,l),
(438,569,l),
(504,559,l),
(760,559,l),
(825,569,l),
(830,586,o),
(837,608,o),
(840,625,c),
(840,1280,l),
(946,1280,l)
);
},
{
closed = 1;
nodes = (
(701,1479,l),
(701,1608,l),
(832,1608,l),
(832,1479,l)
);
},
{
closed = 1;
nodes = (
(910,1313,l),
(998,1370,o),
(1045,1458,o),
(1045,1563,cs),
(1045,1723,o),
(889,1862,o),
(643,1862,cs),
(398,1862,o),
(242,1723,o),
(242,1563,cs),
(242,1459,o),
(287,1370,o),
(375,1313,c)
);
},
{
closed = 1;
nodes = (
(439,1479,l),
(439,1608,l),
(570,1608,l),
(570,1479,l)
);
}
);
};
layerId = "F859EBB1-02CE-49D6-A9DD-2E3CD13E297E";
shapes = (
{
ref = U;
},
{
pos = (224,1220);
ref = dieresiscomb;
}
);
width = 1184;
}
);
unicode = 220;
},
{
color = 10;
glyphname = Ugrave;
lastChange = "2023-04-20 14:02:32 +0000";
layers = (
{
background = {
shapes = (
{
closed = 1;
nodes = (
(438,1370,ls),
(168,1370,o),
(-4,1198,o),
(-4,989,cs),
(-4,381,ls),
(-4,172,o),
(168,0,o),
(438,0,cs),
(746,0,ls),
(1016,0,o),
(1188,172,o),
(1188,381,cs),
(1188,989,ls),
(1188,1198,o),
(1016,1370,o),
(746,1370,cs)
);
},
{
closed = 1;
nodes = (
(946,614,l),
(932,528,l),
(868,465,l),
(766,453,l),
(498,453,l),
(397,465,l),
(332,528,l),
(320,614,l),
(320,1280,l),
(424,1280,l),
(424,629,l),
(438,569,l),
(504,559,l),
(760,559,l),
(825,569,l),
(830,586,o),
(837,608,o),
(840,625,c),
(840,1280,l),
(946,1280,l)
);
},
{
closed = 1;
nodes = (
(727,1293,l),
(789,1320,o),
(848,1383,o),
(848,1463,cs),
(848,1490,o),
(834,1560,o),
(744,1845,c),
(712,1929,o),
(617,1958,o),
(504,1958,cs),
(354,1958,o),
(209,1888,o),
(209,1757,c),
(208,1719,o),
(222,1675,o),
(252,1624,cs),
(410,1354,ls),
(426,1327,o),
(438,1308,o),
(453,1293,c)
);
},
{
closed = 1;
nodes = (
(428,1784,l),
(549,1784,l),
(649,1450,l),
(580,1450,l)
);
}
);
};
layerId = "F859EBB1-02CE-49D6-A9DD-2E3CD13E297E";
shapes = (
{
ref = U;
},
{
pos = (211,1200);
ref = gravecomb;
}
);
width = 1184;
}
);
unicode = 217;
},
{
color = 10;
glyphname = Uhungarumlaut;
lastChange = "2023-04-20 14:02:32 +0000";
layers = (
{
background = {
shapes = (
{
closed = 1;
nodes = (
(438,1370,ls),
(168,1370,o),
(-4,1198,o),
(-4,989,cs),
(-4,381,ls),
(-4,172,o),
(168,0,o),
(438,0,cs),
(746,0,ls),
(1016,0,o),
(1188,172,o),
(1188,381,cs),
(1188,989,ls),
(1188,1198,o),
(1016,1370,o),
(746,1370,cs)
);
},
{
closed = 1;
nodes = (
(946,614,l),
(932,528,l),
(868,465,l),
(766,453,l),
(498,453,l),
(397,465,l),
(332,528,l),
(320,614,l),
(320,1280,l),
(424,1280,l),
(424,629,l),
(438,569,l),
(504,559,l),
(760,559,l),
(825,569,l),
(830,586,o),
(837,608,o),
(840,625,c),
(840,1280,l),
(946,1280,l)
);
},
{
closed = 1;
nodes = (
(942,1311,l),
(1194,1686,l),
(1039,1977,l),
(947,1977,l),
(891,1970,o),
(855,1963,o),
(824,1944,c),
(807,1977,l),
(715,1977,l),
(603,1966,o),
(565,1942,o),
(512,1843,cs),
(332,1510,l),
(328,1487,o),
(326,1465,o),
(326,1446,cs),
(326,1389,o),
(340,1346,o),
(373,1311,c)
);
},
{
closed = 1;
nodes = (
(570,1446,l),
(519,1446,l),
(699,1780,l),
(791,1780,l)
);
},
{
closed = 1;
nodes = (
(801,1446,l),
(750,1446,l),
(930,1780,l),
(1022,1780,l)
);
}
);
};
layerId = "F859EBB1-02CE-49D6-A9DD-2E3CD13E297E";
shapes = (
{
ref = U;
},
{
pos = (321,1200);
ref = hungarumlautcomb;
}
);
width = 1184;
}
);
unicode = 368;
},
{
color = 10;
glyphname = Uinvertedbreve;
lastChange = "2023-04-20 14:02:32 +0000";
layers = (
{
background = {
shapes = (
{
closed = 1;
nodes = (
(1067,1752,o),
(895,1898,o),
(624,1898,cs),
(354,1898,o),
(182,1752,o),
(182,1579,cs),
(182,1485,o),
(218,1410,o),
(287,1350,c),
(105,1299,o),
(-4,1155,o),
(-4,989,cs),
(-4,381,ls),
(-4,172,o),
(168,0,o),
(438,0,cs),
(746,0,ls),
(1016,0,o),
(1188,172,o),
(1188,381,cs),
(1188,989,ls),
(1188,1141,o),
(1097,1273,o),
(943,1334,c),
(1023,1397,o),
(1067,1477,o),
(1067,1579,cs)
);
},
{
closed = 1;
nodes = (
(946,614,l),
(932,528,l),
(868,465,l),
(766,453,l),
(498,453,l),
(397,465,l),
(332,528,l),
(320,614,l),
(320,1280,l),
(424,1280,l),
(424,629,l),
(438,569,l),
(504,559,l),
(760,559,l),
(825,569,l),
(830,586,o),
(837,608,o),
(840,625,c),
(840,1280,l),
(946,1280,l)
);
},
{
closed = 1;
nodes = (
(454,1554,l),
(512,1611,l),
(590,1624,l),
(661,1624,l),
(739,1611,l),
(798,1552,l),
(811,1454,l),
(721,1454,l),
(710,1519,l),
(651,1533,l),
(598,1533,l),
(542,1523,l),
(532,1454,l),
(442,1454,l)
);
}
);
};
layerId = "F859EBB1-02CE-49D6-A9DD-2E3CD13E297E";
shapes = (
{
ref = U;
},
{
pos = (183,1200);
ref = breveinvertedcomb;
}
);
width = 1184;
}
);
unicode = 534;
},
{
color = 10;
glyphname = Umacron;
lastChange = "2023-04-20 14:02:32 +0000";
layers = (
{
background = {
shapes = (
{
closed = 1;
nodes = (
(438,1370,ls),
(168,1370,o),
(-4,1198,o),
(-4,989,cs),
(-4,381,ls),
(-4,172,o),
(168,0,o),
(438,0,cs),
(746,0,ls),
(1016,0,o),
(1188,172,o),
(1188,381,cs),
(1188,989,ls),
(1188,1198,o),
(1016,1370,o),
(746,1370,cs)
);
},
{
closed = 1;
nodes = (
(946,614,l),
(932,528,l),
(868,465,l),
(766,453,l),
(498,453,l),
(397,465,l),
(332,528,l),
(320,614,l),
(320,1280,l),
(424,1280,l),
(424,629,l),
(438,569,l),
(504,559,l),
(760,559,l),
(825,569,l),
(830,586,o),
(837,608,o),
(840,625,c),
(840,1280,l),
(946,1280,l)
);
}
);
};
layerId = "F859EBB1-02CE-49D6-A9DD-2E3CD13E297E";
shapes = (
{
ref = U;
},
{
pos = (202,1200);
ref = macroncomb;
}
);
width = 1184;
}
);
unicode = 362;
},
{
color = 10;
glyphname = Uogonek;
lastChange = "2023-04-20 13:40:37 +0000";
layers = (
{
background = {
shapes = (
{
closed = 1;
nodes = (
(946,614,l),
(932,528,l),
(868,465,l),
(766,453,l),
(754,453,l),
(643,326,l),
(633,291,l),
(647,231,l),
(758,221,l),
(758,131,l),
(614,143,l),
(555,203,l),
(543,281,l),
(555,356,l),
(612,414,l),
(684,453,l),
(498,453,l),
(397,465,l),
(332,528,l),
(320,614,l),
(320,1280,l),
(424,1280,l),
(424,629,l),
(438,569,l),
(504,559,l),
(760,559,l),
(825,569,l),
(830,586,o),
(837,608,o),
(840,625,c),
(840,1280,l),
(946,1280,l)
);
},
{
closed = 1;
nodes = (
(438,1370,ls),
(168,1370,o),
(-4,1198,o),
(-4,989,cs),
(-4,381,ls),
(-4,172,o),
(168,0,o),
(438,0,cs),
(746,0,ls),
(1016,0,o),
(1188,172,o),
(1188,381,cs),
(1188,989,ls),
(1188,1198,o),
(1016,1370,o),
(746,1370,cs)
);
}
);
};
layerId = "F859EBB1-02CE-49D6-A9DD-2E3CD13E297E";
shapes = (
{
closed = 1;
nodes = (
(746,0,ls),
(1016,0,o),
(1188,172,o),
(1188,381,cs),
(1188,989,ls),
(1188,1198,o),
(1016,1370,o),
(746,1370,cs),
(438,1370,ls),
(168,1370,o),
(-4,1198,o),
(-4,989,cs),
(-4,381,ls),
(-4,172,o),
(168,0,o),
(438,0,cs)
);
},
{
closed = 1;
nodes = (
(614,143,l),
(555,203,l),
(543,281,l),
(555,356,l),
(612,414,l),
(684,453,l),
(498,453,l),
(397,465,l),
(332,528,l),
(320,614,l),
(320,1280,l),
(424,1280,l),
(424,629,l),
(438,569,l),
(504,559,l),
(760,559,l),
(825,569,l),
(830,586,o),
(837,608,o),
(840,625,c),
(840,1280,l),
(946,1280,l),
(946,614,l),
(932,528,l),
(868,465,l),
(766,453,l),
(754,453,l),
(643,326,l),
(633,291,l),
(647,231,l),
(758,221,l),
(758,131,l)
);
}
);
width = 1184;
}
);
unicode = 370;
},
{
color = 10;
glyphname = Uring;
lastChange = "2023-04-20 14:02:32 +0000";
layers = (
{
background = {
shapes = (
{
closed = 1;
nodes = (
(438,1370,ls),
(168,1370,o),
(-4,1198,o),
(-4,989,cs),
(-4,381,ls),
(-4,172,o),
(168,0,o),
(438,0,cs),
(746,0,ls),
(1016,0,o),
(1188,172,o),
(1188,381,cs),
(1188,989,ls),
(1188,1198,o),
(1016,1370,o),
(746,1370,cs)
);
},
{
closed = 1;
nodes = (
(946,614,l),
(932,528,l),
(868,465,l),
(766,453,l),
(498,453,l),
(397,465,l),
(332,528,l),
(320,614,l),
(320,1280,l),
(424,1280,l),
(424,629,l),
(438,569,l),
(504,559,l),
(760,559,l),
(825,569,l),
(830,586,o),
(837,608,o),
(840,625,c),
(840,1280,l),
(946,1280,l)
);
},
{
closed = 1;
nodes = (
(926,1311,l),
(982,1379,o),
(1014,1467,o),
(1014,1567,cs),
(1014,1776,o),
(865,1948,o),
(633,1948,cs),
(398,1948,o),
(252,1776,o),
(252,1567,cs),
(252,1471,o),
(280,1379,o),
(340,1311,c)
);
},
{
closed = 1;
nodes = (
(666,1766,l),
(737,1751,l),
(795,1698,l),
(803,1600,l),
(795,1514,l),
(737,1458,l),
(666,1446,l),
(598,1446,l),
(524,1458,l),
(471,1512,l),
(459,1610,l),
(471,1698,l),
(524,1751,l),
(598,1766,l)
);
},
{
closed = 1;
nodes = (
(660,1686,l),
(606,1686,l),
(547,1676,l),
(537,1606,l),
(547,1536,l),
(602,1526,l),
(655,1526,l),
(715,1540,l),
(725,1606,l),
(715,1671,l)
);
}
);
};
layerId = "F859EBB1-02CE-49D6-A9DD-2E3CD13E297E";
shapes = (
{
ref = U;
},
{
pos = (239,1220);
ref = ringcomb;
}
);
width = 1184;
}
);
unicode = 366;
},
{
color = 10;
glyphname = Utilde;
lastChange = "2023-04-20 14:02:32 +0000";
layers = (
{
background = {
shapes = (
{
closed = 1;
nodes = (
(438,1370,ls),
(168,1370,o),
(-4,1198,o),
(-4,989,cs),
(-4,381,ls),
(-4,172,o),
(168,0,o),
(438,0,cs),
(746,0,ls),
(1016,0,o),
(1188,172,o),
(1188,381,cs),
(1188,989,ls),
(1188,1198,o),
(1016,1370,o),
(746,1370,cs)
);
},
{
closed = 1;
nodes = (
(946,614,l),
(932,528,l),
(868,465,l),
(766,453,l),
(498,453,l),
(397,465,l),
(332,528,l),
(320,614,l),
(320,1280,l),
(424,1280,l),
(424,629,l),
(438,569,l),
(504,559,l),
(760,559,l),
(825,569,l),
(830,586,o),
(837,608,o),
(840,625,c),
(840,1280,l),
(946,1280,l)
);
},
{
closed = 1;
nodes = (
(955,1311,l),
(1039,1383,o),
(1086,1481,o),
(1086,1590,cs),
(1086,1798,o),
(914,1970,o),
(643,1970,cs),
(373,1970,o),
(201,1798,o),
(201,1590,cs),
(201,1477,o),
(246,1383,o),
(334,1311,c)
);
},
{
closed = 1;
nodes = (
(640,1430,o),
(579,1501,o),
(539,1501,cs),
(520,1501,o),
(507,1485,o),
(496,1434,c),
(406,1434,l),
(406,1446,ls),
(406,1483,o),
(412,1583,o),
(490,1583,cs),
(629,1583,o),
(679,1518,o),
(711,1518,cs),
(730,1518,o),
(741,1534,o),
(760,1594,c),
(850,1594,l),
(850,1561,ls),
(850,1512,o),
(842,1430,o),
(766,1430,cs)
);
}
);
};
layerId = "F859EBB1-02CE-49D6-A9DD-2E3CD13E297E";
shapes = (
{
ref = U;
},
{
pos = (207,1220);
ref = tildecomb;
}
);
width = 1184;
}
);
unicode = 360;
},
{
color = 6;
glyphname = V;
lastChange = "2023-04-20 13:24:50 +0000";
layers = (
{
anchors = (
{
name = bottom;
pos = (592,0);
},
{
name = top;
pos = (592,1370);
}
);
background = {
shapes = (
{
closed = 1;
nodes = (
(565,465,l),
(506,524,l),
(309,1260,l),
(426,1280,l),
(606,563,l),
(633,557,l),
(655,565,l),
(836,1280,l),
(952,1260,l),
(756,524,l),
(696,465,l),
(629,446,l)
);
},
{
closed = 1;
nodes = (
(438,1370,ls),
(168,1370,o),
(-4,1198,o),
(-4,989,cs),
(-4,381,ls),
(-4,172,o),
(168,0,o),
(438,0,cs),
(746,0,ls),
(1016,0,o),
(1188,172,o),
(1188,381,cs),
(1188,989,ls),
(1188,1198,o),
(1016,1370,o),
(746,1370,cs)
);
}
);
};
layerId = "F859EBB1-02CE-49D6-A9DD-2E3CD13E297E";
shapes = (
{
closed = 1;
nodes = (
(746,0,ls),
(1016,0,o),
(1188,172,o),
(1188,381,cs),
(1188,989,ls),
(1188,1198,o),
(1016,1370,o),
(746,1370,cs),
(438,1370,ls),
(168,1370,o),
(-4,1198,o),
(-4,989,cs),
(-4,381,ls),
(-4,172,o),
(168,0,o),
(438,0,cs)
);
},
{
closed = 1;
nodes = (
(565,465,l),
(506,524,l),
(309,1260,l),
(426,1280,l),
(606,563,l),
(633,557,l),
(655,565,l),
(836,1280,l),
(952,1260,l),
(756,524,l),
(696,465,l),
(629,446,l)
);
}
);
width = 1184;
}
);
unicode = 86;
},
{
color = 6;
glyphname = W;
lastChange = "2023-04-20 13:24:50 +0000";
layers = (
{
anchors = (
{
name = bottom;
pos = (592,0);
},
{
name = top;
pos = (592,1370);
}
);
background = {
shapes = (
{
closed = 1;
nodes = (
(787,565,l),
(809,557,l),
(836,563,l),
(903,1280,l),
(1018,1260,l),
(938,526,l),
(877,465,l),
(811,449,l),
(746,465,l),
(684,526,l),
(619,967,l),
(553,526,l),
(492,465,l),
(426,449,l),
(361,465,l),
(299,526,l),
(219,1260,l),
(334,1280,l),
(402,563,l),
(428,557,l),
(451,565,l),
(569,1247,l),
(668,1247,l)
);
},
{
closed = 1;
nodes = (
(746,0,ls),
(1016,0,o),
(1188,172,o),
(1188,381,cs),
(1188,989,ls),
(1188,1198,o),
(1016,1370,o),
(746,1370,cs),
(438,1370,ls),
(168,1370,o),
(-4,1198,o),
(-4,989,cs),
(-4,381,ls),
(-4,172,o),
(168,0,o),
(438,0,cs)
);
}
);
};
layerId = "F859EBB1-02CE-49D6-A9DD-2E3CD13E297E";
shapes = (
{
closed = 1;
nodes = (
(746,0,ls),
(1016,0,o),
(1188,172,o),
(1188,381,cs),
(1188,989,ls),
(1188,1198,o),
(1016,1370,o),
(746,1370,cs),
(438,1370,ls),
(168,1370,o),
(-4,1198,o),
(-4,989,cs),
(-4,381,ls),
(-4,172,o),
(168,0,o),
(438,0,cs)
);
},
{
closed = 1;
nodes = (
(361,465,l),
(299,526,l),
(219,1260,l),
(334,1280,l),
(402,563,l),
(428,557,l),
(451,565,l),
(569,1247,l),
(668,1247,l),
(787,565,l),
(809,557,l),
(836,563,l),
(903,1280,l),
(1018,1260,l),
(938,526,l),
(877,465,l),
(811,449,l),
(746,465,l),
(684,526,l),
(619,967,l),
(553,526,l),
(492,465,l),
(426,449,l)
);
}
);
width = 1184;
}
);
unicode = 87;
},
{
color = 10;
glyphname = Wacute;
lastChange = "2023-04-20 14:02:32 +0000";
layers = (
{
background = {
shapes = (
{
closed = 1;
nodes = (
(787,565,l),
(809,557,l),
(836,563,l),
(903,1280,l),
(1018,1260,l),
(938,526,l),
(877,465,l),
(811,449,l),
(746,465,l),
(684,526,l),
(619,967,l),
(553,526,l),
(492,465,l),
(426,449,l),
(361,465,l),
(299,526,l),
(219,1260,l),
(334,1280,l),
(402,563,l),
(428,557,l),
(451,565,l),
(569,1247,l),
(668,1247,l)
);
},
{
closed = 1;
nodes = (
(746,0,ls),
(1016,0,o),
(1188,172,o),
(1188,381,cs),
(1188,989,ls),
(1188,1198,o),
(1016,1370,o),
(746,1370,cs),
(438,1370,ls),
(168,1370,o),
(-4,1198,o),
(-4,989,cs),
(-4,381,ls),
(-4,172,o),
(168,0,o),
(438,0,cs)
);
},
{
closed = 1;
nodes = (
(1575,23,l),
(1590,38,o),
(1602,57,o),
(1618,84,cs),
(1776,354,ls),
(1806,405,o),
(1819,450,o),
(1819,487,cs),
(1819,618,o),
(1673,688,o),
(1524,688,cs),
(1411,688,o),
(1316,659,o),
(1284,575,c),
(1191,290,o),
(1180,220,o),
(1180,193,cs),
(1180,113,o),
(1239,50,o),
(1301,23,c)
);
},
{
closed = 1;
nodes = (
(1448,180,l),
(1379,180,l),
(1479,514,l),
(1600,514,l)
);
}
);
};
layerId = "F859EBB1-02CE-49D6-A9DD-2E3CD13E297E";
shapes = (
{
ref = W;
},
{
pos = (396,1200);
ref = acutecomb;
}
);
width = 1184;
}
);
unicode = 7810;
},
{
color = 10;
glyphname = Wcircumflex;
lastChange = "2023-04-20 14:02:32 +0000";
layers = (
{
background = {
shapes = (
{
closed = 1;
nodes = (
(787,565,l),
(809,557,l),
(836,563,l),
(903,1280,l),
(1018,1260,l),
(938,526,l),
(877,465,l),
(811,449,l),
(746,465,l),
(684,526,l),
(619,967,l),
(553,526,l),
(492,465,l),
(426,449,l),
(361,465,l),
(299,526,l),
(219,1260,l),
(334,1280,l),
(402,563,l),
(428,557,l),
(451,565,l),
(569,1247,l),
(668,1247,l)
);
},
{
closed = 1;
nodes = (
(746,0,ls),
(1016,0,o),
(1188,172,o),
(1188,381,cs),
(1188,989,ls),
(1188,1198,o),
(1016,1370,o),
(746,1370,cs),
(438,1370,ls),
(168,1370,o),
(-4,1198,o),
(-4,989,cs),
(-4,381,ls),
(-4,172,o),
(168,0,o),
(438,0,cs)
);
},
{
closed = 1;
nodes = (
(914,1303,l),
(960,1339,o),
(983,1391,o),
(983,1459,cs),
(983,1511,o),
(945,1609,o),
(910,1698,cs),
(889,1749,o),
(865,1803,o),
(838,1860,cs),
(790,1959,o),
(731,1993,o),
(619,1993,cs),
(507,1993,o),
(445,1959,o),
(406,1891,c),
(334,1736,o),
(246,1545,o),
(246,1448,cs),
(246,1392,o),
(266,1338,o),
(307,1303,c)
);
},
{
closed = 1;
nodes = (
(520,1459,l),
(439,1459,l),
(570,1797,l),
(660,1797,l),
(791,1459,l),
(709,1459,l),
(615,1751,l)
);
}
);
};
layerId = "F859EBB1-02CE-49D6-A9DD-2E3CD13E297E";
shapes = (
{
ref = W;
},
{
pos = (257,1200);
ref = circumflexcomb;
}
);
width = 1184;
}
);
unicode = 372;
},
{
color = 10;
glyphname = Wdieresis;
lastChange = "2023-04-20 14:02:32 +0000";
layers = (
{
background = {
shapes = (
{
closed = 1;
nodes = (
(787,565,l),
(809,557,l),
(836,563,l),
(903,1280,l),
(1018,1260,l),
(938,526,l),
(877,465,l),
(811,449,l),
(746,465,l),
(684,526,l),
(619,967,l),
(553,526,l),
(492,465,l),
(426,449,l),
(361,465,l),
(299,526,l),
(219,1260,l),
(334,1280,l),
(402,563,l),
(428,557,l),
(451,565,l),
(569,1247,l),
(668,1247,l)
);
},
{
closed = 1;
nodes = (
(746,0,ls),
(1016,0,o),
(1188,172,o),
(1188,381,cs),
(1188,989,ls),
(1188,1198,o),
(1016,1370,o),
(746,1370,cs),
(438,1370,ls),
(168,1370,o),
(-4,1198,o),
(-4,989,cs),
(-4,381,ls),
(-4,172,o),
(168,0,o),
(438,0,cs)
);
},
{
closed = 1;
nodes = (
(1639,207,l),
(1639,336,l),
(1770,336,l),
(1770,207,l)
);
},
{
closed = 1;
nodes = (
(1848,41,l),
(1936,98,o),
(1983,186,o),
(1983,291,cs),
(1983,451,o),
(1827,590,o),
(1581,590,cs),
(1336,590,o),
(1180,451,o),
(1180,291,cs),
(1180,187,o),
(1225,98,o),
(1313,41,c)
);
},
{
closed = 1;
nodes = (
(1377,207,l),
(1377,336,l),
(1508,336,l),
(1508,207,l)
);
}
);
};
layerId = "F859EBB1-02CE-49D6-A9DD-2E3CD13E297E";
shapes = (
{
ref = W;
},
{
pos = (224,1220);
ref = dieresiscomb;
}
);
width = 1184;
}
);
unicode = 7812;
},
{
color = 10;
glyphname = Wgrave;
lastChange = "2023-04-20 14:02:32 +0000";
layers = (
{
background = {
shapes = (
{
closed = 1;
nodes = (
(787,565,l),
(809,557,l),
(836,563,l),
(903,1280,l),
(1018,1260,l),
(938,526,l),
(877,465,l),
(811,449,l),
(746,465,l),
(684,526,l),
(619,967,l),
(553,526,l),
(492,465,l),
(426,449,l),
(361,465,l),
(299,526,l),
(219,1260,l),
(334,1280,l),
(402,563,l),
(428,557,l),
(451,565,l),
(569,1247,l),
(668,1247,l)
);
},
{
closed = 1;
nodes = (
(746,0,ls),
(1016,0,o),
(1188,172,o),
(1188,381,cs),
(1188,989,ls),
(1188,1198,o),
(1016,1370,o),
(746,1370,cs),
(438,1370,ls),
(168,1370,o),
(-4,1198,o),
(-4,989,cs),
(-4,381,ls),
(-4,172,o),
(168,0,o),
(438,0,cs)
);
},
{
closed = 1;
nodes = (
(1698,23,l),
(1760,50,o),
(1819,113,o),
(1819,193,cs),
(1819,220,o),
(1805,290,o),
(1715,575,c),
(1683,659,o),
(1588,688,o),
(1475,688,cs),
(1325,688,o),
(1180,618,o),
(1180,487,c),
(1179,449,o),
(1193,405,o),
(1223,354,cs),
(1381,84,ls),
(1397,57,o),
(1409,38,o),
(1424,23,c)
);
},
{
closed = 1;
nodes = (
(1399,514,l),
(1520,514,l),
(1620,180,l),
(1551,180,l)
);
}
);
};
layerId = "F859EBB1-02CE-49D6-A9DD-2E3CD13E297E";
shapes = (
{
ref = W;
},
{
pos = (211,1200);
ref = gravecomb;
}
);
width = 1184;
}
);
unicode = 7808;
},
{
color = 6;
glyphname = X;
lastChange = "2023-04-20 13:24:50 +0000";
layers = (
{
anchors = (
{
name = bottom;
pos = (592,0);
},
{
name = top;
pos = (592,1370);
}
);
background = {
shapes = (
{
closed = 1;
nodes = (
(438,1370,ls),
(168,1370,o),
(-4,1198,o),
(-4,989,cs),
(-4,381,ls),
(-4,172,o),
(168,0,o),
(438,0,cs),
(746,0,ls),
(1016,0,o),
(1188,172,o),
(1188,381,cs),
(1188,989,ls),
(1188,1198,o),
(1016,1370,o),
(746,1370,cs)
);
},
{
closed = 1;
nodes = (
(967,1245,l),
(731,864,l),
(963,489,l),
(868,451,l),
(641,799,l),
(420,451,l),
(326,489,l),
(557,864,l),
(324,1241,l),
(420,1282,l),
(641,922,l),
(868,1282,l)
);
}
);
};
layerId = "F859EBB1-02CE-49D6-A9DD-2E3CD13E297E";
shapes = (
{
closed = 1;
nodes = (
(746,0,ls),
(1016,0,o),
(1188,172,o),
(1188,381,cs),
(1188,989,ls),
(1188,1198,o),
(1016,1370,o),
(746,1370,cs),
(438,1370,ls),
(168,1370,o),
(-4,1198,o),
(-4,989,cs),
(-4,381,ls),
(-4,172,o),
(168,0,o),
(438,0,cs)
);
},
{
closed = 1;
nodes = (
(326,489,l),
(557,864,l),
(324,1241,l),
(420,1282,l),
(641,922,l),
(868,1282,l),
(967,1245,l),
(731,864,l),
(963,489,l),
(868,451,l),
(641,799,l),
(420,451,l)
);
}
);
width = 1184;
}
);
unicode = 88;
},
{
color = 6;
glyphname = Y;
lastChange = "2023-04-20 13:24:50 +0000";
layers = (
{
anchors = (
{
name = bottom;
pos = (592,0);
},
{
name = top;
pos = (592,1370);
},
{
name = topleft;
pos = (20,1370);
}
);
background = {
shapes = (
{
closed = 1;
nodes = (
(637,831,l),
(819,1280,l),
(944,1280,l),
(690,684,l),
(690,453,l),
(584,453,l),
(584,686,l),
(334,1280,l),
(459,1280,l)
);
},
{
closed = 1;
nodes = (
(438,1370,ls),
(168,1370,o),
(-4,1198,o),
(-4,989,cs),
(-4,381,ls),
(-4,172,o),
(168,0,o),
(438,0,cs),
(746,0,ls),
(1016,0,o),
(1188,172,o),
(1188,381,cs),
(1188,989,ls),
(1188,1198,o),
(1016,1370,o),
(746,1370,cs)
);
}
);
};
layerId = "F859EBB1-02CE-49D6-A9DD-2E3CD13E297E";
shapes = (
{
closed = 1;
nodes = (
(746,0,ls),
(1016,0,o),
(1188,172,o),
(1188,381,cs),
(1188,989,ls),
(1188,1198,o),
(1016,1370,o),
(746,1370,cs),
(438,1370,ls),
(168,1370,o),
(-4,1198,o),
(-4,989,cs),
(-4,381,ls),
(-4,172,o),
(168,0,o),
(438,0,cs)
);
},
{
closed = 1;
nodes = (
(584,686,l),
(334,1280,l),
(459,1280,l),
(637,831,l),
(819,1280,l),
(944,1280,l),
(690,684,l),
(690,453,l),
(584,453,l)
);
}
);
width = 1184;
}
);
unicode = 89;
},
{
color = 10;
glyphname = Yacute;
lastChange = "2023-04-20 14:02:32 +0000";
layers = (
{
background = {
shapes = (
{
closed = 1;
nodes = (
(637,831,l),
(819,1280,l),
(944,1280,l),
(690,684,l),
(690,453,l),
(584,453,l),
(584,686,l),
(334,1280,l),
(459,1280,l)
);
},
{
closed = 1;
nodes = (
(438,1370,ls),
(168,1370,o),
(-4,1198,o),
(-4,989,cs),
(-4,381,ls),
(-4,172,o),
(168,0,o),
(438,0,cs),
(746,0,ls),
(1016,0,o),
(1188,172,o),
(1188,381,cs),
(1188,989,ls),
(1188,1198,o),
(1016,1370,o),
(746,1370,cs)
);
},
{
closed = 1;
nodes = (
(778,1293,l),
(793,1308,o),
(805,1327,o),
(821,1354,cs),
(979,1624,ls),
(1009,1675,o),
(1022,1720,o),
(1022,1757,cs),
(1022,1888,o),
(876,1958,o),
(727,1958,cs),
(614,1958,o),
(519,1929,o),
(487,1845,c),
(394,1560,o),
(383,1490,o),
(383,1463,cs),
(383,1383,o),
(442,1320,o),
(504,1293,c)
);
},
{
closed = 1;
nodes = (
(651,1450,l),
(582,1450,l),
(682,1784,l),
(803,1784,l)
);
}
);
};
layerId = "F859EBB1-02CE-49D6-A9DD-2E3CD13E297E";
shapes = (
{
ref = Y;
},
{
pos = (396,1200);
ref = acutecomb;
}
);
width = 1184;
}
);
unicode = 221;
},
{
color = 10;
glyphname = Ycircumflex;
lastChange = "2023-04-20 14:02:32 +0000";
layers = (
{
background = {
shapes = (
{
closed = 1;
nodes = (
(637,831,l),
(819,1280,l),
(944,1280,l),
(690,684,l),
(690,453,l),
(584,453,l),
(584,686,l),
(334,1280,l),
(459,1280,l)
);
},
{
closed = 1;
nodes = (
(438,1370,ls),
(168,1370,o),
(-4,1198,o),
(-4,989,cs),
(-4,381,ls),
(-4,172,o),
(168,0,o),
(438,0,cs),
(746,0,ls),
(1016,0,o),
(1188,172,o),
(1188,381,cs),
(1188,989,ls),
(1188,1198,o),
(1016,1370,o),
(746,1370,cs)
);
},
{
closed = 1;
nodes = (
(934,1311,l),
(980,1347,o),
(1003,1399,o),
(1003,1467,cs),
(1003,1519,o),
(965,1617,o),
(930,1706,cs),
(909,1757,o),
(885,1811,o),
(858,1868,cs),
(810,1967,o),
(751,2001,o),
(639,2001,cs),
(527,2001,o),
(465,1967,o),
(426,1899,c),
(354,1744,o),
(266,1553,o),
(266,1456,cs),
(266,1400,o),
(286,1346,o),
(327,1311,c)
);
},
{
closed = 1;
nodes = (
(540,1467,l),
(459,1467,l),
(590,1805,l),
(680,1805,l),
(811,1467,l),
(729,1467,l),
(635,1759,l)
);
}
);
};
layerId = "F859EBB1-02CE-49D6-A9DD-2E3CD13E297E";
shapes = (
{
ref = Y;
},
{
pos = (257,1200);
ref = circumflexcomb;
}
);
width = 1184;
}
);
unicode = 374;
},
{
color = 10;
glyphname = Ydieresis;
lastChange = "2023-04-20 14:02:32 +0000";
layers = (
{
background = {
shapes = (
{
closed = 1;
nodes = (
(637,831,l),
(819,1280,l),
(944,1280,l),
(690,684,l),
(690,453,l),
(584,453,l),
(584,686,l),
(334,1280,l),
(459,1280,l)
);
},
{
closed = 1;
nodes = (
(438,1370,ls),
(168,1370,o),
(-4,1198,o),
(-4,989,cs),
(-4,381,ls),
(-4,172,o),
(168,0,o),
(438,0,cs),
(746,0,ls),
(1016,0,o),
(1188,172,o),
(1188,381,cs),
(1188,989,ls),
(1188,1198,o),
(1016,1370,o),
(746,1370,cs)
);
},
{
closed = 1;
nodes = (
(697,1479,l),
(697,1608,l),
(828,1608,l),
(828,1479,l)
);
},
{
closed = 1;
nodes = (
(906,1313,l),
(994,1370,o),
(1041,1458,o),
(1041,1563,cs),
(1041,1723,o),
(885,1862,o),
(639,1862,cs),
(394,1862,o),
(238,1723,o),
(238,1563,cs),
(238,1459,o),
(283,1370,o),
(371,1313,c)
);
},
{
closed = 1;
nodes = (
(435,1479,l),
(435,1608,l),
(566,1608,l),
(566,1479,l)
);
}
);
};
layerId = "F859EBB1-02CE-49D6-A9DD-2E3CD13E297E";
shapes = (
{
ref = Y;
},
{
pos = (224,1220);
ref = dieresiscomb;
}
);
width = 1184;
}
);
unicode = 376;
},
{
color = 10;
glyphname = Ydotaccent;
lastChange = "2023-04-20 14:02:32 +0000";
layers = (
{
background = {
shapes = (
{
closed = 1;
nodes = (
(637,831,l),
(819,1280,l),
(944,1280,l),
(690,684,l),
(690,453,l),
(584,453,l),
(584,686,l),
(334,1280,l),
(459,1280,l)
);
},
{
closed = 1;
nodes = (
(438,1370,ls),
(168,1370,o),
(-4,1198,o),
(-4,989,cs),
(-4,381,ls),
(-4,172,o),
(168,0,o),
(438,0,cs),
(746,0,ls),
(1016,0,o),
(1188,172,o),
(1188,381,cs),
(1188,989,ls),
(1188,1198,o),
(1016,1370,o),
(746,1370,cs)
);
},
{
closed = 1;
nodes = (
(570,1462,l),
(570,1591,l),
(701,1591,l),
(701,1462,l)
);
},
{
closed = 1;
nodes = (
(988,1290,l),
(1049,1362,o),
(1082,1447,o),
(1082,1551,cs),
(1082,1724,o),
(910,1870,o),
(639,1870,cs),
(369,1870,o),
(197,1724,o),
(197,1551,cs),
(197,1464,o),
(231,1349,o),
(293,1290,c)
);
}
);
};
layerId = "F859EBB1-02CE-49D6-A9DD-2E3CD13E297E";
shapes = (
{
ref = Y;
},
{
pos = (194,1200);
ref = dotaccentcomb;
}
);
width = 1184;
}
);
unicode = 7822;
},
{
color = 10;
glyphname = Ygrave;
lastChange = "2023-04-20 14:02:32 +0000";
layers = (
{
background = {
shapes = (
{
closed = 1;
nodes = (
(637,831,l),
(819,1280,l),
(944,1280,l),
(690,684,l),
(690,453,l),
(584,453,l),
(584,686,l),
(334,1280,l),
(459,1280,l)
);
},
{
closed = 1;
nodes = (
(438,1370,ls),
(168,1370,o),
(-4,1198,o),
(-4,989,cs),
(-4,381,ls),
(-4,172,o),
(168,0,o),
(438,0,cs),
(746,0,ls),
(1016,0,o),
(1188,172,o),
(1188,381,cs),
(1188,989,ls),
(1188,1198,o),
(1016,1370,o),
(746,1370,cs)
);
},
{
closed = 1;
nodes = (
(1698,23,l),
(1760,50,o),
(1819,113,o),
(1819,193,cs),
(1819,220,o),
(1805,290,o),
(1715,575,c),
(1683,659,o),
(1588,688,o),
(1475,688,cs),
(1325,688,o),
(1180,618,o),
(1180,487,c),
(1179,449,o),
(1193,405,o),
(1223,354,cs),
(1381,84,ls),
(1397,57,o),
(1409,38,o),
(1424,23,c)
);
},
{
closed = 1;
nodes = (
(1399,514,l),
(1520,514,l),
(1620,180,l),
(1551,180,l)
);
}
);
};
layerId = "F859EBB1-02CE-49D6-A9DD-2E3CD13E297E";
shapes = (
{
ref = Y;
},
{
pos = (211,1200);
ref = gravecomb;
}
);
width = 1184;
}
);
unicode = 7922;
},
{
color = 10;
glyphname = Ytilde;
lastChange = "2023-04-20 14:02:32 +0000";
layers = (
{
background = {
shapes = (
{
closed = 1;
nodes = (
(637,831,l),
(819,1280,l),
(944,1280,l),
(690,684,l),
(690,453,l),
(584,453,l),
(584,686,l),
(334,1280,l),
(459,1280,l)
);
},
{
closed = 1;
nodes = (
(438,1370,ls),
(168,1370,o),
(-4,1198,o),
(-4,989,cs),
(-4,381,ls),
(-4,172,o),
(168,0,o),
(438,0,cs),
(746,0,ls),
(1016,0,o),
(1188,172,o),
(1188,381,cs),
(1188,989,ls),
(1188,1198,o),
(1016,1370,o),
(746,1370,cs)
);
},
{
closed = 1;
nodes = (
(951,1311,l),
(1035,1383,o),
(1082,1481,o),
(1082,1590,cs),
(1082,1798,o),
(910,1970,o),
(639,1970,cs),
(369,1970,o),
(197,1798,o),
(197,1590,cs),
(197,1477,o),
(242,1383,o),
(330,1311,c)
);
},
{
closed = 1;
nodes = (
(636,1430,o),
(575,1501,o),
(535,1501,cs),
(516,1501,o),
(503,1485,o),
(492,1434,c),
(402,1434,l),
(402,1446,ls),
(402,1483,o),
(408,1583,o),
(486,1583,cs),
(625,1583,o),
(675,1518,o),
(707,1518,cs),
(726,1518,o),
(737,1534,o),
(756,1594,c),
(846,1594,l),
(846,1561,ls),
(846,1512,o),
(838,1430,o),
(762,1430,cs)
);
}
);
};
layerId = "F859EBB1-02CE-49D6-A9DD-2E3CD13E297E";
shapes = (
{
ref = Y;
},
{
pos = (207,1220);
ref = tildecomb;
}
);
width = 1184;
}
);
unicode = 7928;
},
{
color = 6;
glyphname = Z;
lastChange = "2023-04-20 13:24:50 +0000";
layers = (
{
anchors = (
{
name = bottom;
pos = (592,0);
},
{
name = center;
pos = (592,685);
},
{
name = top;
pos = (592,1370);
}
);
background = {
shapes = (
{
closed = 1;
nodes = (
(885,453,l),
(410,453,l),
(377,539,l),
(731,1174,l),
(393,1174,l),
(393,1280,l),
(821,1280,l),
(862,1192,l),
(508,557,l),
(885,557,l)
);
},
{
closed = 1;
nodes = (
(438,1370,ls),
(168,1370,o),
(-4,1198,o),
(-4,989,cs),
(-4,381,ls),
(-4,172,o),
(168,0,o),
(438,0,cs),
(746,0,ls),
(1016,0,o),
(1188,172,o),
(1188,381,cs),
(1188,989,ls),
(1188,1198,o),
(1016,1370,o),
(746,1370,cs)
);
}
);
};
layerId = "F859EBB1-02CE-49D6-A9DD-2E3CD13E297E";
shapes = (
{
closed = 1;
nodes = (
(746,0,ls),
(1016,0,o),
(1188,172,o),
(1188,381,cs),
(1188,989,ls),
(1188,1198,o),
(1016,1370,o),
(746,1370,cs),
(438,1370,ls),
(168,1370,o),
(-4,1198,o),
(-4,989,cs),
(-4,381,ls),
(-4,172,o),
(168,0,o),
(438,0,cs)
);
},
{
closed = 1;
nodes = (
(377,539,l),
(731,1174,l),
(393,1174,l),
(393,1280,l),
(821,1280,l),
(862,1192,l),
(508,557,l),
(885,557,l),
(885,453,l),
(410,453,l)
);
}
);
width = 1184;
}
);
unicode = 90;
},
{
color = 10;
glyphname = Zacute;
lastChange = "2023-04-20 14:02:32 +0000";
layers = (
{
background = {
shapes = (
{
closed = 1;
nodes = (
(885,453,l),
(410,453,l),
(377,539,l),
(731,1174,l),
(393,1174,l),
(393,1280,l),
(821,1280,l),
(862,1192,l),
(508,557,l),
(885,557,l)
);
},
{
closed = 1;
nodes = (
(438,1370,ls),
(168,1370,o),
(-4,1198,o),
(-4,989,cs),
(-4,381,ls),
(-4,172,o),
(168,0,o),
(438,0,cs),
(746,0,ls),
(1016,0,o),
(1188,172,o),
(1188,381,cs),
(1188,989,ls),
(1188,1198,o),
(1016,1370,o),
(746,1370,cs)
);
},
{
closed = 1;
nodes = (
(708,1305,l),
(723,1320,o),
(735,1339,o),
(751,1366,cs),
(909,1636,ls),
(939,1687,o),
(952,1732,o),
(952,1769,cs),
(952,1900,o),
(806,1970,o),
(657,1970,cs),
(544,1970,o),
(449,1941,o),
(417,1857,c),
(324,1572,o),
(313,1502,o),
(313,1475,cs),
(313,1395,o),
(372,1332,o),
(434,1305,c)
);
},
{
closed = 1;
nodes = (
(581,1462,l),
(512,1462,l),
(612,1796,l),
(733,1796,l)
);
}
);
};
layerId = "F859EBB1-02CE-49D6-A9DD-2E3CD13E297E";
shapes = (
{
ref = Z;
},
{
pos = (396,1200);
ref = acutecomb;
}
);
width = 1184;
}
);
unicode = 377;
},
{
color = 10;
glyphname = Zcaron;
lastChange = "2023-04-20 14:02:32 +0000";
layers = (
{
background = {
shapes = (
{
closed = 1;
nodes = (
(885,453,l),
(410,453,l),
(377,539,l),
(731,1174,l),
(393,1174,l),
(393,1280,l),
(821,1280,l),
(862,1192,l),
(508,557,l),
(885,557,l)
);
},
{
closed = 1;
nodes = (
(438,1370,ls),
(168,1370,o),
(-4,1198,o),
(-4,989,cs),
(-4,381,ls),
(-4,172,o),
(168,0,o),
(438,0,cs),
(746,0,ls),
(1016,0,o),
(1188,172,o),
(1188,381,cs),
(1188,989,ls),
(1188,1198,o),
(1016,1370,o),
(746,1370,cs)
);
},
{
closed = 1;
nodes = (
(576,1911,o),
(540,1934,o),
(473,1934,cs),
(301,1934,o),
(240,1842,o),
(240,1747,cs),
(240,1651,o),
(302,1462,o),
(359,1305,c),
(861,1305,l),
(909,1421,o),
(977,1629,o),
(977,1737,cs),
(977,1845,o),
(918,1936,o),
(770,1936,cs),
(698,1936,o),
(652,1913,o),
(611,1876,c)
);
},
{
closed = 1;
nodes = (
(609,1465,l),
(703,1758,l),
(785,1758,l),
(654,1420,l),
(564,1420,l),
(433,1758,l),
(514,1758,l)
);
}
);
};
layerId = "F859EBB1-02CE-49D6-A9DD-2E3CD13E297E";
shapes = (
{
ref = Z;
},
{
pos = (267,1240);
ref = caroncomb;
}
);
width = 1184;
}
);
unicode = 381;
},
{
color = 10;
glyphname = Zdotaccent;
lastChange = "2023-04-20 14:02:32 +0000";
layers = (
{
background = {
shapes = (
{
closed = 1;
nodes = (
(885,453,l),
(410,453,l),
(377,539,l),
(731,1174,l),
(393,1174,l),
(393,1280,l),
(821,1280,l),
(862,1192,l),
(508,557,l),
(885,557,l)
);
},
{
closed = 1;
nodes = (
(438,1370,ls),
(168,1370,o),
(-4,1198,o),
(-4,989,cs),
(-4,381,ls),
(-4,172,o),
(168,0,o),
(438,0,cs),
(746,0,ls),
(1016,0,o),
(1188,172,o),
(1188,381,cs),
(1188,989,ls),
(1188,1198,o),
(1016,1370,o),
(746,1370,cs)
);
},
{
closed = 1;
nodes = (
(523,1495,l),
(523,1624,l),
(654,1624,l),
(654,1495,l)
);
},
{
closed = 1;
nodes = (
(941,1323,l),
(1002,1395,o),
(1035,1480,o),
(1035,1584,cs),
(1035,1757,o),
(863,1903,o),
(592,1903,cs),
(322,1903,o),
(150,1757,o),
(150,1584,cs),
(150,1497,o),
(184,1382,o),
(246,1323,c)
);
}
);
};
layerId = "F859EBB1-02CE-49D6-A9DD-2E3CD13E297E";
shapes = (
{
ref = Z;
},
{
pos = (194,1200);
ref = dotaccentcomb;
}
);
width = 1184;
}
);
unicode = 379;
},
{
color = 6;
glyphname = a;
lastChange = "2023-04-20 13:24:50 +0000";
layers = (
{
anchors = (
{
name = bottom;
pos = (592,0);
},
{
name = ogonek;
pos = (1066,10);
},
{
name = top;
pos = (592,1370);
}
);
background = {
shapes = (
{
closed = 1;
nodes = (
(438,1370,ls),
(168,1370,o),
(-4,1198,o),
(-4,989,cs),
(-4,381,ls),
(-4,172,o),
(168,0,o),
(438,0,cs),
(746,0,ls),
(1016,0,o),
(1188,172,o),
(1188,381,cs),
(1188,989,ls),
(1188,1198,o),
(1016,1370,o),
(746,1370,cs)
);
},
{
closed = 1;
nodes = (
(770,465,l),
(692,453,l),
(473,453,l),
(373,465,l),
(309,528,l),
(295,612,l),
(295,729,l),
(309,811,l),
(373,874,l),
(473,889,l),
(701,889,l),
(772,877,l),
(772,1110,l),
(758,1163,l),
(698,1176,l),
(475,1176,l),
(381,1157,l),
(356,1266,l),
(473,1280,l),
(701,1280,l),
(801,1268,l),
(869,1204,l),
(869,454,l)
);
},
{
closed = 1;
nodes = (
(772,569,l),
(772,774,l),
(696,782,l),
(479,782,l),
(410,772,l),
(402,715,l),
(402,629,l),
(416,569,l),
(479,559,l),
(694,559,l)
);
}
);
};
layerId = "F859EBB1-02CE-49D6-A9DD-2E3CD13E297E";
shapes = (
{
closed = 1;
nodes = (
(746,0,ls),
(1016,0,o),
(1188,172,o),
(1188,381,cs),
(1188,989,ls),
(1188,1198,o),
(1016,1370,o),
(746,1370,cs),
(438,1370,ls),
(168,1370,o),
(-4,1198,o),
(-4,989,cs),
(-4,381,ls),
(-4,172,o),
(168,0,o),
(438,0,cs)
);
},
{
closed = 1;
nodes = (
(373,465,l),
(309,528,l),
(295,612,l),
(295,729,l),
(309,811,l),
(373,874,l),
(473,889,l),
(701,889,l),
(772,877,l),
(772,1110,l),
(758,1163,l),
(698,1176,l),
(475,1176,l),
(381,1157,l),
(356,1266,l),
(473,1280,l),
(701,1280,l),
(801,1268,l),
(869,1204,l),
(869,454,l),
(770,465,l),
(692,453,l),
(473,453,l)
);
},
{
closed = 1;
nodes = (
(694,559,l),
(772,569,l),
(772,774,l),
(696,782,l),
(479,782,l),
(410,772,l),
(402,715,l),
(402,629,l),
(416,569,l),
(479,559,l)
);
}
);
width = 1184;
}
);
unicode = 97;
},
{
color = 10;
glyphname = aacute;
lastChange = "2023-04-20 14:02:32 +0000";
layers = (
{
background = {
shapes = (
{
closed = 1;
nodes = (
(438,1370,ls),
(168,1370,o),
(-4,1198,o),
(-4,989,cs),
(-4,381,ls),
(-4,172,o),
(168,0,o),
(438,0,cs),
(746,0,ls),
(1016,0,o),
(1188,172,o),
(1188,381,cs),
(1188,989,ls),
(1188,1198,o),
(1016,1370,o),
(746,1370,cs)
);
},
{
closed = 1;
nodes = (
(770,465,l),
(692,453,l),
(473,453,l),
(373,465,l),
(309,528,l),
(295,612,l),
(295,729,l),
(309,811,l),
(373,874,l),
(473,889,l),
(701,889,l),
(772,877,l),
(772,1110,l),
(758,1163,l),
(698,1176,l),
(475,1176,l),
(381,1157,l),
(356,1266,l),
(473,1280,l),
(701,1280,l),
(801,1268,l),
(869,1204,l),
(869,454,l)
);
},
{
closed = 1;
nodes = (
(772,569,l),
(772,774,l),
(696,782,l),
(479,782,l),
(410,772,l),
(402,715,l),
(402,629,l),
(416,569,l),
(479,559,l),
(694,559,l)
);
},
{
closed = 1;
nodes = (
(780,1293,l),
(795,1308,o),
(807,1327,o),
(823,1354,cs),
(981,1624,ls),
(1011,1675,o),
(1024,1720,o),
(1024,1757,cs),
(1024,1888,o),
(878,1958,o),
(729,1958,cs),
(616,1958,o),
(521,1929,o),
(489,1845,c),
(396,1560,o),
(385,1490,o),
(385,1463,cs),
(385,1383,o),
(444,1320,o),
(506,1293,c)
);
},
{
closed = 1;
nodes = (
(653,1450,l),
(584,1450,l),
(684,1784,l),
(805,1784,l)
);
}
);
};
layerId = "F859EBB1-02CE-49D6-A9DD-2E3CD13E297E";
shapes = (
{
ref = a;
},
{
pos = (396,1200);
ref = acutecomb;
}
);
width = 1184;
}
);
unicode = 225;
},
{
color = 10;
glyphname = abreve;
lastChange = "2023-04-20 14:02:32 +0000";
layers = (
{
background = {
shapes = (
{
closed = 1;
nodes = (
(438,1370,ls),
(168,1370,o),
(-4,1198,o),
(-4,989,cs),
(-4,381,ls),
(-4,172,o),
(168,0,o),
(438,0,cs),
(746,0,ls),
(1016,0,o),
(1188,172,o),
(1188,381,cs),
(1188,989,ls),
(1188,1198,o),
(1016,1370,o),
(746,1370,cs)
);
},
{
closed = 1;
nodes = (
(770,465,l),
(692,453,l),
(473,453,l),
(373,465,l),
(309,528,l),
(295,612,l),
(295,729,l),
(309,811,l),
(373,874,l),
(473,889,l),
(701,889,l),
(772,877,l),
(772,1110,l),
(758,1163,l),
(698,1176,l),
(475,1176,l),
(381,1157,l),
(356,1266,l),
(473,1280,l),
(701,1280,l),
(801,1268,l),
(869,1204,l),
(869,454,l)
);
},
{
closed = 1;
nodes = (
(772,569,l),
(772,774,l),
(696,782,l),
(479,782,l),
(410,772,l),
(402,715,l),
(402,629,l),
(416,569,l),
(479,559,l),
(694,559,l)
);
},
{
closed = 1;
nodes = (
(910,1311,l),
(1022,1379,o),
(1084,1469,o),
(1084,1590,cs),
(1084,1763,o),
(912,1909,o),
(641,1909,cs),
(371,1909,o),
(199,1763,o),
(199,1590,cs),
(199,1469,o),
(260,1379,o),
(373,1311,c)
);
},
{
closed = 1;
nodes = (
(459,1610,l),
(549,1610,l),
(559,1540,l),
(615,1530,l),
(668,1530,l),
(727,1544,l),
(738,1610,l),
(828,1610,l),
(815,1512,l),
(756,1452,l),
(678,1440,l),
(607,1440,l),
(529,1452,l),
(471,1510,l)
);
}
);
};
layerId = "F859EBB1-02CE-49D6-A9DD-2E3CD13E297E";
shapes = (
{
ref = a;
},
{
pos = (200,1200);
ref = brevecomb;
}
);
width = 1184;
}
);
unicode = 259;
},
{
color = 10;
glyphname = acaron;
lastChange = "2023-04-20 14:02:32 +0000";
layers = (
{
background = {
shapes = (
{
closed = 1;
nodes = (
(438,1370,ls),
(168,1370,o),
(-4,1198,o),
(-4,989,cs),
(-4,381,ls),
(-4,172,o),
(168,0,o),
(438,0,cs),
(746,0,ls),
(1016,0,o),
(1188,172,o),
(1188,381,cs),
(1188,989,ls),
(1188,1198,o),
(1016,1370,o),
(746,1370,cs)
);
},
{
closed = 1;
nodes = (
(770,465,l),
(692,453,l),
(473,453,l),
(373,465,l),
(309,528,l),
(295,612,l),
(295,729,l),
(309,811,l),
(373,874,l),
(473,889,l),
(701,889,l),
(772,877,l),
(772,1110,l),
(758,1163,l),
(698,1176,l),
(475,1176,l),
(381,1157,l),
(356,1266,l),
(473,1280,l),
(701,1280,l),
(801,1268,l),
(869,1204,l),
(869,454,l)
);
},
{
closed = 1;
nodes = (
(772,569,l),
(772,774,l),
(696,782,l),
(479,782,l),
(410,772,l),
(402,715,l),
(402,629,l),
(416,569,l),
(479,559,l),
(694,559,l)
);
},
{
closed = 1;
nodes = (
(613,1917,o),
(577,1940,o),
(510,1940,cs),
(338,1940,o),
(277,1848,o),
(277,1753,cs),
(277,1657,o),
(339,1468,o),
(396,1311,c),
(898,1311,l),
(946,1427,o),
(1014,1635,o),
(1014,1743,cs),
(1014,1851,o),
(955,1942,o),
(807,1942,cs),
(735,1942,o),
(689,1919,o),
(648,1882,c)
);
},
{
closed = 1;
nodes = (
(646,1471,l),
(740,1764,l),
(822,1764,l),
(691,1426,l),
(601,1426,l),
(470,1764,l),
(551,1764,l)
);
}
);
};
layerId = "F859EBB1-02CE-49D6-A9DD-2E3CD13E297E";
shapes = (
{
ref = a;
},
{
pos = (267,1240);
ref = caroncomb;
}
);
width = 1184;
}
);
unicode = 462;
},
{
color = 10;
glyphname = acircumflex;
lastChange = "2023-04-20 14:02:32 +0000";
layers = (
{
background = {
shapes = (
{
closed = 1;
nodes = (
(438,1370,ls),
(168,1370,o),
(-4,1198,o),
(-4,989,cs),
(-4,381,ls),
(-4,172,o),
(168,0,o),
(438,0,cs),
(746,0,ls),
(1016,0,o),
(1188,172,o),
(1188,381,cs),
(1188,989,ls),
(1188,1198,o),
(1016,1370,o),
(746,1370,cs)
);
},
{
closed = 1;
nodes = (
(770,465,l),
(692,453,l),
(473,453,l),
(373,465,l),
(309,528,l),
(295,612,l),
(295,729,l),
(309,811,l),
(373,874,l),
(473,889,l),
(701,889,l),
(772,877,l),
(772,1110,l),
(758,1163,l),
(698,1176,l),
(475,1176,l),
(381,1157,l),
(356,1266,l),
(473,1280,l),
(701,1280,l),
(801,1268,l),
(869,1204,l),
(869,454,l)
);
},
{
closed = 1;
nodes = (
(772,569,l),
(772,774,l),
(696,782,l),
(479,782,l),
(410,772,l),
(402,715,l),
(402,629,l),
(416,569,l),
(479,559,l),
(694,559,l)
);
},
{
closed = 1;
nodes = (
(936,1311,l),
(982,1347,o),
(1005,1399,o),
(1005,1467,cs),
(1005,1519,o),
(967,1617,o),
(932,1706,cs),
(911,1757,o),
(887,1811,o),
(860,1868,cs),
(812,1967,o),
(753,2001,o),
(641,2001,cs),
(529,2001,o),
(467,1967,o),
(428,1899,c),
(356,1744,o),
(268,1553,o),
(268,1456,cs),
(268,1400,o),
(288,1346,o),
(329,1311,c)
);
},
{
closed = 1;
nodes = (
(542,1467,l),
(461,1467,l),
(592,1805,l),
(682,1805,l),
(813,1467,l),
(731,1467,l),
(637,1759,l)
);
}
);
};
layerId = "F859EBB1-02CE-49D6-A9DD-2E3CD13E297E";
shapes = (
{
ref = a;
},
{
pos = (257,1200);
ref = circumflexcomb;
}
);
width = 1184;
}
);
unicode = 226;
},
{
color = 10;
glyphname = adblgrave;
lastChange = "2023-04-20 14:02:32 +0000";
layers = (
{
background = {
shapes = (
{
closed = 1;
nodes = (
(438,1370,ls),
(168,1370,o),
(-4,1198,o),
(-4,989,cs),
(-4,381,ls),
(-4,172,o),
(168,0,o),
(438,0,cs),
(746,0,ls),
(1016,0,o),
(1188,172,o),
(1188,381,cs),
(1188,989,ls),
(1188,1198,o),
(1016,1370,o),
(746,1370,cs)
);
},
{
closed = 1;
nodes = (
(770,465,l),
(692,453,l),
(473,453,l),
(373,465,l),
(309,528,l),
(295,612,l),
(295,729,l),
(309,811,l),
(373,874,l),
(473,889,l),
(701,889,l),
(772,877,l),
(772,1110,l),
(758,1163,l),
(698,1176,l),
(475,1176,l),
(381,1157,l),
(356,1266,l),
(473,1280,l),
(701,1280,l),
(801,1268,l),
(869,1204,l),
(869,454,l)
);
},
{
closed = 1;
nodes = (
(772,569,l),
(772,774,l),
(696,782,l),
(479,782,l),
(410,772,l),
(402,715,l),
(402,629,l),
(416,569,l),
(479,559,l),
(694,559,l)
);
},
{
closed = 1;
nodes = (
(907,1296,l),
(940,1331,o),
(954,1374,o),
(954,1431,cs),
(954,1450,o),
(952,1472,o),
(948,1495,c),
(768,1828,ls),
(714,1927,o),
(677,1951,o),
(565,1962,c),
(473,1962,l),
(457,1929,l),
(426,1948,o),
(390,1955,o),
(334,1962,c),
(242,1962,l),
(86,1671,l),
(338,1296,l)
);
},
{
closed = 1;
nodes = (
(489,1765,l),
(582,1765,l),
(762,1431,l),
(711,1431,l)
);
},
{
closed = 1;
nodes = (
(258,1765,l),
(350,1765,l),
(530,1431,l),
(479,1431,l)
);
}
);
};
layerId = "F859EBB1-02CE-49D6-A9DD-2E3CD13E297E";
shapes = (
{
ref = a;
},
{
pos = (92,1200);
ref = dblgravecomb;
}
);
width = 1184;
}
);
unicode = 513;
},
